<svg width="596" height="101" viewBox="0 0 596 101" fill="none" xmlns="http://www.w3.org/2000/svg">
<rect x="1" y="1" width="593.5" height="98.5" rx="21.5" fill="white" fill-opacity="0.5"/>
<rect x="1" y="1" width="593.5" height="98.5" rx="21.5" stroke="url(#paint0_linear_3899_28)" stroke-width="2"/>
<path d="M87.015 66.21C86.7483 66.21 86.3883 66.1433 85.935 66.01C84.7617 65.5567 84.175 64.7967 84.175 63.73C84.175 63.4633 84.2417 63.09 84.375 62.61L94.135 35.57C94.455 34.6633 94.855 34.0233 95.335 33.65C95.815 33.2767 96.3883 33.09 97.055 33.09C97.7217 33.09 98.295 33.2767 98.775 33.65C99.255 34.0233 99.655 34.6633 99.975 35.57L109.735 62.61C109.868 62.9567 109.935 63.33 109.935 63.73C109.935 64.2633 109.788 64.73 109.495 65.13C109.202 65.5033 108.775 65.7833 108.215 65.97C107.815 66.13 107.442 66.21 107.095 66.21C106.562 66.21 106.095 66.05 105.695 65.73C105.295 65.41 104.988 64.97 104.775 64.41L102.455 57.77H91.655L89.335 64.41C89.1483 64.97 88.855 65.41 88.455 65.73C88.055 66.05 87.575 66.21 87.015 66.21ZM100.775 52.97L98.255 45.77L97.095 42.09H96.935L95.855 45.77L93.335 52.97H100.775ZM125.199 66.37C122.639 66.37 120.465 65.5167 118.679 63.81V64.21C118.679 64.77 118.425 65.25 117.919 65.65C117.439 66.0233 116.825 66.21 116.079 66.21H115.879C115.105 66.21 114.479 65.9967 113.999 65.57C113.519 65.1433 113.279 64.5567 113.279 63.81V35.09C113.279 34.3433 113.519 33.7567 113.999 33.33C114.479 32.9033 115.105 32.69 115.879 32.69H116.079C116.852 32.69 117.479 32.9033 117.959 33.33C118.439 33.7567 118.679 34.3433 118.679 35.09V45.45C120.465 43.7433 122.639 42.89 125.199 42.89C127.279 42.89 129.145 43.3967 130.799 44.41C132.452 45.3967 133.745 46.7833 134.679 48.57C135.612 50.3567 136.079 52.37 136.079 54.61C136.079 56.85 135.612 58.8633 134.679 60.65C133.745 62.4367 132.452 63.8367 130.799 64.85C129.145 65.8633 127.279 66.37 125.199 66.37ZM118.679 54.65C118.679 55.9567 118.932 57.1433 119.439 58.21C119.972 59.25 120.692 60.0767 121.599 60.69C122.505 61.2767 123.532 61.57 124.679 61.57C125.825 61.57 126.852 61.2767 127.759 60.69C128.665 60.0767 129.372 59.25 129.879 58.21C130.412 57.1433 130.679 55.9567 130.679 54.65C130.679 53.3167 130.412 52.13 129.879 51.09C129.372 50.0233 128.665 49.1967 127.759 48.61C126.852 47.9967 125.825 47.69 124.679 47.69C123.532 47.69 122.505 47.9967 121.599 48.61C120.692 49.1967 119.972 50.0233 119.439 51.09C118.932 52.13 118.679 53.3167 118.679 54.65ZM151.863 66.37C149.649 66.37 147.636 65.8633 145.823 64.85C144.009 63.81 142.596 62.3967 141.583 60.61C140.569 58.8233 140.063 56.8233 140.063 54.61C140.063 52.3433 140.569 50.33 141.583 48.57C142.596 46.7833 143.996 45.3967 145.783 44.41C147.569 43.3967 149.596 42.89 151.863 42.89C154.129 42.89 156.156 43.3967 157.943 44.41C159.729 45.3967 161.129 46.7833 162.143 48.57C163.156 50.33 163.663 52.3433 163.663 54.61C163.663 56.8233 163.156 58.8367 162.143 60.65C161.103 62.4367 159.676 63.8367 157.863 64.85C156.076 65.8633 154.076 66.37 151.863 66.37ZM145.463 54.65C145.463 55.9567 145.729 57.1433 146.263 58.21C146.823 59.25 147.583 60.0767 148.543 60.69C149.529 61.2767 150.636 61.57 151.863 61.57C153.089 61.57 154.183 61.2767 155.143 60.69C156.129 60.0767 156.889 59.25 157.423 58.21C157.983 57.1433 158.262 55.9567 158.262 54.65C158.262 53.29 157.983 52.0767 157.423 51.01C156.863 49.9433 156.089 49.13 155.103 48.57C154.143 47.9833 153.063 47.69 151.863 47.69C150.663 47.69 149.569 47.9833 148.583 48.57C147.623 49.13 146.863 49.9433 146.303 51.01C145.743 52.0767 145.463 53.29 145.463 54.65ZM177.6 66.37C174.56 66.37 172.213 65.4233 170.56 63.53C168.906 61.6367 168.08 58.9433 168.08 55.45V45.49C168.08 44.7433 168.32 44.1567 168.8 43.73C169.28 43.3033 169.906 43.09 170.68 43.09H170.88C171.653 43.09 172.28 43.3033 172.76 43.73C173.24 44.1567 173.48 44.7433 173.48 45.49V54.77C173.48 57.09 173.88 58.81 174.68 59.93C175.506 61.0233 176.746 61.57 178.4 61.57C179.866 61.57 181.08 61.0767 182.04 60.09C183 59.1033 183.533 57.7433 183.64 56.01V45.49C183.64 44.7433 183.88 44.1567 184.36 43.73C184.84 43.3033 185.466 43.09 186.24 43.09H186.44C187.213 43.09 187.84 43.3033 188.32 43.73C188.8 44.1567 189.04 44.7433 189.04 45.49V63.65C189.04 64.3967 188.8 64.9833 188.32 65.41C187.84 65.8367 187.213 66.05 186.44 66.05H186.24C185.493 66.05 184.866 65.8633 184.36 65.49C183.88 65.09 183.64 64.61 183.64 64.05V64.01C181.906 65.5833 179.893 66.37 177.6 66.37ZM206.219 66.37C203.606 66.37 201.606 65.6233 200.219 64.13C198.832 62.61 198.139 60.29 198.139 57.17V47.93H195.499C194.646 47.93 193.966 47.7167 193.459 47.29C192.979 46.8633 192.739 46.2767 192.739 45.53C192.739 44.7833 192.992 44.1967 193.499 43.77C194.006 43.3167 194.672 43.09 195.499 43.09H198.139V35.89C198.139 35.09 198.379 34.45 198.859 33.97C199.339 33.4633 199.992 33.21 200.819 33.21C201.672 33.21 202.339 33.4633 202.819 33.97C203.299 34.45 203.539 35.09 203.539 35.89V43.09H209.299C210.126 43.09 210.792 43.3167 211.299 43.77C211.806 44.1967 212.059 44.7833 212.059 45.53C212.059 46.2767 211.806 46.8633 211.299 47.29C210.819 47.7167 210.152 47.93 209.299 47.93H203.539V57.17C203.539 60.1033 204.446 61.57 206.259 61.57C206.872 61.57 207.419 61.4767 207.899 61.29C208.406 61.0767 208.939 60.73 209.499 60.25C209.926 59.9033 210.419 59.73 210.979 59.73C211.726 59.73 212.352 60.0233 212.859 60.61C213.286 61.1167 213.499 61.6367 213.499 62.17C213.499 62.81 213.219 63.41 212.659 63.97C211.032 65.57 208.886 66.37 206.219 66.37ZM240.553 66.37C237.727 66.37 235.26 65.6767 233.153 64.29C231.02 62.9033 229.367 60.9433 228.193 58.41C227.02 55.8767 226.433 52.9567 226.433 49.65C226.433 46.37 227.02 43.45 228.193 40.89C229.367 38.33 231.02 36.37 233.153 35.01C235.287 33.6233 237.753 32.93 240.553 32.93C242.1 32.93 243.62 33.1833 245.113 33.69C246.607 34.17 247.887 34.8233 248.953 35.65C249.62 36.1567 249.953 36.7833 249.953 37.53C249.953 37.9833 249.767 38.4767 249.393 39.01C248.833 39.6767 248.18 40.01 247.433 40.01C246.953 40.01 246.487 39.8633 246.033 39.57C244.327 38.3433 242.5 37.73 240.553 37.73C238.847 37.73 237.327 38.2233 235.993 39.21C234.687 40.1967 233.66 41.5967 232.913 43.41C232.193 45.2233 231.833 47.3433 231.833 49.77C231.833 52.1433 232.193 54.2233 232.913 56.01C233.66 57.7967 234.687 59.17 235.993 60.13C237.327 61.09 238.847 61.57 240.553 61.57C241.753 61.57 242.833 61.4233 243.793 61.13C244.753 60.81 245.673 60.3167 246.553 59.65C247.087 59.25 247.647 59.05 248.233 59.05C248.9 59.05 249.487 59.33 249.993 59.89C250.473 60.37 250.713 60.9167 250.713 61.53C250.713 62.3033 250.34 62.9833 249.593 63.57C248.5 64.4767 247.18 65.17 245.633 65.65C244.087 66.13 242.393 66.37 240.553 66.37ZM265.886 66.37C263.673 66.37 261.659 65.8633 259.846 64.85C258.033 63.81 256.619 62.3967 255.606 60.61C254.593 58.8233 254.086 56.8233 254.086 54.61C254.086 52.3433 254.593 50.33 255.606 48.57C256.619 46.7833 258.019 45.3967 259.806 44.41C261.593 43.3967 263.619 42.89 265.886 42.89C268.153 42.89 270.179 43.3967 271.966 44.41C273.753 45.3967 275.153 46.7833 276.166 48.57C277.179 50.33 277.686 52.3433 277.686 54.61C277.686 56.8233 277.179 58.8367 276.166 60.65C275.126 62.4367 273.699 63.8367 271.886 64.85C270.099 65.8633 268.099 66.37 265.886 66.37ZM259.486 54.65C259.486 55.9567 259.753 57.1433 260.286 58.21C260.846 59.25 261.606 60.0767 262.566 60.69C263.553 61.2767 264.659 61.57 265.886 61.57C267.113 61.57 268.206 61.2767 269.166 60.69C270.153 60.0767 270.913 59.25 271.446 58.21C272.006 57.1433 272.286 55.9567 272.286 54.65C272.286 53.29 272.006 52.0767 271.446 51.01C270.886 49.9433 270.113 49.13 269.126 48.57C268.166 47.9833 267.086 47.69 265.886 47.69C264.686 47.69 263.593 47.9833 262.606 48.57C261.646 49.13 260.886 49.9433 260.326 51.01C259.766 52.0767 259.486 53.29 259.486 54.65ZM293.303 74.73C289.303 74.73 286.09 73.5567 283.663 71.21C283.05 70.65 282.743 69.9833 282.743 69.21C282.743 68.5433 282.956 67.9967 283.383 67.57C283.89 66.9833 284.503 66.69 285.223 66.69C285.89 66.69 286.45 66.9167 286.903 67.37C287.916 68.3033 288.916 68.9567 289.903 69.33C290.89 69.73 292.023 69.93 293.303 69.93C295.116 69.93 296.53 69.49 297.543 68.61C298.583 67.73 299.103 66.41 299.103 64.65V63.01C297.263 64.7167 295.09 65.57 292.583 65.57C290.476 65.57 288.61 65.0767 286.983 64.09C285.33 63.13 284.036 61.7833 283.103 60.05C282.17 58.3167 281.703 56.37 281.703 54.21C281.703 52.05 282.17 50.1167 283.103 48.41C284.036 46.6767 285.33 45.33 286.983 44.37C288.636 43.3833 290.503 42.89 292.583 42.89C295.09 42.89 297.263 43.7433 299.103 45.45V45.09C299.103 44.53 299.343 44.0633 299.823 43.69C300.33 43.29 300.956 43.09 301.703 43.09H301.903C302.676 43.09 303.303 43.3033 303.783 43.73C304.263 44.1567 304.503 44.7433 304.503 45.49V63.85C304.503 67.2633 303.516 69.93 301.543 71.85C299.57 73.77 296.823 74.73 293.303 74.73ZM287.103 54.25C287.103 56.1433 287.663 57.7033 288.783 58.93C289.93 60.1567 291.37 60.77 293.103 60.77C294.836 60.77 296.263 60.1567 297.383 58.93C298.53 57.7033 299.103 56.1433 299.103 54.25C299.103 52.3833 298.543 50.8233 297.423 49.57C296.303 48.3167 294.863 47.69 293.103 47.69C291.343 47.69 289.903 48.3167 288.783 49.57C287.663 50.8233 287.103 52.3833 287.103 54.25ZM333.649 48.33C333.275 48.33 332.902 48.25 332.529 48.09C331.489 47.6367 330.969 46.9033 330.969 45.89C330.969 45.6233 331.009 45.33 331.089 45.01L331.249 44.41C326.822 44.4633 321.662 44.49 315.769 44.49C314.995 44.49 314.382 44.29 313.929 43.89C313.502 43.4633 313.289 42.89 313.289 42.17C313.289 41.45 313.502 40.89 313.929 40.49C314.382 40.0633 314.995 39.85 315.769 39.85H332.049C332.129 39.1567 332.169 38.5167 332.169 37.93C332.169 37.7967 332.115 37.69 332.009 37.61C331.929 37.5033 331.809 37.45 331.649 37.45H316.049C315.275 37.45 314.662 37.2367 314.209 36.81C313.782 36.3833 313.569 35.7967 313.569 35.05C313.569 34.3033 313.782 33.7167 314.209 33.29C314.662 32.8633 315.275 32.65 316.049 32.65H334.129C335.089 32.65 335.875 32.9567 336.489 33.57C337.102 34.1833 337.409 34.9833 337.409 35.97C337.409 40.3967 336.875 43.9967 335.809 46.77C335.622 47.25 335.329 47.6367 334.929 47.93C334.555 48.1967 334.129 48.33 333.649 48.33ZM308.169 52.41C308.169 51.69 308.395 51.1167 308.849 50.69C309.302 50.2633 309.942 50.05 310.769 50.05H320.929V47.13C320.929 46.4367 321.142 45.9433 321.569 45.65C322.022 45.33 322.675 45.17 323.529 45.17H323.729C324.582 45.17 325.222 45.33 325.649 45.65C326.102 45.9433 326.329 46.4367 326.329 47.13V50.05H340.369C341.195 50.05 341.835 50.2633 342.289 50.69C342.742 51.1167 342.969 51.69 342.969 52.41C342.969 53.13 342.729 53.7167 342.249 54.17C341.795 54.6233 341.169 54.85 340.369 54.85H310.769C309.969 54.85 309.329 54.6233 308.849 54.17C308.395 53.7167 308.169 53.13 308.169 52.41ZM313.569 59.93C313.569 59.21 313.795 58.65 314.249 58.25C314.702 57.8233 315.342 57.61 316.169 57.61H333.809C336.075 57.61 337.209 58.7433 337.209 61.01V67.73C337.209 68.45 336.969 69.0233 336.489 69.45C336.009 69.9033 335.369 70.13 334.569 70.13H334.369C333.595 70.13 332.969 69.9167 332.489 69.49C332.035 69.0633 331.809 68.4767 331.809 67.73V63.01C331.809 62.85 331.742 62.7167 331.609 62.61C331.502 62.4767 331.369 62.41 331.209 62.41H316.169C315.369 62.41 314.729 62.1833 314.249 61.73C313.795 61.2767 313.569 60.6767 313.569 59.93ZM366.606 53.05C364.792 53.05 363.352 52.53 362.286 51.49C361.219 50.45 360.686 49.0233 360.686 47.21V35.29C360.686 34.49 360.926 33.8633 361.406 33.41C361.912 32.9567 362.566 32.73 363.366 32.73H363.526C364.299 32.73 364.912 32.9567 365.366 33.41C365.846 33.8633 366.086 34.49 366.086 35.29V38.65H378.646V35.29C378.646 34.49 378.872 33.8633 379.326 33.41C379.806 32.9567 380.432 32.73 381.206 32.73H381.366C382.166 32.73 382.806 32.9567 383.286 33.41C383.792 33.8633 384.046 34.49 384.046 35.29V47.21C384.046 49.05 383.566 50.49 382.606 51.53C381.646 52.5433 380.286 53.05 378.526 53.05H366.606ZM354.966 63.37C354.966 62.6233 355.179 62.0367 355.606 61.61C356.059 61.1833 356.672 60.97 357.446 60.97H369.646V56.57C369.646 55.77 369.886 55.1433 370.366 54.69C370.872 54.2367 371.526 54.01 372.326 54.01C373.179 54.01 373.846 54.2367 374.326 54.69C374.806 55.1433 375.046 55.77 375.046 56.57V60.97H387.286C388.059 60.97 388.659 61.1833 389.086 61.61C389.539 62.0367 389.766 62.6233 389.766 63.37C389.766 64.1167 389.539 64.7033 389.086 65.13C388.659 65.5567 388.059 65.77 387.286 65.77H357.446C356.672 65.77 356.059 65.5567 355.606 65.13C355.179 64.7033 354.966 64.1167 354.966 63.37ZM366.086 47.01C366.086 47.8367 366.526 48.25 367.406 48.25H377.326C378.206 48.25 378.646 47.8367 378.646 47.01V43.45H366.086V47.01ZM405.033 61.01C402.926 61.01 401.206 60.81 399.873 60.41C396.06 59.2633 394.153 56.73 394.153 52.81V47.85C394.153 46.8633 394.46 46.0633 395.073 45.45C395.686 44.8367 396.473 44.53 397.433 44.53H406.433C406.566 44.53 406.686 44.49 406.793 44.41C406.9 44.3033 406.953 44.1967 406.953 44.09V38.97C406.953 38.8367 406.9 38.73 406.793 38.65C406.686 38.5433 406.566 38.49 406.433 38.49H396.353C395.58 38.49 394.966 38.2767 394.513 37.85C394.086 37.4233 393.873 36.8367 393.873 36.09C393.873 35.3433 394.086 34.7567 394.513 34.33C394.966 33.9033 395.58 33.69 396.353 33.69H409.073C410.033 33.69 410.82 34.01 411.433 34.65C412.046 35.2633 412.353 36.0633 412.353 37.05V45.81C412.353 46.7967 412.046 47.5967 411.433 48.21C410.82 48.7967 410.033 49.09 409.073 49.09H400.073C399.94 49.09 399.82 49.1433 399.713 49.25C399.606 49.3567 399.553 49.4767 399.553 49.61V52.85C399.553 54.45 400.233 55.4367 401.593 55.81C402.5 56.0767 403.726 56.21 405.273 56.21C406.473 56.21 407.673 56.1033 408.873 55.89C410.073 55.6767 411.113 55.3833 411.993 55.01C412.446 54.8767 412.78 54.81 412.993 54.81C413.633 54.81 414.166 55.05 414.593 55.53C415.02 55.9833 415.233 56.5567 415.233 57.25C415.233 58.29 414.58 59.09 413.273 59.65C412.233 60.05 410.94 60.3833 409.393 60.65C407.873 60.89 406.42 61.01 405.033 61.01ZM413.233 46.09C413.233 45.3433 413.446 44.7567 413.873 44.33C414.326 43.9033 414.94 43.69 415.713 43.69H418.673V33.89C418.673 33.1433 418.913 32.5567 419.393 32.13C419.873 31.7033 420.5 31.49 421.273 31.49H421.473C422.246 31.49 422.873 31.7033 423.353 32.13C423.833 32.5567 424.073 33.1433 424.073 33.89V67.41C424.073 68.1567 423.833 68.7433 423.353 69.17C422.873 69.5967 422.246 69.81 421.473 69.81H421.273C420.5 69.81 419.873 69.5967 419.393 69.17C418.913 68.7433 418.673 68.1567 418.673 67.41V48.49H415.713C414.94 48.49 414.326 48.2767 413.873 47.85C413.446 47.4233 413.233 46.8367 413.233 46.09ZM442.75 61.17C441.897 61.17 441.203 60.8233 440.67 60.13C440.323 59.7033 440.15 59.1833 440.15 58.57C440.15 58.1433 440.27 57.73 440.51 57.33C440.75 56.9033 441.097 56.57 441.55 56.33C443.923 54.97 446.083 53.3433 448.03 51.45C450.003 49.5567 451.55 47.5967 452.67 45.57C453.817 43.5167 454.39 41.61 454.39 39.85V39.37C454.39 38.81 454.177 38.5167 453.75 38.49H443.63C442.857 38.49 442.243 38.2767 441.79 37.85C441.363 37.4233 441.15 36.8367 441.15 36.09C441.15 35.3433 441.363 34.7567 441.79 34.33C442.243 33.9033 442.857 33.69 443.63 33.69H456.55C457.51 33.69 458.297 34.01 458.91 34.65C459.523 35.2633 459.83 36.0767 459.83 37.09V38.13C459.83 41.65 458.977 44.9433 457.27 48.01C455.643 50.9433 453.63 53.53 451.23 55.77C448.857 58.01 446.483 59.7033 444.11 60.85C443.63 61.0633 443.177 61.17 442.75 61.17ZM463.87 33.89C463.87 33.1433 464.11 32.5567 464.59 32.13C465.07 31.7033 465.697 31.49 466.47 31.49H466.67C467.443 31.49 468.07 31.7033 468.55 32.13C469.03 32.5567 469.27 33.1433 469.27 33.89V44.09H472.27C473.043 44.09 473.643 44.3033 474.07 44.73C474.523 45.1567 474.75 45.7433 474.75 46.49C474.75 47.2367 474.523 47.8233 474.07 48.25C473.643 48.6767 473.043 48.89 472.27 48.89H469.27V67.41C469.27 68.1567 469.03 68.7433 468.55 69.17C468.07 69.5967 467.443 69.81 466.67 69.81H466.47C465.697 69.81 465.07 69.5967 464.59 69.17C464.11 68.7433 463.87 68.1567 463.87 67.41V33.89ZM480.018 61.29C479.164 61.29 478.458 60.93 477.898 60.21C477.551 59.7567 477.378 59.25 477.378 58.69C477.378 58.2633 477.498 57.85 477.738 57.45C477.978 57.05 478.324 56.73 478.778 56.49C481.231 55.13 483.444 53.4633 485.418 51.49C487.391 49.49 488.924 47.45 490.018 45.37C491.138 43.29 491.698 41.45 491.698 39.85V39.37C491.698 38.81 491.484 38.5167 491.058 38.49H480.817C480.044 38.49 479.431 38.2767 478.978 37.85C478.551 37.4233 478.338 36.8367 478.338 36.09C478.338 35.3433 478.551 34.7567 478.978 34.33C479.431 33.9033 480.044 33.69 480.817 33.69H493.738C494.698 33.69 495.484 34.01 496.098 34.65C496.711 35.2633 497.018 36.0767 497.018 37.09V38.13C497.018 41.65 496.164 44.9433 494.458 48.01C492.858 50.97 490.858 53.5833 488.458 55.85C486.058 58.1167 483.684 59.8233 481.338 60.97C480.831 61.1833 480.391 61.29 480.018 61.29ZM502.698 33.89C502.698 33.1433 502.938 32.5567 503.418 32.13C503.898 31.7033 504.524 31.49 505.298 31.49H505.498C506.271 31.49 506.898 31.7033 507.378 32.13C507.858 32.5567 508.098 33.1433 508.098 33.89V67.41C508.098 68.1567 507.858 68.7433 507.378 69.17C506.898 69.5967 506.271 69.81 505.498 69.81H505.298C504.524 69.81 503.898 69.5967 503.418 69.17C502.938 68.7433 502.698 68.1567 502.698 67.41V33.89Z" fill="white"/>
<defs>
<linearGradient id="paint0_linear_3899_28" x1="1.34193e-07" y1="50.25" x2="583.5" y2="100.472" gradientUnits="userSpaceOnUse">
<stop stop-color="white"/>
<stop offset="0.487594" stop-color="white" stop-opacity="0"/>
<stop offset="1" stop-color="white"/>
</linearGradient>
</defs>
</svg>
