<svg xmlns="http://www.w3.org/2000/svg" width="596" height="101" fill="none" viewBox="0 0 596 101"><rect width="593.5" height="98.5" x="1" y="1" fill="#fff" fill-opacity=".5" rx="21.5"/><rect width="593.5" height="98.5" x="1" y="1" stroke="url(#a)" stroke-width="2" rx="21.5"/><path fill="#fff" d="M87.015 66.21q-.4 0-1.08-.2-1.76-.68-1.76-2.28 0-.4.2-1.12l9.76-27.04q.48-1.36 1.2-1.92t1.72-.56 1.72.56 1.2 1.92l9.76 27.04q.2.52.2 1.12 0 .8-.44 1.4-.44.56-1.28.84-.6.24-1.12.24-.8 0-1.4-.48t-.92-1.32l-2.32-6.64h-10.8l-2.32 6.64q-.28.84-.88 1.32t-1.44.48m13.76-13.24-2.52-7.2-1.16-3.68h-.16l-1.08 3.68-2.52 7.2zm24.424 13.4q-3.84 0-6.52-2.56v.4q0 .84-.76 1.44-.72.56-1.84.56h-.2q-1.16 0-1.88-.64t-.72-1.76V35.09q0-1.12.72-1.76t1.88-.64h.2q1.16 0 1.88.64t.72 1.76v10.36q2.68-2.56 6.52-2.56 3.12 0 5.6 1.52 2.48 1.48 3.88 4.16t1.4 6.04-1.4 6.04-3.88 4.2-5.6 1.52m-6.52-11.72q0 1.96.76 3.56.8 1.56 2.16 2.48 1.36.88 3.08.88t3.08-.88q1.36-.92 2.12-2.48.8-1.6.8-3.56 0-2-.8-3.56-.76-1.6-2.12-2.48-1.36-.92-3.08-.92t-3.08.92q-1.36.88-2.16 2.48-.76 1.56-.76 3.56m33.184 11.72q-3.32 0-6.04-1.52-2.72-1.56-4.24-4.24t-1.52-6q0-3.4 1.52-6.04a10.67 10.67 0 0 1 4.2-4.16q2.68-1.52 6.08-1.52t6.08 1.52a10.7 10.7 0 0 1 4.2 4.16q1.52 2.64 1.52 6.04 0 3.32-1.52 6.04a11.17 11.17 0 0 1-4.28 4.2q-2.68 1.52-6 1.52m-6.4-11.72q0 1.96.8 3.56a6.6 6.6 0 0 0 2.28 2.48q1.48.88 3.32.88t3.28-.88a6.2 6.2 0 0 0 2.28-2.48q.84-1.6.839-3.56 0-2.04-.839-3.64-.84-1.6-2.32-2.44-1.44-.88-3.24-.88t-3.28.88q-1.44.84-2.28 2.44t-.84 3.64M177.6 66.37q-4.56 0-7.04-2.84t-2.48-8.08v-9.96q0-1.12.72-1.76t1.88-.64h.2q1.16 0 1.88.64t.72 1.76v9.28q0 3.48 1.2 5.16 1.239 1.64 3.72 1.64 2.2 0 3.64-1.48t1.6-4.08V45.49q0-1.12.72-1.76t1.88-.64h.2q1.16 0 1.88.64t.72 1.76v18.16q0 1.12-.72 1.76t-1.88.64h-.2q-1.12 0-1.88-.56-.72-.6-.72-1.44v-.04q-2.6 2.36-6.04 2.36m28.619 0q-3.92 0-6-2.24-2.08-2.28-2.08-6.96v-9.24h-2.64q-1.28 0-2.04-.64-.72-.64-.72-1.76t.76-1.76q.76-.68 2-.68h2.64v-7.2q0-1.2.72-1.92.72-.76 1.96-.76 1.28 0 2 .76.72.72.72 1.92v7.2h5.76q1.24 0 2 .68.76.64.76 1.76t-.76 1.76q-.72.64-2 .64h-5.76v9.24q0 4.4 2.72 4.4.92 0 1.64-.28.76-.32 1.6-1.04a2.28 2.28 0 0 1 1.48-.52q1.12 0 1.88.88.64.76.64 1.56 0 .96-.84 1.8-2.44 2.4-6.44 2.4m34.334 0q-4.24 0-7.4-2.08-3.2-2.08-4.96-5.88t-1.76-8.76q0-4.92 1.76-8.76t4.96-5.88q3.2-2.08 7.4-2.08a14.1 14.1 0 0 1 4.56.76q2.241.72 3.84 1.96 1 .76 1 1.88 0 .68-.56 1.48-.84 1-1.96 1-.72 0-1.4-.44-2.56-1.84-5.48-1.84-2.559 0-4.56 1.48-1.96 1.48-3.08 4.2-1.08 2.72-1.08 6.36 0 3.56 1.08 6.24 1.12 2.68 3.08 4.12 2.001 1.44 4.56 1.44 1.8 0 3.24-.44 1.44-.48 2.76-1.48.801-.6 1.68-.6 1 0 1.76.84.72.72.72 1.64 0 1.16-1.12 2.04-1.64 1.36-3.96 2.08t-5.08.72m25.333 0q-3.32 0-6.04-1.52-2.72-1.56-4.24-4.24t-1.52-6q0-3.4 1.52-6.04a10.67 10.67 0 0 1 4.2-4.16q2.68-1.52 6.08-1.52t6.08 1.52a10.67 10.67 0 0 1 4.2 4.16q1.52 2.64 1.52 6.04 0 3.32-1.52 6.04a11.17 11.17 0 0 1-4.28 4.2q-2.68 1.52-6 1.52m-6.4-11.72q0 1.96.8 3.56a6.6 6.6 0 0 0 2.28 2.48q1.48.88 3.32.88t3.28-.88a6.2 6.2 0 0 0 2.28-2.48q.84-1.6.84-3.56 0-2.04-.84-3.64t-2.32-2.44q-1.44-.88-3.24-.88t-3.28.88q-1.44.84-2.28 2.44t-.84 3.64m33.817 20.08q-6 0-9.64-3.52-.92-.84-.92-2 0-1 .64-1.64.76-.88 1.84-.88 1 0 1.68.68 1.52 1.4 3 1.96 1.48.6 3.4.6 2.72 0 4.24-1.32 1.56-1.32 1.56-3.96v-1.64q-2.76 2.56-6.52 2.56-3.16 0-5.6-1.48-2.48-1.44-3.88-4.04t-1.4-5.84 1.4-5.8q1.4-2.6 3.88-4.04 2.48-1.48 5.6-1.48 3.76 0 6.52 2.56v-.36q0-.84.72-1.4.76-.6 1.88-.6h.2q1.16 0 1.88.64t.72 1.76v18.36q0 5.12-2.96 8t-8.24 2.88m-6.2-20.48q0 2.84 1.68 4.68 1.72 1.84 4.32 1.84t4.28-1.84q1.72-1.84 1.72-4.68 0-2.8-1.68-4.68t-4.32-1.88-4.32 1.88-1.68 4.68m46.546-5.92a2.8 2.8 0 0 1-1.12-.24q-1.56-.68-1.56-2.2 0-.4.12-.88l.16-.6q-6.64.08-15.48.08-1.16 0-1.84-.6-.64-.64-.64-1.72t.64-1.68q.68-.64 1.84-.64h16.28q.12-1.04.12-1.92a.38.38 0 0 0-.16-.32q-.12-.16-.36-.16h-15.6q-1.16 0-1.84-.64-.64-.64-.64-1.76t.64-1.76q.68-.64 1.84-.64h18.08q1.44 0 2.36.92t.92 2.4q0 6.64-1.6 10.8-.28.72-.88 1.16-.56.4-1.28.4m-25.48 4.08q0-1.08.68-1.72t1.92-.64h10.16v-2.92q0-1.04.64-1.48.68-.48 1.96-.48h.2q1.28 0 1.92.48.68.44.68 1.48v2.92h14.04q1.239 0 1.92.64t.68 1.72-.72 1.76q-.68.68-1.88.68h-29.6q-1.2 0-1.92-.68-.68-.68-.68-1.76m5.4 7.52q0-1.08.68-1.68.68-.64 1.92-.64h17.64q3.4 0 3.4 3.4v6.72q0 1.08-.72 1.72-.72.68-1.92.68h-.2q-1.16 0-1.88-.64-.68-.64-.68-1.76v-4.72a.5.5 0 0 0-.2-.4.5.5 0 0 0-.4-.2h-15.04q-1.2 0-1.92-.68-.68-.68-.68-1.8m53.037-6.88q-2.721 0-4.32-1.56t-1.6-4.28V35.29q0-1.2.72-1.88.76-.68 1.96-.68h.16q1.16 0 1.84.68.72.68.72 1.88v3.36h12.56v-3.36q0-1.2.68-1.88.72-.68 1.88-.68h.16q1.2 0 1.92.68.76.68.76 1.88v11.92q0 2.76-1.44 4.32-1.44 1.52-4.08 1.52zm-11.64 10.32q0-1.12.64-1.76.68-.64 1.84-.64h12.2v-4.4q0-1.2.72-1.88.76-.68 1.96-.68 1.28 0 2 .68t.72 1.88v4.4h12.24q1.16 0 1.8.64.68.64.68 1.76t-.68 1.76q-.64.64-1.8.64h-29.84q-1.16 0-1.84-.64-.64-.64-.64-1.76m11.12-16.36q0 1.24 1.32 1.24h9.92q1.32 0 1.32-1.24v-3.56h-12.56zm38.947 14q-3.16 0-5.16-.6-5.72-1.72-5.72-7.6v-4.96q0-1.48.92-2.4t2.36-.92h9q.2 0 .36-.12.16-.16.16-.32v-5.12a.38.38 0 0 0-.16-.32.5.5 0 0 0-.36-.16h-10.08q-1.16 0-1.84-.64-.64-.64-.64-1.76t.64-1.76q.68-.64 1.84-.64h12.72q1.44 0 2.36.96.92.92.92 2.4v8.76q0 1.48-.92 2.4-.92.88-2.36.88h-9a.5.5 0 0 0-.36.16.5.5 0 0 0-.16.36v3.24q0 2.4 2.04 2.96 1.36.4 3.68.4 1.8 0 3.6-.32t3.12-.88q.68-.2 1-.2.96 0 1.6.72.64.68.64 1.72 0 1.56-1.96 2.4-1.56.6-3.88 1-2.28.36-4.36.36m8.2-14.92q0-1.12.64-1.76.68-.64 1.84-.64h2.96v-9.8q0-1.12.72-1.76t1.88-.64h.2q1.16 0 1.88.64t.72 1.76v33.52q0 1.12-.72 1.76t-1.88.64h-.2q-1.16 0-1.88-.64t-.72-1.76V48.49h-2.96q-1.16 0-1.84-.64-.64-.64-.64-1.76m29.517 15.08q-1.28 0-2.08-1.04-.52-.64-.52-1.56 0-.64.36-1.24.36-.64 1.04-1a32.3 32.3 0 0 0 6.48-4.88q2.96-2.84 4.64-5.88 1.72-3.08 1.72-5.72v-.48q0-.84-.64-.88h-10.12q-1.16 0-1.84-.64-.64-.64-.64-1.76t.64-1.76q.68-.64 1.84-.64h12.92q1.44 0 2.36.96.92.92.92 2.44v1.04q0 5.28-2.56 9.88a31.3 31.3 0 0 1-6.04 7.76q-3.56 3.36-7.12 5.08-.72.32-1.36.32m21.12-27.28q0-1.12.72-1.76t1.88-.64h.2q1.16 0 1.88.64t.72 1.76v10.2h3q1.16 0 1.8.64.68.64.68 1.76t-.68 1.76q-.64.64-1.8.64h-3v18.52q0 1.12-.72 1.76t-1.88.64h-.2q-1.16 0-1.88-.64t-.72-1.76zm16.148 27.4q-1.28 0-2.12-1.08a2.44 2.44 0 0 1-.52-1.52q0-.64.36-1.24t1.04-.96a29.8 29.8 0 0 0 6.64-5q2.96-3 4.6-6.12 1.68-3.12 1.68-5.52v-.48q0-.84-.64-.88h-10.241q-1.16 0-1.839-.64-.64-.64-.64-1.76t.64-1.76q.68-.64 1.839-.64h12.921q1.44 0 2.36.96.92.92.92 2.44v1.04q0 5.28-2.56 9.88-2.4 4.44-6 7.84t-7.12 5.12q-.76.32-1.32.32m22.68-27.4q0-1.12.72-1.76t1.88-.64h.2q1.16 0 1.88.64t.72 1.76v33.52q0 1.12-.72 1.76t-1.88.64h-.2q-1.16 0-1.88-.64t-.72-1.76z"/><defs><linearGradient id="a" x1="0" x2="583.5" y1="50.25" y2="100.472" gradientUnits="userSpaceOnUse"><stop stop-color="#fff"/><stop offset=".488" stop-color="#fff" stop-opacity="0"/><stop offset="1" stop-color="#fff"/></linearGradient></defs></svg>