<svg xmlns="http://www.w3.org/2000/svg" width="483" height="53" fill="none" viewBox="0 0 483 53"><path fill="#fff" d="M15.325 41.4q-1.149 0-1.8-.65-.65-.65-.65-1.85V5.05h-9.6q-2.5 0-2.5-2.25 0-1.1.65-1.65.65-.6 1.85-.6h24q1.2 0 1.85.6.65.55.65 1.65t-.65 1.7q-.65.55-1.85.55h-9.55V38.9q0 1.2-.65 1.85-.6.65-1.75.65m32.57.05q-4.15 0-7.25-1.75-3.05-1.8-4.7-5t-1.65-7.4q0-4.3 1.55-7.5 1.6-3.25 4.5-4.95 2.9-1.75 6.8-1.75 3.7 0 6.7 1.8 3 1.85 4.6 5.1t1.45 7.3q-.05 1.05-.7 1.65-.6.55-1.8.55h-18q.55 3.7 2.8 5.7 2.3 2 5.75 2 3.8 0 6.35-1.95a2.78 2.78 0 0 1 1.8-.65q.85 0 1.45.6t.6 1.45q0 1.05-.9 1.9-1.4 1.25-4 2.1-2.55.8-5.35.8m6.9-16.25q-.1-3.4-2.25-5.55-2.15-2.2-5.35-2.2-3.3 0-5.3 2-2 1.95-2.55 5.75zm23.91 16.25q-3.75 0-6.85-1.9a13.6 13.6 0 0 1-4.95-5.15q-1.75-3.25-1.75-7.15t1.8-7.1q1.8-3.3 4.9-5.15 3.15-1.9 6.85-1.9 5.35 0 8.75 3.9v-1.2q0-1.2.6-1.85.65-.65 1.85-.65 1.15 0 1.75.65.65.65.65 1.85v23.1q0 1.2-.65 1.85-.6.65-1.75.65t-1.8-.65-.65-1.85v-1.4q-3.35 3.95-8.75 3.95m0-4.3q2.349 0 4.35-1.2 2-1.25 3.15-3.5 1.2-2.25 1.2-5.15t-1.2-5.15q-1.15-2.25-3.15-3.45a8.05 8.05 0 0 0-4.35-1.25q-2.4 0-4.4 1.3-2.001 1.25-3.15 3.5-1.1 2.25-1.1 5.05t1.1 5.05q1.149 2.25 3.15 3.55a8.14 8.14 0 0 0 4.4 1.25m22.85 4.25q-1.15 0-1.8-.65t-.65-1.85V15.8q0-1.2.6-1.85.65-.65 1.85-.65 1.15 0 1.75.65.65.65.65 1.85v1.1q2.75-3.8 7-3.8 2.7 0 4.8 1.1t3.4 3.25q1.5-2.1 3.7-3.2 2.25-1.15 4.85-1.15 4.75 0 7.6 3.3 2.9 3.25 2.95 9v13.5q0 1.2-.65 1.85-.6.65-1.75.65t-1.8-.65-.65-1.85V25.55q0-4.1-1.5-6.1-1.45-2-4.2-2-2.85 0-4.75 2.25-1.85 2.25-1.85 6.1v13.1q0 1.2-.65 1.85-.6.65-1.75.65t-1.8-.65-.65-1.85V25.55q0-4.1-1.5-6.1-1.45-2-4.2-2-1.8 0-3.35 1.1-1.5 1.1-2.4 3.1-.85 2-.85 4.65v12.6q0 1.2-.65 1.85-.6.65-1.75.65m63.558.1q-4.35 0-6.3-2-1.9-2-1.9-6.5V5q0-2.45.95-3.45 1-1.05 3.5-1.05h10.35q3.9 0 6.9 1.45 3.05 1.4 4.7 3.95 1.65 2.5 1.65 5.75 0 2.65-1.35 4.8a8.36 8.36 0 0 1-3.55 3.25q3.6 1.35 5.45 4.1 1.9 2.7 1.9 6.35 0 3.3-1.7 5.9-1.7 2.55-4.85 4-3.1 1.45-7.2 1.45zm-1.45-8.7q0 1.4.7 2.05t2.15.65h7.65q2.95 0 4.7-1.6 1.8-1.65 1.8-4.3t-1.95-4.3q-1.9-1.65-5.05-1.65h-10zm8.55-15.05q2.8 0 4.4-1.5 1.6-1.55 1.6-4.15t-1.65-4.1q-1.6-1.5-4.35-1.5h-7.3q-.65 0-.95.3-.3.25-.3.95v10zm28.398 23.75q-4.35 0-6.3-2-1.9-2-1.9-6.5V5q0-2.45.95-3.45 1-1.05 3.5-1.05h10.35q3.9 0 6.9 1.45 3.05 1.4 4.7 3.95 1.65 2.5 1.65 5.75 0 2.65-1.35 4.8a8.36 8.36 0 0 1-3.55 3.25q3.6 1.35 5.45 4.1 1.9 2.7 1.9 6.35 0 3.3-1.7 5.9-1.7 2.55-4.85 4-3.1 1.45-7.2 1.45zm-1.45-8.7q0 1.4.7 2.05t2.15.65h7.65q2.95 0 4.7-1.6 1.8-1.65 1.8-4.3t-1.95-4.3q-1.9-1.65-5.05-1.65h-10zm8.55-15.05q2.8 0 4.4-1.5 1.6-1.55 1.6-4.15t-1.65-4.1q-1.6-1.5-4.35-1.5h-7.3q-.65 0-.95.3-.3.25-.3.95v10zm49.36 24.15q-5.3 0-9.25-2.6-4-2.6-6.2-7.35t-2.2-10.95q0-6.15 2.2-10.95t6.2-7.35q4-2.6 9.25-2.6 2.9 0 5.7.95 2.799.9 4.8 2.45 1.25.95 1.25 2.35 0 .85-.7 1.85-1.05 1.25-2.45 1.25-.9 0-1.75-.55-3.2-2.3-6.85-2.3-3.201 0-5.7 1.85-2.45 1.85-3.85 5.25-1.35 3.4-1.35 7.95 0 4.45 1.35 7.8 1.4 3.35 3.85 5.15 2.499 1.8 5.7 1.8 2.25 0 4.05-.55 1.8-.6 3.45-1.85.999-.75 2.1-.75 1.25 0 2.2 1.05.9.9.9 2.05 0 1.45-1.4 2.55-2.05 1.7-4.95 2.6t-6.35.9m31.665 0q-4.15 0-7.55-1.9-3.4-1.95-5.3-5.3t-1.9-7.5q0-4.25 1.9-7.55 1.9-3.35 5.25-5.2 3.35-1.9 7.6-1.9t7.6 1.9q3.351 1.85 5.25 5.2 1.9 3.3 1.9 7.55 0 4.15-1.9 7.55a13.96 13.96 0 0 1-5.35 5.25q-3.35 1.9-7.5 1.9m-8-14.65q0 2.45 1 4.45 1.05 1.95 2.85 3.1 1.85 1.1 4.15 1.1t4.1-1.1a7.73 7.73 0 0 0 2.85-3.1q1.05-2 1.05-4.45 0-2.55-1.05-4.55t-2.9-3.05q-1.8-1.1-4.05-1.1t-4.1 1.1q-1.8 1.05-2.85 3.05t-1.05 4.55m31.722 14.45q-1.45 0-2.35-.8t-.9-2.2V15.8q0-1.4.9-2.2t2.35-.8h.25q1.4 0 2.3.75.95.7.95 1.75v.05q3.249-2.8 7.05-2.8 2.55 0 4.5 1.2 2 1.2 3.25 3.45 1.7-2.25 4-3.45 2.35-1.2 4.9-1.2 4.5 0 7.05 3.55t2.55 9.9v12.7q0 1.4-.9 2.2t-2.35.8h-.25q-1.45 0-2.35-.8t-.9-2.2V26.85q0-8.3-4.35-8.3-2.2 0-3.8 1.85-1.6 1.8-1.75 4.85V38.7q0 1.4-.9 2.2t-2.35.8h-.25q-1.45 0-2.35-.8t-.9-2.2V26.85q0-8.3-4.35-8.3-2.15 0-3.8 1.95-1.6 1.9-1.75 5v13.2q0 1.4-.9 2.2t-2.35.8zm46.24 10q-1.45 0-2.35-.8t-.9-2.2V15.8q0-1.4.9-2.2t2.35-.8h.25q1.4 0 2.3.75.95.7.95 1.75v.45q3.35-3.2 8.15-3.2 3.9 0 7 1.9 3.1 1.85 4.85 5.2t1.75 7.55-1.75 7.55-4.85 5.25-7 1.9q-4.8 0-8.15-3.2v10q0 1.4-.9 2.2t-2.35.8zm3.5-24.45q0 2.45.95 4.45 1 1.95 2.7 3.1 1.7 1.1 3.85 1.1t3.85-1.1q1.7-1.15 2.65-3.1 1-2 1-4.45 0-2.5-1-4.45-.95-2-2.65-3.1-1.7-1.15-3.85-1.15t-3.85 1.15q-1.7 1.1-2.7 3.1-.95 1.95-.95 4.45m40.33 14.65q-3.9 0-7-1.9t-4.85-5.25-1.75-7.55 1.75-7.55 4.85-5.2q3.1-1.9 7-1.9 4.8 0 8.15 3.2v-.45q0-1.05.9-1.75.95-.75 2.35-.75h.25q1.45 0 2.35.8t.9 2.2v22.9q0 1.4-.9 2.2t-2.35.8h-.25q-1.4 0-2.35-.7-.9-.75-.9-1.8v-.5q-3.35 3.2-8.15 3.2m-6.85-14.65q0 2.45.95 4.45.999 1.95 2.7 3.1 1.7 1.1 3.85 1.1t3.85-1.1q1.7-1.15 2.65-3.1 1-2 1-4.45 0-2.5-1-4.45-.95-2-2.65-3.1-1.7-1.15-3.85-1.15t-3.85 1.15q-1.701 1.1-2.7 3.1-.95 1.95-.95 4.45M426.96 41.7q-1.45 0-2.35-.8t-.9-2.2V15.8q0-1.4.9-2.2t2.35-.8h.25q1.4 0 2.3.75.95.7.95 1.75v.15q3.25-2.9 7.55-2.9 5.55 0 8.7 3.7 3.2 3.65 3.2 10.25v12.2q0 1.4-.9 2.2t-2.35.8h-.25q-1.45 0-2.35-.8t-.9-2.2V27.35q0-4.35-1.6-6.55-1.55-2.25-4.55-2.25-2.75 0-4.55 1.85t-2 5.1v13.2q0 1.4-.9 2.2t-2.35.8zm33.672 10.65q-3.9 0-6.5-2.95-.8-.95-.8-1.95 0-1.15 1.05-2.2 1-1 2.2-1 1.1 0 1.95.85.7.7 1.25.95.6.3 1.25.3.8-.05 1.4-.7.65-.65 1.25-1.95t1.7-4.05l-10.8-22.35a2.9 2.9 0 0 1-.35-1.4q0-.95.6-1.7.65-.8 1.75-1.2.45-.2 1.2-.2.999 0 1.8.6.85.55 1.3 1.55l7.9 17 6.65-16.95a3.22 3.22 0 0 1 1.2-1.55q.9-.65 1.95-.65.45 0 1.3.25 1.05.4 1.6 1.15.6.75.6 1.7 0 .7-.3 1.4l-9.95 23.55q-1.8 4.3-3.25 6.65-1.5 2.45-3.4 3.65t-4.55 1.2"/></svg>