<svg xmlns="http://www.w3.org/2000/svg" width="669" height="344" fill="none" viewBox="0 0 669 344"><g filter="url(#a)"><g clip-path="url(#b)"><rect width="652.579" height="321.42" x="4.012" y=".348" fill="#6349eb" rx="42"/><g filter="url(#c)"><path fill="#fff" d="M-65.288 5019.12c0 32.24 26.133 58.37 58.37 58.37h673.431c32.237 0 58.37-26.13 58.37-58.37V58.716c0-32.237-26.133-58.37-58.37-58.37H-6.917c-32.238 0-58.37 26.133-58.37 58.37z"/></g><path fill="#facb67" d="M66.06 61.668v-4.261h28.408v4.26h-5.073V72.87h4.951v4.261H66.262V72.87h4.87V61.668zm10.389 0v11.2h7.63v-11.2zm20.819 25.527H63.422v-4.343h33.846zm34.574 4.423h-5.357V54.12h5.357zm-23.62-13.108c5.682 0 10.43-.365 15.665-1.218l.569 4.343c-6.169 1.096-11.526 1.298-18.344 1.298h-3.368v-15.38h12.134v-5.966h-12.175v-4.262h17.654v14.448h-12.135zm60.832 13.108h-5.357V54.16h5.357zm-11.161-8.969h-17.978V57.53h17.978zm-12.702-4.22h7.426v-16.68h-7.426zm61.48-3.085h-5.357V67.31h-5.925c-.974 4.18-4.87 6.98-9.659 6.98-5.56 0-9.821-3.774-9.821-9.131 0-5.235 4.261-9.05 9.821-9.05 4.748 0 8.644 2.8 9.618 6.858h5.966V54.16h5.357zm-20.941-5.519c2.76 0 4.748-1.745 4.748-4.667s-1.988-4.505-4.748-4.505-4.708 1.583-4.708 4.505 1.948 4.667 4.708 4.667m20.941 7.183v14.083h-24.877V77.008zm-5.235 9.903v-5.723h-14.367v5.722zm51.763-11.891h-5.357v-7.67h-6.453v-4.343h6.453V54.2h5.357zm-12.012-18.71c0 10.106-5.804 16.518-16.964 19.602l-2.111-4.139c8.32-2.273 12.541-6.128 13.393-11.201h-11.363v-4.261zm12.012 20.252V91.09h-24.593V76.56zm-5.276 10.349v-6.129h-14.041v6.129zm40.621-13.92v18.546h-5.357V54.16h5.357v14.366h5.438v4.465zm-15.503-10.512c0 6.737 2.638 13.555 8.644 16.477l-3.246 4.22c-3.896-1.988-6.494-5.478-8.076-10.064-1.624 4.749-4.424 8.685-8.644 10.755l-3.207-4.343c6.291-2.922 9.132-10.105 9.132-17.045v-5.438h5.397zm63.898 29.018h-5.398V54.119h5.398zm-11.12-33.482c0 11.404-3.855 20.82-17.126 27.191l-2.8-4.22c9.537-4.546 13.676-10.43 14.447-18.71h-12.459v-4.26zm51.7 11.08h-4.951v12.58h-5.357V54.16h5.357v10.552h4.951zm-33.278 6.736V56.838h5.276v5.317h7.345v-5.317h5.276v18.993zm5.276-9.537v5.317h7.345v-5.317zm24.39 20.332v4.262h-25.446V78.956h5.357v7.67zm17.471-16.233c7.792-.852 11.728-4.464 12.378-7.71h-11.039V58.42h11.12v-4.18h5.357v4.18h11.201v4.261h-11.08c.65 3.166 4.668 6.859 12.378 7.711l-1.907 4.22c-6.372-.77-10.795-3.286-13.23-6.695-2.435 3.409-6.778 5.925-13.311 6.696zm17.816 10.47v10.755h-5.357V80.864h-14.123V76.52h33.765v4.343zm43.705-26.703h5.357v27.678h-5.357v-12.46h-5.966v-4.301h5.966zm-6.007 23.295c-4.22-1.258-7.02-3.693-8.766-6.94-1.623 3.571-4.545 6.21-8.766 7.548l-2.597-4.18c6.006-1.948 8.604-6.412 8.604-10.957v-.163h-7.305v-4.18h7.305v-4.14h5.357v4.14h7.386v4.18h-7.386v.163c0 4.22 2.678 8.522 8.725 10.349zm12.216 13.433h-25.486V79.524h5.357v7.102h20.129zm31.999-19.277c-1.785 1.785-4.342 2.84-7.264 2.84-5.519 0-9.821-3.855-9.821-9.13 0-5.317 4.302-9.173 9.821-9.173 3.084 0 5.56 1.096 7.345 2.882h8.239v-4.87h5.357v21.915h-5.357V71.61zm-12.012-6.29c0 2.921 1.988 4.626 4.748 4.626s4.789-1.705 4.789-4.627-2.029-4.626-4.789-4.626-4.748 1.704-4.748 4.626m14.407-2.03c.121.65.203 1.258.203 2.03 0 .649-.082 1.338-.244 2.028h5.966V63.29zm-1.38 13.514c7.914 0 12.824 2.72 12.824 7.386 0 4.627-4.91 7.387-12.824 7.387-7.873 0-12.784-2.76-12.784-7.386 0-4.668 4.911-7.387 12.784-7.387m0 10.633c4.91 0 7.548-.974 7.548-3.246s-2.638-3.247-7.548-3.247-7.508.974-7.508 3.247 2.597 3.246 7.508 3.246m48.169-20.576h4.789v4.383h-4.789v4.708h-5.357V54.16h5.357v4.586h4.789v4.383h-4.789zm-8.888-1.582c0 5.235-4.383 9.05-10.105 9.05-5.763 0-10.146-3.815-10.146-9.05 0-5.317 4.383-9.091 10.146-9.091 5.722 0 10.105 3.774 10.105 9.09m-15.015 0c0 2.922 1.988 4.545 4.91 4.545 2.8 0 4.911-1.623 4.911-4.545s-2.111-4.586-4.911-4.586c-2.922 0-4.91 1.664-4.91 4.586m11.688 11.485c7.67 0 12.621 2.76 12.621 7.386 0 4.667-4.951 7.427-12.621 7.427-7.752 0-12.662-2.76-12.662-7.427 0-4.627 4.91-7.386 12.662-7.386m0 10.592c4.748 0 7.305-.933 7.305-3.206 0-2.151-2.557-3.206-7.305-3.206-4.911 0-7.346 1.055-7.346 3.206 0 2.273 2.435 3.206 7.346 3.206m52.186 4.14h-5.072V54.119h5.072zm-7.629-36.728v35.064h-4.992V71.244h-4.748v-4.342h4.748V54.769zm-12.581 9.293c0 6.25 1.826 12.581 7.224 15.706l-3.125 3.896c-3.409-1.948-5.398-5.195-6.656-9.131-1.298 4.26-3.449 7.913-6.858 10.024l-3.166-3.937c5.438-3.49 7.386-10.065 7.386-16.558v-1.826h-6.006v-4.342h16.639v4.342h-5.438zm29.298 15.381-.852-16.598-.203-5.641h6.006l-.203 5.64-.852 16.6zm-.974 9.172V82.85h5.925v5.763z"/><path fill="#948c9f" d="M88.191 114.951v-1.5h15.114v1.5h-3.159v7.09h3.113v1.523H88.237v-1.523h3.113v-7.09zm5.023 0v7.09h5.068v-7.09zm11.818 14.227H86.555v-1.546h18.477zm19.157 2.636h-1.864v-20.431h1.864zm-13.682-6.477c3.341 0 6.364-.182 9.909-.727l.182 1.522c-3.705.614-6.75.75-10.273.75h-1.681v-7.818h7.499v-4.25h-7.568v-1.522h9.455v7.295h-7.523zm34.543 6.5h-1.864v-20.432h1.864zm-6.136-5.182h-9.364v-13.25h9.364zm-7.545-1.477h5.727v-10.273h-5.727zm34.701-2.046h-1.886v-5.045h-4.159c-.364 2.477-2.386 4.114-5.182 4.114-3.022 0-5.249-1.955-5.249-4.841 0-2.818 2.227-4.773 5.249-4.773 2.705 0 4.796 1.591 5.159 3.955h4.182v-5.114h1.886zm-11.227-2.5c2 0 3.455-1.341 3.455-3.272 0-1.887-1.455-3.205-3.455-3.205-2.022 0-3.477 1.318-3.477 3.205 0 1.931 1.455 3.272 3.477 3.272m11.227 3.546v7.34h-13.249v-7.34zm-1.818 5.84v-4.363h-9.613v4.363zm28.307 1.75h-1.772v-20.385h1.772zm-4.113-19.863v18.841h-1.75v-10.091h-2.954v-1.523h2.954v-7.227zM177.81 125.36c2.841 0 4.682-.091 6.795-.523l.159 1.522c-2.295.478-4.227.523-7.431.523h-1.319v-13.045h7.591v1.523h-5.795v4h4.841v1.477h-4.841zm35.088-2.16c-3.091-.727-6.295-2.886-7.568-5.886-1.273 2.977-4.5 5.159-7.545 5.886l-.841-1.545c3.545-.727 7.409-3.75 7.409-7.25v-1.568h1.954v1.568c0 3.455 3.864 6.591 7.432 7.25zm1.75 5.864h-18.477v-1.545h18.477zm4.794-5.159v-10.727h13.795v1.5h-11.909v3.023h11.454v1.477h-11.454v3.227h12.113v1.5zm16.113 5.25h-18.5v-1.523h18.5zm17.398-13.341c-1.272 3.205-4.318 5.387-8.886 6.455l-.682-1.523c5.068-1.159 7.818-3.523 8.159-6.818h-7.091v-1.523h9.114c0 .659-.068 1.318-.205 1.955h4.614v-2.955h1.886v10.409h-1.886v-2.113h-5.318v-1.455h5.318v-2.432zm7.591 15.773h-13.772v-5.25h11.227v-2.091h-11.273v-1.5h13.136v5h-11.25v2.363h11.932zm19.066-10.091v10.295h-1.864v-20.386h1.864v8.523h3.25v1.568zm-6.864 1.159c.568-3.386.614-5.863.614-7.5h-8.477v-1.522h10.295v1.113c0 1.636 0 4.25-.568 8.091zm-2.818 3.023c2.273-.091 4.477-.205 6.568-.478l.114 1.364c-4.227.659-9 .773-12.636.773l-.205-1.546c1.296 0 2.773 0 4.318-.068v-6.272h1.841zm33.452 3.59h-18.522v-1.522h8.295v-3.841h-5.977v-6.295h12.091v-3.182h-12.136v-1.523h13.954v6.205h-12.068v3.295h12.545v1.5h-6.523v3.841h8.341zm8.649-8.59c3.704-.477 7.113-2.727 7.113-5.25h-6.477v-1.5h6.5v-2.5h1.864v2.5h6.499v1.5h-6.499c0 2.5 3.431 4.773 7.09 5.25l-.659 1.5c-3.136-.477-6.068-2.046-7.363-4.25-1.296 2.204-4.227 3.773-7.386 4.25zm9 4.568v6.568h-1.864v-6.568h-8.273v-1.523h18.432v1.523zm25.656-13.818h1.886v15.204h-1.886v-7.409h-4.113v-1.545h4.113zm-3.772 12.341c-2.364-.796-4.159-2.364-5.091-4.455-.887 2.273-2.682 3.977-5.068 4.818l-.932-1.454c3.023-1.023 5.045-3.568 5.045-6.409v-.636h-4.522v-1.5h4.522v-2.591h1.864v2.591h4.5v1.5h-4.5v.636c0 2.727 2.091 5.045 5.091 6.022zm6.227 7.568h-13.614v-6.068h1.887v4.545h11.727zm19.247-9.977v10.431h-1.863v-20.363h1.863v8.363h3.341v1.569zm-3.795-6.682v1.5H352.57v-1.5h5.136v-3.023h1.863v3.023zm-5.932 3.182c2.909 0 4.977 1.977 4.977 4.704 0 2.796-2.068 4.682-4.977 4.682-2.863 0-4.931-1.886-4.931-4.682 0-2.727 2.068-4.704 4.931-4.704m0 7.84c1.887 0 3.205-1.318 3.205-3.136s-1.318-3.159-3.205-3.159c-1.841 0-3.181 1.341-3.181 3.159s1.34 3.136 3.181 3.136m17.407-6.636v-6.909h1.864v5.387h11.999v1.522zm15.977 4.227h-18.477v-1.5h18.477zm-2 6.477v1.523h-14.113v-5.954h1.863v4.431zm10.421-7.863c3.523-.614 7.387-3.409 7.387-6.682v-.431h-6.75v-1.523h15.431v1.523h-6.75v.431c0 3.25 3.887 6.068 7.432 6.614l-.75 1.5c-3.091-.614-6.363-2.636-7.636-5.409-1.273 2.841-4.545 4.841-7.568 5.5zm17.614 7.273h-18.5v-1.546h8.318V122.7h1.864v4.932h8.318zm2.475-14.182v-1.5h5.068v-2.295h1.864v2.295h5.09v1.5zm15.75 3.159v5.091h-1.864v-11.841h1.864v5.182h3.022v1.568zm-4.864 1.364c0 2.182-1.977 3.568-4.886 3.568s-4.864-1.386-4.864-3.568c0-2.159 1.955-3.546 4.864-3.546s4.886 1.387 4.886 3.546m-7.977 0c0 1.363 1.182 2.159 3.091 2.159s3.113-.796 3.113-2.159c0-1.364-1.204-2.159-3.113-2.159s-3.091.795-3.091 2.159m12.841 4.636v7.363h-12.818v-7.363h1.841v2.159h9.136v-2.159zm-10.977 3.614v2.249h9.136v-2.249zm25.27-8.955c-4.477 0-7.159-1.227-7.159-3.522s2.682-3.546 7.159-3.546 7.159 1.25 7.159 3.546-2.682 3.522-7.159 3.522m0-5.659c-3.386 0-5.25.773-5.25 2.137s1.864 2.136 5.25 2.136 5.25-.773 5.25-2.136c0-1.364-1.864-2.137-5.25-2.137m9.227 8.546H441.37v-1.5h18.454zm-1.75 8.408v1.455h-14.409v-4.886h11.954v-1.818h-12.022v-1.41h13.863v4.591h-11.977v2.068zm11.762-11.772v-6.159h13.591v1.5H471.7v3.159h11.931v1.5zm7.705 5.159h5.908v4.568h-11.976v2.045h12.59v1.432h-14.409V126.7h11.955v-1.795h-12.023v-1.409h6.091v-2.023h-8.318v-1.5h18.454v1.5h-8.272zm27.52 8.318h-1.864v-11.045h-3.886v-1.523h3.886v-7.863h1.864zm-14.182-6.454c3.477 0 5.955-.114 8.886-.66l.182 1.546c-3.068.545-5.659.659-9.34.659h-1.569v-7.977h7.25v-4.114h-7.295v-1.522h9.113v7.136h-7.227zm41.875 3.818h-18.476v-1.523h8.272v-4.386h-6.091V112.86h1.841v3.636h10.409v-3.636h1.818v10.409h-6.091v4.386h8.318zm-4.045-7.409v-3.75H518.3v3.75zm23.793 10.022h-1.773v-20.386h1.773zm-4.159-19.931v18.931h-1.75v-10.522h-3.363v-1.546h3.363v-6.863zm-7.113 5.295c0 3.273 1.545 6.727 4.204 8.364l-1.068 1.454c-1.932-1.182-3.295-3.341-4.023-5.818-.727 2.75-2.204 5-4.227 6.273l-1.159-1.409c2.795-1.637 4.477-5.273 4.477-8.796v-3.886h1.796zm33.361 12.023h-18.523v-1.546h4.546v-5.5c-1.728-.886-2.728-2.363-2.728-4.204 0-3.159 3.091-5.227 7.409-5.227 4.341 0 7.409 2.068 7.409 5.227 0 1.841-.954 3.295-2.681 4.182v5.522h4.568zm-9.296-15.023c-3.272 0-5.613 1.5-5.613 3.773s2.341 3.773 5.613 3.773 5.637-1.5 5.637-3.773-2.364-3.773-5.637-3.773m2.864 13.477v-4.795c-.977.204-1.932.318-2.864.318-1 0-1.931-.114-2.818-.318v4.795z"/><rect width="584.399" height="717.512" x="38.185" y="190.277" fill="#fff" stroke="#facb67" stroke-width="3.247" rx="30.843"/><path fill="#262d37" d="M104.377 245.308c-1.786 1.786-4.342 2.841-7.264 2.841-5.52 0-9.822-3.856-9.822-9.132 0-5.316 4.302-9.171 9.822-9.171 3.084 0 5.559 1.095 7.345 2.881h8.239v-4.87h5.357v21.915h-5.357v-4.464zm-12.013-6.291c0 2.922 1.989 4.627 4.748 4.627s4.789-1.705 4.789-4.627-2.029-4.626-4.788-4.626-4.749 1.705-4.749 4.626m14.407-2.029c.122.65.203 1.258.203 2.029 0 .65-.081 1.34-.243 2.03h5.966v-4.059zm-1.379 13.515c7.913 0 12.824 2.719 12.824 7.386 0 4.626-4.911 7.386-12.824 7.386-7.874 0-12.784-2.76-12.784-7.386 0-4.667 4.91-7.386 12.784-7.386m0 10.632c4.91 0 7.548-.974 7.548-3.246s-2.638-3.247-7.548-3.247-7.508.974-7.508 3.247 2.597 3.246 7.508 3.246m50.807 4.059h-5.073v-18.79h-3.125v17.166h-4.992v-35.104h4.992v13.636h3.125v-14.285h5.073zm-23.62-34.699c4.911 0 8.076 5.113 8.076 13.555 0 8.482-3.165 13.595-8.076 13.595-4.992 0-8.116-5.113-8.116-13.595 0-8.442 3.124-13.555 8.116-13.555m0 22.118c1.989 0 3.206-2.679 3.206-8.563 0-5.722-1.217-8.523-3.206-8.523-2.07 0-3.247 2.801-3.247 8.523 0 5.884 1.177 8.563 3.247 8.563m59.898-3.856h-5.357v-20.94h5.357zm-7.751-3.368c-5.763 1.218-11.201 1.623-17.898 1.623h-3.246v-17.004h5.316v12.581c5.56-.122 10.268-.447 15.178-1.542zm7.751 4.992v14.407H167.64v-14.407zm-5.235 10.227v-6.047h-14.326v6.047zm43.989 4.667h-5.114v-37.418h5.114zm-7.346-36.606v34.942h-4.951v-17.41h-3.571c-.771 4.586-2.111 8.928-4.708 12.986l-4.099-2.272c4.14-6.615 4.911-12.662 5.114-20.495h-2.679v-4.342h7.224c0 3.409-.081 6.574-.365 9.821h3.084v-13.23zm-15.99 3.409c0 9.537-.892 17.816-5.56 25.324l-4.098-2.273c3.693-5.844 4.87-11.485 5.072-18.709h-3.855v-4.342zm39.142 12.012c7.792-.852 11.729-4.464 12.378-7.71h-11.038v-4.262h11.119v-4.18h5.357v4.18h11.201v4.262h-11.079c.65 3.165 4.667 6.858 12.378 7.71l-1.907 4.221c-6.372-.771-10.795-3.287-13.23-6.696-2.435 3.409-6.778 5.925-13.312 6.696zm17.816 10.471v10.754h-5.357v-10.754h-14.123v-4.343h33.766v4.343zm43.705-26.704h5.357v27.678h-5.357v-12.459h-5.965v-4.302h5.965zm-6.006 23.295c-4.221-1.258-7.021-3.693-8.766-6.94-1.623 3.571-4.545 6.209-8.766 7.549l-2.597-4.18c6.006-1.948 8.603-6.413 8.603-10.958v-.162h-7.305v-4.18h7.305v-4.14h5.357v4.14h7.387v4.18h-7.387v.162c0 4.221 2.679 8.523 8.726 10.349zm12.216 13.433h-25.487v-11.363h5.357v7.102h20.13zm34.574-17.694v18.343h-5.357v-37.377h5.357v14.61h5.356v4.424zm-7.792-13.515v4.262h-21.753v-4.262h8.279v-4.87h5.357v4.87zm-10.755 6.372c5.398 0 9.415 3.693 9.415 8.888 0 5.316-4.017 8.969-9.415 8.969-5.438 0-9.497-3.653-9.497-8.969 0-5.195 4.059-8.888 9.497-8.888m0 13.474c2.597 0 4.342-1.664 4.342-4.586 0-2.801-1.745-4.546-4.342-4.546s-4.383 1.664-4.383 4.586 1.786 4.546 4.383 4.546m30.718-10.998v-13.028h5.357v8.766h20.576v4.262zm29.667 8.116h-33.847v-4.302h33.847zm-3.531 9.821v4.302h-26.501v-11.16h5.398v6.858zm33.785-14.853c-1.786 1.786-4.342 2.841-7.264 2.841-5.52 0-9.822-3.856-9.822-9.132 0-5.316 4.302-9.171 9.822-9.171 3.084 0 5.559 1.095 7.345 2.881h8.238v-4.87h5.357v21.915h-5.357v-4.464zm-12.013-6.291c0 2.922 1.989 4.627 4.749 4.627s4.788-1.705 4.788-4.627-2.029-4.626-4.788-4.626-4.749 1.705-4.749 4.626m14.407-2.029c.122.65.203 1.258.203 2.029 0 .65-.081 1.34-.243 2.03h5.965v-4.059zm-1.379 13.515c7.913 0 12.824 2.719 12.824 7.386 0 4.626-4.911 7.386-12.824 7.386-7.874 0-12.784-2.76-12.784-7.386 0-4.667 4.91-7.386 12.784-7.386m0 10.632c4.91 0 7.548-.974 7.548-3.246s-2.638-3.247-7.548-3.247-7.508.974-7.508 3.247 2.597 3.246 7.508 3.246m48.169-20.575h4.789v4.383h-4.789v4.707h-5.357v-21.793h5.357v4.586h4.789v4.383h-4.789zm-8.888-1.583c0 5.235-4.383 9.05-10.105 9.05-5.763 0-10.146-3.815-10.146-9.05 0-5.316 4.383-9.091 10.146-9.091 5.722 0 10.105 3.775 10.105 9.091m-15.016 0c0 2.922 1.989 4.545 4.911 4.545 2.8 0 4.91-1.623 4.91-4.545s-2.11-4.586-4.91-4.586c-2.922 0-4.911 1.664-4.911 4.586m11.688 11.485c7.67 0 12.622 2.76 12.622 7.386 0 4.667-4.952 7.427-12.622 7.427-7.751 0-12.662-2.76-12.662-7.427 0-4.626 4.911-7.386 12.662-7.386m0 10.592c4.748 0 7.305-.933 7.305-3.206 0-2.151-2.557-3.206-7.305-3.206-4.91 0-7.345 1.055-7.345 3.206 0 2.273 2.435 3.206 7.345 3.206m30.66-15.34c7.914-1.177 12.135-5.885 12.662-10.755h-11.201v-4.261h28.165v4.261h-11.201c.446 4.87 4.911 9.375 12.865 10.552l-2.029 4.22c-6.859-1.176-11.242-4.301-13.677-8.684-2.313 4.586-6.98 7.71-13.514 8.887zm32.507 15.178h-33.846v-4.343h14.245v-8.238h5.357v8.238h14.244zm3.447-25.568v-4.18h8.319v-3.571h5.398v3.571h8.36l-.04 4.18zm29.463 5.885v8.522h-5.357v-21.874h5.357v8.969h4.951v4.383zm-9.253 1.745c0 3.896-3.774 6.615-9.172 6.615-5.397 0-9.171-2.719-9.171-6.615 0-4.018 3.774-6.615 9.171-6.615 5.398 0 9.172 2.597 9.172 6.615m-13.23 0c0 1.786 1.623 2.719 4.058 2.719s4.059-.933 4.059-2.719-1.624-2.719-4.059-2.719-4.058.933-4.058 2.719m22.483 8.198v13.676H530.17v-13.676h5.316v2.841h13.677v-2.841zm-18.993 6.899v2.597h13.677v-2.597zm30.719-4.911-.853-16.598-.203-5.641h6.007l-.203 5.641-.852 16.598zm-.974 9.172v-5.763h5.925v5.763z"/><path stroke="#facb67" stroke-linecap="round" stroke-width="4.87" d="M252.382 273.065h314.927"/></g></g><defs><filter id="a" width="668.304" height="343.042" x=".081" y=".348" color-interpolation-filters="sRGB" filterUnits="userSpaceOnUse"><feFlood flood-opacity="0" result="BackgroundImageFix"/><feColorMatrix in="SourceAlpha" result="hardAlpha" values="0 0 0 0 0 0 0 0 0 0 0 0 0 0 0 0 0 0 127 0"/><feOffset dx="3.931" dy="13.759"/><feGaussianBlur stdDeviation="3.931"/><feComposite in2="hardAlpha" operator="out"/><feColorMatrix values="0 0 0 0 0 0 0 0 0 0 0 0 0 0 0 0 0 0 0.1 0"/><feBlend in2="BackgroundImageFix" result="effect1_dropShadow_3891_678"/><feBlend in="SourceGraphic" in2="effect1_dropShadow_3891_678" result="shape"/></filter><filter id="c" width="817.411" height="5182.21" x="-65.288" y=".346" color-interpolation-filters="sRGB" filterUnits="userSpaceOnUse"><feFlood flood-opacity="0" result="BackgroundImageFix"/><feColorMatrix in="SourceAlpha" result="hardAlpha" values="0 0 0 0 0 0 0 0 0 0 0 0 0 0 0 0 0 0 127 0"/><feOffset dx="19.457" dy="97.284"/><feGaussianBlur stdDeviation="3.891"/><feComposite in2="hardAlpha" operator="out"/><feColorMatrix values="0 0 0 0 0 0 0 0 0 0 0 0 0 0 0 0 0 0 0.25 0"/><feBlend in2="BackgroundImageFix" result="effect1_dropShadow_3891_678"/><feBlend in="SourceGraphic" in2="effect1_dropShadow_3891_678" result="shape"/></filter><clipPath id="b"><rect width="652.579" height="321.42" x="4.012" y=".348" fill="#fff" rx="42"/></clipPath></defs></svg>