<svg width="669" height="344" viewBox="0 0 669 344" fill="none" xmlns="http://www.w3.org/2000/svg">
<g filter="url(#filter0_d_3891_441)">
<g clip-path="url(#clip0_3891_441)">
<rect x="4" y="0.34082" width="653.1" height="321.676" rx="42" fill="#6349EB"/>
<g filter="url(#filter1_d_3891_441)">
<path d="M-65.2999 5023.12C-65.2999 5055.38 -39.1458 5081.54 -6.88305 5081.54H667.085C699.348 5081.54 725.502 5055.38 725.502 5023.12V58.7568C725.502 26.4941 699.348 0.340332 667.085 0.340332H-6.88311C-39.1459 0.340332 -65.2999 26.4941 -65.2999 58.7568V5023.12Z" fill="white"/>
</g>
<path d="M84.7561 61.6809V57.4162H113.187V61.6809H108.11V72.8908H113.065V77.1554H84.9592V72.8908H89.8331V61.6809H84.7561ZM95.1537 61.6809V72.8908H102.789V61.6809H95.1537ZM115.99 87.2281H82.1161V82.8822H115.99V87.2281ZM150.591 91.6552H145.23V54.1263H150.591V91.6552ZM126.953 78.5364C132.639 78.5364 137.391 78.1708 142.63 77.3179L143.199 81.6638C137.025 82.7604 131.664 82.9635 124.841 82.9635H121.469V67.5701H133.614V61.5996H121.429V57.335H139.097V71.7942H126.953V78.5364ZM187.832 91.6552H182.471V54.167H187.832V91.6552ZM176.663 82.6792H158.67V57.5381H176.663V82.6792ZM163.95 78.4551H171.383V61.7621H163.95V78.4551ZM225.48 75.3683H220.119V67.3264H214.189C213.214 71.5099 209.315 74.3123 204.522 74.3123C198.958 74.3123 194.693 70.5351 194.693 65.1738C194.693 59.9344 198.958 56.1165 204.522 56.1165C209.274 56.1165 213.173 58.919 214.148 62.9806H220.119V54.167H225.48V75.3683ZM204.522 69.8446C207.284 69.8446 209.274 68.0981 209.274 65.1738C209.274 62.2495 207.284 60.6655 204.522 60.6655C201.76 60.6655 199.811 62.2495 199.811 65.1738C199.811 68.0981 201.76 69.8446 204.522 69.8446ZM225.48 77.0336V91.1272H200.582V77.0336H225.48ZM220.24 86.9438V81.217H205.863V86.9438H220.24ZM272.045 75.0434H266.684V67.3671H260.226V63.0212H266.684V54.2076H272.045V75.0434ZM260.023 56.3196C260.023 66.4329 254.215 72.8502 243.046 75.937L240.934 71.7942C249.26 69.5197 253.484 65.6612 254.337 60.5842H242.964V56.3196H260.023ZM272.045 76.5868V91.1272H247.432V76.5868H272.045ZM266.765 86.9438V80.8108H252.712V86.9438H266.765ZM307.418 73.0126V91.574H302.057V54.167H307.418V68.5449H312.861V73.0126H307.418ZM291.903 62.4932C291.903 69.2354 294.543 76.0588 300.554 78.9831L297.305 83.2072C293.406 81.217 290.806 77.7241 289.222 73.1345C287.598 77.8865 284.795 81.8262 280.571 83.8976L277.363 79.5518C283.658 76.6274 286.501 69.4385 286.501 62.4932V57.0507H291.903V62.4932ZM355.852 91.5334H350.45V54.1263H355.852V91.5334ZM344.723 58.0255C344.723 69.4385 340.865 78.8613 327.583 85.238L324.781 81.0139C334.325 76.465 338.468 70.5757 339.24 62.2901H326.771V58.0255H344.723ZM396.464 69.1135H391.509V81.7044H386.148V54.167H391.509V64.727H396.464V69.1135ZM363.159 75.8557V56.8476H368.439V62.1683H375.791V56.8476H381.071V75.8557H363.159ZM368.439 66.3111V71.6317H375.791V66.3111H368.439ZM392.85 86.6595V90.9242H367.383V78.9831H372.745V86.6595H392.85ZM410.334 70.4132C418.132 69.5603 422.072 65.9455 422.722 62.6963H411.674V58.4316H422.803V54.2482H428.164V58.4316H439.374V62.6963H428.286C428.936 65.8643 432.957 69.5603 440.674 70.4132L438.765 74.6373C432.388 73.8656 427.961 71.3474 425.524 67.9357C423.087 71.3474 418.741 73.8656 412.202 74.6373L410.334 70.4132ZM428.164 80.8921V91.6552H422.803V80.8921H408.669V76.5462H442.461V80.8921H428.164ZM471.904 54.167H477.265V81.8669H471.904V69.3978H465.934V65.0926H471.904V54.167ZM465.893 77.4804C461.669 76.2213 458.866 73.7843 457.12 70.5351C455.495 74.1093 452.571 76.7493 448.347 78.0896L445.748 73.9062C451.759 71.9566 454.358 67.4889 454.358 62.9399V62.7775H447.047V58.5941H454.358V54.4513H459.719V58.5941H467.111V62.7775H459.719V62.9399C459.719 67.164 462.4 71.4692 468.452 73.2969L465.893 77.4804ZM478.118 90.9242H452.612V79.5518H457.973V86.6595H478.118V90.9242ZM509.453 70.3726C501.451 70.3726 496.009 67.3671 496.009 62.615C496.009 57.9036 501.451 54.8574 509.453 54.8574C517.576 54.8574 522.896 57.9036 522.896 62.615C522.896 67.3671 517.576 70.3726 509.453 70.3726ZM509.453 59.1221C504.701 59.1221 501.817 60.2999 501.817 62.615C501.817 64.9301 504.701 66.108 509.453 66.108C514.205 66.108 517.129 64.9301 517.129 62.615C517.129 60.2999 514.205 59.1221 509.453 59.1221ZM526.43 76.5868H512.539V83.0041H507.056V76.5868H492.557V72.3222H526.43V76.5868ZM522.734 86.6595V90.9242H496.496V79.7142H501.939V86.6595H522.734ZM563.793 76.0182H529.96V71.7536H544.176V68.6668H534.063V55.751H559.732V60.0156H539.383V64.4021H559.935V68.6668H549.537V71.7536H563.793V76.0182ZM546.735 77.8459C554.817 77.8459 559.732 80.3235 559.732 84.7506C559.732 89.1371 554.817 91.6146 546.735 91.6146C538.652 91.6146 533.778 89.1371 533.778 84.7506C533.778 80.3235 538.652 77.8459 546.735 77.8459ZM546.735 87.5531C551.812 87.5531 554.289 86.7001 554.289 84.7506C554.289 82.8416 551.771 81.9075 546.735 81.9075C541.698 81.9075 539.18 82.8416 539.18 84.7506C539.18 86.7001 541.658 87.5531 546.735 87.5531ZM571.101 79.4705L570.248 62.8587L570.045 57.2131H576.056L575.853 62.8587L575 79.4705H571.101ZM570.126 88.6497V82.8822H576.056V88.6497H570.126Z" fill="#67B3FF"/>
<path d="M88.2115 115.02V113.519H103.337V115.02H100.175V122.116H103.291V123.64H88.2569V122.116H91.373V115.02H88.2115ZM93.2381 115.02V122.116H98.3101V115.02H93.2381ZM105.065 129.258H86.5738V127.711H105.065V129.258ZM124.237 131.896H122.372V111.449H124.237V131.896ZM110.545 125.414C113.889 125.414 116.914 125.232 120.462 124.686L120.644 126.21C116.936 126.824 113.889 126.961 110.363 126.961H108.68V119.136H116.186V114.883H108.612V113.359H118.074V120.66H110.545V125.414ZM145.115 131.919H143.25V111.471H145.115V131.919ZM138.974 126.733H129.603V113.473H138.974V126.733ZM131.423 125.255H137.155V114.974H131.423V125.255ZM166.152 123.208H164.265V118.158H160.102C159.738 120.638 157.714 122.275 154.917 122.275C151.892 122.275 149.663 120.319 149.663 117.431C149.663 114.61 151.892 112.654 154.917 112.654C157.623 112.654 159.716 114.246 160.08 116.612H164.265V111.494H166.152V123.208ZM154.917 120.706C156.918 120.706 158.374 119.364 158.374 117.431C158.374 115.543 156.918 114.224 154.917 114.224C152.892 114.224 151.437 115.543 151.437 117.431C151.437 119.364 152.892 120.706 154.917 120.706ZM166.152 124.254V131.601H152.892V124.254H166.152ZM164.333 130.099V125.732H154.712V130.099H164.333ZM192.663 131.851H190.889V111.449H192.663V131.851ZM188.546 111.972V130.827H186.795V120.729H183.838V119.205H186.795V111.972H188.546ZM177.901 125.437C180.744 125.437 182.587 125.346 184.702 124.914L184.861 126.438C182.564 126.915 180.631 126.961 177.424 126.961H176.105V113.905H183.701V115.429H177.901V119.432H182.746V120.911H177.901V125.437ZM213.018 123.276C209.924 122.548 206.717 120.387 205.444 117.385C204.17 120.365 200.94 122.548 197.892 123.276L197.051 121.729C200.599 121.002 204.466 117.976 204.466 114.474V112.904H206.422V114.474C206.422 117.931 210.288 121.07 213.859 121.729L213.018 123.276ZM214.769 129.144H196.277V127.598H214.769V129.144ZM219.566 123.981V113.246H233.372V114.747H221.454V117.772H232.917V119.25H221.454V122.48H233.577V123.981H219.566ZM235.692 129.235H217.178V127.711H235.692V129.235ZM253.105 115.884C251.831 119.091 248.783 121.274 244.211 122.343L243.529 120.82C248.601 119.66 251.353 117.294 251.695 113.996H244.598V112.472H253.719C253.719 113.132 253.651 113.791 253.514 114.428H258.131V111.471H260.019V121.889H258.131V119.773H252.809V118.318H258.131V115.884H253.105ZM260.701 131.669H246.918V126.415H258.154V124.322H246.873V122.821H260.019V127.825H248.76V130.19H260.701V131.669ZM279.783 121.57V131.874H277.917V111.471H279.783V120.001H283.035V121.57H279.783ZM272.914 122.73C273.482 119.341 273.528 116.862 273.528 115.224H265.044V113.7H275.347V114.815C275.347 116.453 275.347 119.068 274.779 122.912L272.914 122.73ZM270.093 125.755C272.368 125.664 274.574 125.55 276.667 125.278L276.78 126.642C272.55 127.302 267.773 127.416 264.134 127.416L263.929 125.869C265.226 125.869 266.704 125.869 268.251 125.801V119.523H270.093V125.755ZM303.572 129.349H285.035V127.825H293.337V123.981H287.355V117.681H299.455V114.497H287.309V112.973H301.275V119.182H289.197V122.48H301.752V123.981H295.224V127.825H303.572V129.349ZM312.227 120.751C315.935 120.274 319.347 118.022 319.347 115.497H312.864V113.996H319.369V111.494H321.234V113.996H327.739V115.497H321.234C321.234 117.999 324.669 120.274 328.331 120.751L327.671 122.253C324.532 121.775 321.598 120.205 320.302 117.999C319.005 120.205 316.071 121.775 312.91 122.253L312.227 120.751ZM321.234 125.323V131.896H319.369V125.323H311.09V123.799H329.536V125.323H321.234ZM346.911 111.494H348.799V126.71H346.911V119.296H342.795V117.749H346.911V111.494ZM343.136 123.845C340.77 123.049 338.974 121.479 338.041 119.387C337.154 121.661 335.357 123.367 332.969 124.209L332.036 122.753C335.061 121.729 337.086 119.182 337.086 116.339V115.702H332.559V114.201H337.086V111.608H338.951V114.201H343.454V115.702H338.951V116.339C338.951 119.068 341.043 121.388 344.046 122.366L343.136 123.845ZM349.368 131.419H335.744V125.346H337.632V129.895H349.368V131.419ZM368.631 121.434V131.874H366.766V111.494H368.631V119.864H371.974V121.434H368.631ZM364.833 114.747V116.248H352.801V114.747H357.941V111.722H359.806V114.747H364.833ZM358.896 117.931C361.807 117.931 363.877 119.91 363.877 122.639C363.877 125.437 361.807 127.325 358.896 127.325C356.03 127.325 353.961 125.437 353.961 122.639C353.961 119.91 356.03 117.931 358.896 117.931ZM358.896 125.778C360.784 125.778 362.103 124.459 362.103 122.639C362.103 120.82 360.784 119.478 358.896 119.478C357.054 119.478 355.712 120.82 355.712 122.639C355.712 124.459 357.054 125.778 358.896 125.778ZM376.317 119.136V112.222H378.182V117.613H390.191V119.136H376.317ZM392.306 123.367H373.815V121.866H392.306V123.367ZM390.305 129.849V131.373H376.18V125.414H378.046V129.849H390.305ZM400.735 121.98C404.26 121.365 408.127 118.568 408.127 115.293V114.86H401.372V113.337H416.815V114.86H410.06V115.293C410.06 118.545 413.949 121.365 417.498 121.911L416.747 123.412C413.654 122.798 410.378 120.774 409.105 117.999C407.831 120.842 404.556 122.844 401.531 123.503L400.735 121.98ZM418.362 129.258H399.848V127.711H408.172V122.776H410.037V127.711H418.362V129.258ZM420.839 115.065V113.564H425.911V111.267H427.776V113.564H432.871V115.065H420.839ZM436.601 118.227V123.322H434.736V111.471H436.601V116.657H439.626V118.227H436.601ZM431.734 119.591C431.734 121.775 429.755 123.162 426.844 123.162C423.933 123.162 421.976 121.775 421.976 119.591C421.976 117.431 423.933 116.043 426.844 116.043C429.755 116.043 431.734 117.431 431.734 119.591ZM423.751 119.591C423.751 120.956 424.933 121.752 426.844 121.752C428.754 121.752 429.96 120.956 429.96 119.591C429.96 118.227 428.754 117.431 426.844 117.431C424.933 117.431 423.751 118.227 423.751 119.591ZM436.601 124.231V131.601H423.773V124.231H425.616V126.392H434.759V124.231H436.601ZM425.616 127.848V130.099H434.759V127.848H425.616ZM450.906 118.886C446.425 118.886 443.741 117.658 443.741 115.361C443.741 113.064 446.425 111.813 450.906 111.813C455.387 111.813 458.071 113.064 458.071 115.361C458.071 117.658 455.387 118.886 450.906 118.886ZM450.906 113.223C447.517 113.223 445.652 113.996 445.652 115.361C445.652 116.726 447.517 117.499 450.906 117.499C454.295 117.499 456.16 116.726 456.16 115.361C456.16 113.996 454.295 113.223 450.906 113.223ZM460.14 121.775H441.672V120.274H460.14V121.775ZM458.389 130.19V131.646H443.969V126.756H455.933V124.936H443.901V123.526H457.775V128.121H445.788V130.19H458.389ZM470.161 118.409V112.245H483.762V113.746H472.026V116.907H483.967V118.409H470.161ZM477.871 123.572H483.785V128.143H471.798V130.19H484.399V131.623H469.979V126.779H481.943V124.982H469.911V123.572H476.006V121.547H467.682V120.046H486.15V121.547H477.871V123.572ZM505.413 131.896H503.548V120.842H499.659V119.318H503.548V111.449H505.413V131.896ZM491.221 125.437C494.701 125.437 497.18 125.323 500.114 124.777L500.296 126.324C497.225 126.87 494.632 126.983 490.948 126.983H489.378V119H496.634V114.883H489.333V113.359H498.454V120.501H491.221V125.437ZM533.129 129.258H514.638V127.734H522.917V123.344H516.821V112.927H518.663V116.566H529.081V112.927H530.9V123.344H524.805V127.734H533.129V129.258ZM529.081 121.843V118.09H518.663V121.843H529.081ZM552.893 131.874H551.118V111.471H552.893V131.874ZM548.73 111.926V130.873H546.979V120.342H543.613V118.795H546.979V111.926H548.73ZM541.611 117.226C541.611 120.501 543.158 123.958 545.819 125.596L544.75 127.052C542.817 125.869 541.452 123.708 540.724 121.229C539.996 123.981 538.518 126.233 536.494 127.507L535.334 126.096C538.131 124.459 539.814 120.82 539.814 117.294V113.405H541.611V117.226ZM574.999 129.258H556.462V127.711H561.011V122.207C559.282 121.32 558.281 119.842 558.281 117.999C558.281 114.838 561.375 112.768 565.696 112.768C570.04 112.768 573.111 114.838 573.111 117.999C573.111 119.842 572.156 121.297 570.427 122.184V127.711H574.999V129.258ZM565.696 114.224C562.421 114.224 560.078 115.725 560.078 117.999C560.078 120.274 562.421 121.775 565.696 121.775C568.971 121.775 571.337 120.274 571.337 117.999C571.337 115.725 568.971 114.224 565.696 114.224ZM568.562 127.711V122.912C567.584 123.117 566.629 123.231 565.696 123.231C564.695 123.231 563.763 123.117 562.876 122.912V127.711H568.562Z" fill="#948C9F"/>
<rect x="38.1747" y="190.421" width="584.866" height="718.085" rx="30.8679" fill="white" stroke="#67B3FF" stroke-width="3.24925"/>
<path d="M104.184 245.466C102.397 247.253 99.8385 248.309 96.9142 248.309C91.3905 248.309 87.0852 244.45 87.0852 239.17C87.0852 233.85 91.3905 229.991 96.9142 229.991C100.001 229.991 102.479 231.088 104.266 232.875H112.511V228.001H117.872V249.933H112.511V245.466H104.184ZM92.1622 239.17C92.1622 242.095 94.1523 243.8 96.9142 243.8C99.6761 243.8 101.707 242.095 101.707 239.17C101.707 236.246 99.6761 234.54 96.9142 234.54C94.1523 234.54 92.1622 236.246 92.1622 239.17ZM106.581 237.139C106.703 237.789 106.784 238.399 106.784 239.17C106.784 239.82 106.703 240.511 106.54 241.201H112.511V237.139H106.581ZM105.2 250.664C113.12 250.664 118.034 253.386 118.034 258.057C118.034 262.687 113.12 265.449 105.2 265.449C97.3203 265.449 92.4058 262.687 92.4058 258.057C92.4058 253.386 97.3203 250.664 105.2 250.664ZM105.2 261.306C110.114 261.306 112.754 260.331 112.754 258.057C112.754 255.782 110.114 254.807 105.2 254.807C100.285 254.807 97.6859 255.782 97.6859 258.057C97.6859 260.331 100.285 261.306 105.2 261.306ZM156.047 265.367H150.97V246.562H147.843V263.743H142.847V228.61H147.843V242.257H150.97V227.96H156.047V265.367ZM132.409 230.641C137.324 230.641 140.492 235.759 140.492 244.207C140.492 252.695 137.324 257.813 132.409 257.813C127.413 257.813 124.286 252.695 124.286 244.207C124.286 235.759 127.413 230.641 132.409 230.641ZM132.409 252.777C134.399 252.777 135.618 250.096 135.618 244.207C135.618 238.48 134.399 235.677 132.409 235.677C130.338 235.677 129.16 238.48 129.16 244.207C129.16 250.096 130.338 252.777 132.409 252.777ZM192.355 248.918H186.993V227.96H192.355V248.918ZM184.597 245.547C178.83 246.765 173.387 247.172 166.686 247.172H163.436V230.154H168.757V242.744C174.321 242.623 179.033 242.298 183.947 241.201L184.597 245.547ZM192.355 250.543V264.961H167.498V250.543H192.355ZM187.115 260.778V254.726H172.778V260.778H187.115ZM231.139 265.449H226.022V228.001H231.139V265.449ZM223.788 228.813V263.783H218.833V246.359H215.259C214.487 250.949 213.147 255.295 210.547 259.356L206.445 257.082C210.588 250.461 211.36 244.41 211.563 236.571H208.882V232.225H216.112C216.112 235.637 216.03 238.805 215.746 242.054H218.833V228.813H223.788ZM207.785 232.225C207.785 241.77 206.892 250.055 202.221 257.569L198.119 255.295C201.815 249.446 202.993 243.8 203.196 236.571H199.337V232.225H207.785ZM246.959 244.247C254.757 243.394 258.697 239.779 259.346 236.53H248.299V232.266H259.428V228.082H264.789V232.266H275.999V236.53H264.911C265.561 239.698 269.582 243.394 277.299 244.247L275.39 248.471C269.013 247.7 264.586 245.181 262.149 241.77C259.712 245.181 255.366 247.7 248.827 248.471L246.959 244.247ZM264.789 254.726V265.489H259.428V254.726H245.293V250.38H279.086V254.726H264.789ZM308.529 228.001H313.89V255.701H308.529V243.232H302.558V238.927H308.529V228.001ZM302.518 251.314C298.294 250.055 295.491 247.618 293.745 244.369C292.12 247.943 289.196 250.583 284.972 251.924L282.372 247.74C288.383 245.791 290.983 241.323 290.983 236.774V236.611H283.672V232.428H290.983V228.285H296.344V232.428H303.736V236.611H296.344V236.774C296.344 240.998 299.025 245.303 305.077 247.131L302.518 251.314ZM314.743 264.758H289.236V253.386H294.598V260.493H314.743V264.758ZM349.344 247.05V265.408H343.983V228.001H349.344V242.623H354.706V247.05H349.344ZM341.546 233.525V237.789H319.776V233.525H328.062V228.651H333.423V233.525H341.546ZM330.783 239.901C336.185 239.901 340.206 243.597 340.206 248.796C340.206 254.117 336.185 257.772 330.783 257.772C325.341 257.772 321.279 254.117 321.279 248.796C321.279 243.597 325.341 239.901 330.783 239.901ZM330.783 253.386C333.382 253.386 335.129 251.721 335.129 248.796C335.129 245.994 333.382 244.247 330.783 244.247C328.184 244.247 326.397 245.912 326.397 248.837C326.397 251.761 328.184 253.386 330.783 253.386ZM361.526 242.379V229.341H366.887V238.114H387.479V242.379H361.526ZM391.216 250.502H357.343V246.197H391.216V250.502ZM387.682 260.331V264.636H361.16V253.467H366.562V260.331H387.682ZM420.804 244.207C412.803 244.207 407.36 241.201 407.36 236.449C407.36 231.738 412.803 228.691 420.804 228.691C428.927 228.691 434.248 231.738 434.248 236.449C434.248 241.201 428.927 244.207 420.804 244.207ZM420.804 232.956C416.052 232.956 413.168 234.134 413.168 236.449C413.168 238.764 416.052 239.942 420.804 239.942C425.556 239.942 428.48 238.764 428.48 236.449C428.48 234.134 425.556 232.956 420.804 232.956ZM437.781 250.421H423.891V256.838H418.408V250.421H403.908V246.156H437.781V250.421ZM434.085 260.493V264.758H407.848V253.548H413.29V260.493H434.085ZM475.145 249.852H441.312V245.588H455.527V242.501H445.414V229.585H471.083V233.85H450.735V238.236H471.286V242.501H460.888V245.588H475.145V249.852ZM458.086 251.68C466.168 251.68 471.083 254.157 471.083 258.585C471.083 262.971 466.168 265.449 458.086 265.449C450.003 265.449 445.13 262.971 445.13 258.585C445.13 254.157 450.003 251.68 458.086 251.68ZM458.086 261.387C463.163 261.387 465.64 260.534 465.64 258.585C465.64 256.676 463.122 255.741 458.086 255.741C453.05 255.741 450.531 256.676 450.531 258.585C450.531 260.534 453.009 261.387 458.086 261.387ZM491.735 233.403V229.179H517.811V240.348H497.259V243.435H518.704V247.659H491.776V236.327H512.368V233.403H491.735ZM507.372 254.685V265.489H502.011V254.685H487.836V250.38H521.71V254.685H507.372ZM550.869 255.62V228.001H556.271V255.62H550.869ZM548.269 249.446C542.949 250.299 538.359 250.38 530.439 250.38H527.23V230.844H545.223V235.109H532.551V238.48H544.126V242.623H532.551V246.156C538.968 246.156 543.152 246.034 547.782 245.263L548.269 249.446ZM557.205 264.758H531.373V253.264H536.734V260.493H557.205V264.758ZM566.381 253.305L565.528 236.693L565.325 231.047H571.336L571.133 236.693L570.28 253.305H566.381ZM565.406 262.484V256.716H571.336V262.484H565.406Z" fill="#262D37"/>
<path d="M252.568 273.277H567.746" stroke="#67B3FF" stroke-width="4.87388" stroke-linecap="round"/>
</g>
</g>
<defs>
<filter id="filter0_d_3891_441" x="0.0656624" y="0.34082" width="668.837" height="343.315" filterUnits="userSpaceOnUse" color-interpolation-filters="sRGB">
<feFlood flood-opacity="0" result="BackgroundImageFix"/>
<feColorMatrix in="SourceAlpha" type="matrix" values="0 0 0 0 0 0 0 0 0 0 0 0 0 0 0 0 0 0 127 0" result="hardAlpha"/>
<feOffset dx="3.93434" dy="13.7702"/>
<feGaussianBlur stdDeviation="3.93434"/>
<feComposite in2="hardAlpha" operator="out"/>
<feColorMatrix type="matrix" values="0 0 0 0 0 0 0 0 0 0 0 0 0 0 0 0 0 0 0.1 0"/>
<feBlend mode="normal" in2="BackgroundImageFix" result="effect1_dropShadow_3891_441"/>
<feBlend mode="normal" in="SourceGraphic" in2="effect1_dropShadow_3891_441" result="shape"/>
</filter>
<filter id="filter1_d_3891_441" x="-65.2999" y="0.339844" width="818.063" height="5186.35" filterUnits="userSpaceOnUse" color-interpolation-filters="sRGB">
<feFlood flood-opacity="0" result="BackgroundImageFix"/>
<feColorMatrix in="SourceAlpha" type="matrix" values="0 0 0 0 0 0 0 0 0 0 0 0 0 0 0 0 0 0 127 0" result="hardAlpha"/>
<feOffset dx="19.4723" dy="97.3615"/>
<feGaussianBlur stdDeviation="3.89446"/>
<feComposite in2="hardAlpha" operator="out"/>
<feColorMatrix type="matrix" values="0 0 0 0 0 0 0 0 0 0 0 0 0 0 0 0 0 0 0.25 0"/>
<feBlend mode="normal" in2="BackgroundImageFix" result="effect1_dropShadow_3891_441"/>
<feBlend mode="normal" in="SourceGraphic" in2="effect1_dropShadow_3891_441" result="shape"/>
</filter>
<clipPath id="clip0_3891_441">
<rect x="4" y="0.34082" width="653.1" height="321.676" rx="42" fill="white"/>
</clipPath>
</defs>
</svg>
