<svg width="1202" height="306" viewBox="0 0 1202 306" fill="none" xmlns="http://www.w3.org/2000/svg">
<g filter="url(#filter0_d_3891_292)">
<g clip-path="url(#clip0_3891_292)">
<rect x="4" width="402" height="295" rx="40" fill="#F9F9FB"/>
<path d="M75.602 40.332H72.5V50.716H70.234V30.806H72.5V38.462H75.602V40.332ZM60.18 43.94C63.348 43.94 65.834 43.764 68.584 43.302L68.826 45.172C65.834 45.7 63.128 45.832 59.542 45.832H57.914V32.698H67.154V34.546H60.18V43.94ZM86.3363 31.246C90.6703 31.246 93.4203 32.676 93.4203 35.052C93.4203 37.406 90.6703 38.858 86.3363 38.858C82.0023 38.858 79.2523 37.406 79.2523 35.052C79.2523 32.676 82.0023 31.246 86.3363 31.246ZM86.3363 33.006C83.3223 33.006 81.5843 33.732 81.5843 35.052C81.5843 36.372 83.3223 37.076 86.3363 37.076C89.3503 37.076 91.0663 36.372 91.0663 35.052C91.0663 33.732 89.3503 33.006 86.3363 33.006ZM95.3123 40.31V42.114H77.3383V40.31H95.3123ZM93.1343 43.808V50.452H79.4943V43.808H93.1343ZM81.7383 45.612V48.648H90.9123V45.612H81.7383ZM103.398 37.208C107.072 36.856 109.646 35.25 109.932 33.512H104.168V31.686H118.842V33.512H113.034C113.32 35.25 115.894 36.856 119.568 37.208L118.776 38.99C115.3 38.638 112.55 37.142 111.494 35.14C110.416 37.186 107.754 38.616 104.212 38.99L103.398 37.208ZM112.616 41.806V43.654C116.312 43.896 118.292 45.062 118.292 47.174C118.292 49.462 115.85 50.694 111.45 50.694C107.072 50.694 104.608 49.462 104.608 47.174C104.608 45.062 106.632 43.874 110.35 43.632V41.806H102.496V40.002H120.47V41.806H112.616ZM116.004 47.174C116.004 45.942 114.376 45.37 111.45 45.37C108.524 45.37 106.918 45.942 106.918 47.174C106.918 48.318 108.524 48.956 111.45 48.956C114.376 48.956 116.004 48.318 116.004 47.174ZM145.651 40.42V42.268H127.699V40.42H135.531V38.44H129.921V31.708H143.451V33.512H132.165V36.614H143.583V38.44H137.797V40.42H145.651ZM136.609 43.478C140.877 43.478 143.451 44.798 143.451 47.086C143.451 49.396 140.987 50.716 136.609 50.716C132.363 50.716 129.767 49.396 129.767 47.086C129.767 44.798 132.363 43.478 136.609 43.478ZM136.609 48.956C139.535 48.956 141.163 48.318 141.163 47.086C141.163 45.854 139.535 45.216 136.609 45.216C133.683 45.216 132.077 45.854 132.077 47.086C132.077 48.318 133.683 48.956 136.609 48.956ZM163.557 37.582H150.181V31.444H163.557V37.582ZM161.335 33.204H152.425V35.8H161.335V33.204ZM158.013 40.772V42.422H163.623V47.152H152.315V48.78H164.195V50.518H150.071V45.546H161.401V44.138H150.027V42.422H155.725V40.772H147.893V38.968H165.889V40.772H158.013ZM184.499 30.806V50.738H182.211V30.806H184.499ZM173.917 32.28C176.887 32.28 179.043 35.008 179.043 39.276C179.043 43.588 176.887 46.294 173.917 46.294C170.991 46.294 168.813 43.588 168.813 39.276C168.813 35.008 170.991 32.28 173.917 32.28ZM173.917 34.326C172.157 34.326 170.991 36.174 170.991 39.276C170.991 42.466 172.157 44.27 173.917 44.27C175.677 44.27 176.865 42.466 176.865 39.276C176.865 36.174 175.677 34.326 173.917 34.326ZM211.791 40.464H208.689V50.716H206.423V30.828H208.689V38.594H211.791V40.464ZM198.591 32.28C201.561 32.28 203.695 35.008 203.695 39.298C203.695 43.588 201.561 46.294 198.591 46.294C195.621 46.294 193.487 43.588 193.487 39.298C193.487 35.008 195.621 32.28 198.591 32.28ZM198.591 44.27C200.351 44.27 201.517 42.4 201.517 39.298C201.517 36.196 200.351 34.326 198.591 34.326C196.831 34.326 195.665 36.196 195.665 39.298C195.665 42.4 196.831 44.27 198.591 44.27ZM229.918 45.26H227.652V30.828H229.918V45.26ZM226.024 40.728C222.768 41.366 219.82 41.608 216.388 41.608H214.738V32.302H217.004V39.738C220.084 39.716 222.834 39.496 225.76 38.88L226.024 40.728ZM230.49 48.472V50.32H216.828V43.698H219.094V48.472H230.49ZM252.898 38.132H248.982V36.262H252.898V30.828H255.164V44.16H252.898V38.132ZM248.894 32.368C248.894 37.736 245.858 41.234 239.94 43.082L238.994 41.322C243.68 39.892 246.1 37.384 246.474 34.194H239.962V32.368H248.894ZM249.752 43.346C249.752 45.942 252.348 48.186 256.176 48.824L255.274 50.606C252.172 50.056 249.862 48.56 248.63 46.448C247.398 48.582 245.022 50.1 241.92 50.65L241.04 48.868C244.846 48.23 247.486 45.964 247.486 43.346V42.576H249.752V43.346ZM267.922 37.978C263.346 37.978 260.838 36.768 260.838 34.568C260.838 32.346 263.346 31.136 267.922 31.136C272.476 31.136 275.006 32.346 275.006 34.568C275.006 36.768 272.476 37.978 267.922 37.978ZM267.922 32.83C264.82 32.83 263.192 33.424 263.192 34.568C263.192 35.69 264.82 36.284 267.922 36.284C271.024 36.284 272.652 35.69 272.652 34.568C272.652 33.424 271.024 32.83 267.922 32.83ZM276.92 39.144V40.948H258.924V39.144H276.92ZM263.346 48.78H275.226V50.518H261.102V45.524H272.432V44.094H261.058V42.378H274.654V47.13H263.346V48.78ZM75.118 79.404V81.252H57.122V79.404H64.954V74.916H59.124V65.412H73.028V74.916H67.22V79.404H75.118ZM61.346 73.112H70.806V67.216H61.346V73.112ZM93.1783 72.892H79.7143V64.95H92.9363V66.776H82.0463V71.066H93.1783V72.892ZM95.3563 77.05H87.4143V83.65H85.1483V77.05H77.3163V75.18H95.3563V77.05ZM116.246 67.524H104.388V65.676H118.534V67.634C118.534 70.076 118.534 72.848 117.764 76.962L115.476 76.72C116.246 72.826 116.246 69.988 116.246 67.634V67.524ZM120.47 79.228V81.098H102.518V79.228H109.206V72.232H111.494V79.228H120.47ZM136.375 67.106H124.891V65.258H138.619V71.55H127.157V74.322H139.059V76.17H124.935V69.746H136.375V67.106ZM140.753 79.448V81.318H122.757V79.448H140.753ZM159.957 63.828V83.694H157.801V63.828H159.957ZM153.753 64.202H155.887V82.77H153.753V72.628H150.827V70.78H153.753V64.202ZM149.089 69.13C149.089 72.364 150.299 75.664 152.961 77.38L151.685 79.14C149.837 78.018 148.693 76.104 148.011 73.882C147.307 76.368 146.031 78.414 144.095 79.58L142.709 77.864C145.525 76.17 146.889 72.628 146.889 69.24V65.654H149.089V69.13ZM181.229 79.404V81.252H163.233V79.404H167.435V74.234C165.851 73.354 164.905 71.924 164.905 70.164C164.905 66.996 167.963 64.972 172.209 64.972C176.433 64.972 179.513 66.996 179.513 70.164C179.513 71.924 178.567 73.332 176.983 74.234V79.404H181.229ZM172.209 66.754C169.195 66.754 167.105 68.074 167.105 70.164C167.105 72.276 169.195 73.596 172.209 73.596C175.201 73.596 177.291 72.276 177.291 70.164C177.291 68.074 175.201 66.754 172.209 66.754ZM169.701 79.404H174.717V75.07C173.947 75.268 173.089 75.356 172.209 75.356C171.307 75.356 170.471 75.268 169.701 75.092V79.404ZM185.914 82.286H183.318V79.558H185.914V82.286Z" fill="#262D37"/>
<rect x="56" y="131" width="140" height="40" rx="20" fill="#EBE9F4"/>
<path d="M111.46 147.48C111.52 146.5 111.5 145.6 111.5 144.78H100.92V143.12H113.54V144.78C113.54 146.98 113.56 149.46 112.76 153.3L110.72 153.06C111.04 151.54 111.24 150.26 111.34 149.06L100.68 149.64L100.4 147.9L111.46 147.48ZM115.34 155.58V157.28H99V155.58H105.1V151.04H107.18V155.58H115.34ZM132.298 141.48V159.54H130.238V141.48H132.298ZM122.998 143.38C122.998 147.98 122.158 152.08 118.938 155.5L117.358 154.32C119.838 151.62 120.858 148.68 121.038 145.08H118.098V143.38H122.998ZM128.038 143.38C128.038 148.06 127.418 152.88 124.278 156.7L122.598 155.58C125.118 152.48 125.938 148.96 126.098 145.08H123.618V143.38H128.038ZM150.717 141.44V159.58H148.637V141.44H150.717ZM138.917 153.58C141.777 153.56 144.277 153.42 147.137 152.96L147.357 154.64C144.257 155.18 141.557 155.28 138.377 155.28H136.837V148.12H143.137V144.76H136.797V143.08H145.217V149.78H138.917V153.58Z" fill="#160766"/>
<rect x="215" y="131" width="140" height="40" rx="20" fill="#EBE9F4"/>
<path d="M282.42 141.48V159.54H280.36V141.48H282.42ZM277.1 143.38C277.1 148.76 274.94 153.32 268.74 156.32L267.64 154.68C272.38 152.38 274.64 149.22 274.98 145.06H268.54V143.38H277.1ZM300.798 154.8H298.718V141.5H300.798V154.8ZM297.098 151.76C294.358 152.24 291.978 152.36 288.358 152.36H286.838V146.64H293.038V144.38H286.798V142.72H295.058V148.2H288.878V150.68C292.158 150.68 294.338 150.58 296.878 150.1L297.098 151.76ZM301.278 157.52V159.2H288.898V153.74H290.958V157.52H301.278Z" fill="#160766"/>
<rect x="56" y="180" width="140" height="40" rx="20" fill="#EBE9F4"/>
<path d="M125.32 199.46H122.54V208.56H120.46V190.48H122.54V197.74H125.32V199.46ZM114.78 193.26H119V194.94H108.42V193.26H112.72V190.74H114.78V193.26ZM113.78 196.22C116.34 196.22 118.26 197.96 118.26 200.44C118.26 202.92 116.34 204.66 113.78 204.66C111.16 204.66 109.3 202.92 109.3 200.44C109.3 197.96 111.16 196.22 113.78 196.22ZM113.78 202.96C115.24 202.96 116.3 201.96 116.3 200.44C116.3 198.92 115.24 197.92 113.78 197.92C112.32 197.92 111.26 198.92 111.26 200.44C111.26 201.96 112.32 202.96 113.78 202.96ZM143.718 199.24H140.898V208.56H138.838V190.48H140.898V197.54H143.718V199.24ZM127.538 192.24H135.998V204.04H127.538V192.24ZM129.578 202.4H133.958V193.88H129.578V202.4Z" fill="#160766"/>
<rect x="215" y="180" width="140" height="40" rx="20" fill="#EBE9F4"/>
<path d="M276.08 199.2C275.22 200.18 274 200.78 272.48 200.76C269.8 200.76 267.76 198.84 267.76 196.18C267.76 193.52 269.8 191.6 272.48 191.6C274 191.6 275.22 192.2 276.08 193.16H280.42V190.5H282.48V203.78H280.42V199.2H276.08ZM269.72 196.18C269.72 197.86 270.9 198.98 272.48 198.98C274.02 198.98 275.2 197.86 275.2 196.18C275.2 194.52 274.02 193.42 272.48 193.42C270.9 193.42 269.72 194.52 269.72 196.18ZM276.96 194.84C277.1 195.18 277.16 195.64 277.16 196.18C277.16 196.72 277.1 197.18 276.96 197.52H280.42V194.84H276.96ZM282.94 206.52V208.2H270.78V202.44H272.84V206.52H282.94ZM300.838 199.8H298.758V190.46H300.838V199.8ZM297.298 198.62C293.738 199.2 289.578 199.32 286.438 199.32L286.218 197.64C286.878 197.64 287.598 197.64 288.338 197.62V193.26H286.698V191.62H296.398V193.26H294.798V197.38C295.618 197.32 296.418 197.24 297.198 197.14L297.298 198.62ZM290.318 197.58C291.118 197.56 291.978 197.56 292.798 197.5V193.26H290.318V197.58ZM301.438 206.76V208.38H288.898V203.68H298.798V202.22H288.878V200.62H300.838V205.18H290.958V206.76H301.438Z" fill="#160766"/>
<rect x="56" y="229" width="140" height="40" rx="20" fill="#EBE9F4"/>
<path d="M125.18 243.94V245.64H122.62V250.32H120.56V239.46H122.62V243.94H125.18ZM117.94 249.36C116 248.66 114.58 247.28 113.8 245.58C113 247.58 111.52 249.08 109.44 249.86L108.34 248.22C111.18 247.26 112.72 244.8 112.72 242.18V240.4H114.8V242.34C114.8 244.68 116.34 246.82 119.02 247.74L117.94 249.36ZM116.8 250.76C120.56 250.76 122.82 252 122.82 254.14C122.82 256.28 120.56 257.54 116.8 257.54C113.08 257.54 110.78 256.28 110.78 254.14C110.78 252 113.08 250.76 116.8 250.76ZM116.8 255.92C119.38 255.92 120.78 255.34 120.78 254.14C120.78 253.02 119.38 252.38 116.8 252.38C114.22 252.38 112.82 253.02 112.82 254.14C112.82 255.34 114.22 255.92 116.8 255.92ZM143.718 248.3H140.898V257.54H138.838V239.48H140.898V246.6H143.718V248.3ZM133.238 244.72C133.238 247.5 135.018 250.74 137.758 252.02L136.618 253.64C134.598 252.68 133.058 250.74 132.238 248.4C131.438 250.92 129.858 253.08 127.758 254.1L126.578 252.46C129.358 251.12 131.178 247.7 131.178 244.72V242.98H127.238V241.28H137.058V242.98H133.238V244.72Z" fill="#160766"/>
<rect x="215" y="229" width="140" height="40" rx="20" fill="#EBE9F4"/>
<path d="M291.8 239.5V250.56H289.84V245.86H287.98V250.46H286.04V239.8H287.98V244.18H289.84V239.5H291.8ZM284.52 249.76C282.84 249.12 281.72 248 281.06 246.48C280.44 248.08 279.32 249.38 277.56 250.08L276.58 248.54C278.88 247.64 280.04 245.64 280.04 243.48V243.34H277V241.7H280.04V239.66H282.02V241.7H284.98V243.34H282.02V243.48C282.02 245.72 283.4 247.44 285.46 248.22L284.52 249.76ZM279.56 251.44H291.8V257.56H289.74V253.1H279.56V251.44Z" fill="#160766"/>
</g>
</g>
<g filter="url(#filter1_d_3891_292)">
<g clip-path="url(#clip1_3891_292)">
<rect x="436" width="402" height="295" rx="40" fill="#F9F9FB"/>
<path d="M507.118 46.904V48.752H489.122V46.904H496.954V43.098C493.324 42.746 490.794 40.788 490.794 37.818C490.794 34.562 493.874 32.494 498.098 32.494C502.3 32.494 505.402 34.562 505.402 37.818C505.402 40.766 502.85 42.768 499.22 43.12V46.904H507.118ZM492.994 37.818C492.994 39.996 495.128 41.338 498.098 41.338C501.046 41.338 503.18 39.996 503.18 37.818C503.18 35.64 501.046 34.298 498.098 34.298C495.128 34.298 492.994 35.64 492.994 37.818ZM525.266 37.532H511.67V31.57H513.914V35.706H525.266V37.532ZM527.356 39.204V41.03H509.338V39.204H527.356ZM513.804 49.192H525.75V50.952H511.538V45.848H522.868V44.286H511.494V42.548H525.134V47.476H513.804V49.192ZM545.945 31.306V51.216H543.657V31.306H545.945ZM536.001 32.714C539.103 32.714 541.413 34.672 541.413 37.488C541.413 40.304 539.103 42.262 536.001 42.262C532.899 42.262 530.611 40.304 530.611 37.488C530.611 34.672 532.899 32.714 536.001 32.714ZM536.001 34.65C534.153 34.65 532.833 35.728 532.833 37.488C532.833 39.204 534.175 40.326 536.001 40.326C537.849 40.326 539.191 39.204 539.191 37.488C539.191 35.75 537.849 34.65 536.001 34.65ZM529.687 45.144C533.273 45.144 538.179 45.122 542.469 44.484L542.623 46.134C538.223 46.948 533.515 47.014 529.973 47.014L529.687 45.144ZM573.083 35.244V37.114H570.267V41.25H568.001V31.306H570.267V35.244H573.083ZM566.395 39.622C563.051 40.26 560.169 40.458 557.243 40.458H555.637V32.186H557.903V38.588C560.477 38.522 563.205 38.368 566.131 37.774L566.395 39.622ZM559.751 49.148H570.927V50.952H557.485V45.606H568.001V43.934H557.441V42.13H570.267V47.3H559.751V49.148ZM593.431 40.92H590.945V51.216H588.679V31.328H590.945V39.05H593.431V40.92ZM585.335 36.806C585.335 39.93 585.885 43.516 588.283 45.386L586.875 47.014C585.533 45.958 584.697 44.308 584.235 42.372C583.729 44.33 582.937 46.068 581.441 47.19C580.011 46.068 579.153 44.33 578.691 42.372C578.185 44.308 577.393 45.958 576.051 47.014L574.643 45.386C577.041 43.516 577.591 39.82 577.591 36.806V35.046H575.325V33.198H581.067V35.046H579.725V36.806C579.725 39.072 579.989 42.064 581.463 44.176C582.893 42.042 583.157 39.182 583.157 36.806V35.046H581.837V33.198H587.337V35.046H585.335V36.806ZM608.719 33.374H597.477V31.812H610.963V36.19H599.743V37.598H611.315V39.182H597.521V34.716H608.719V33.374ZM613.229 40.436V42.108H595.211V40.436H613.229ZM599.589 49.412H611.623V50.974H597.345V46.42H608.785V45.012H597.301V43.45H611.029V47.894H599.589V49.412ZM638.718 35.31V37.18H635.902V41.272H633.636V31.328H635.902V35.31H638.718ZM632.03 39.974C629.324 40.568 626.948 40.678 622.768 40.678H621.162V32.428H630.006V34.232H623.428V38.852C627.08 38.852 629.302 38.72 631.766 38.192L632.03 39.974ZM625.342 49.148H636.562V50.952H623.12V45.65H633.658V44H623.076V42.174H635.902V47.366H625.342V49.148ZM657.086 31.328V43.56H654.82V40.172H651.256V38.346H654.82V36.014H651.256V34.188H654.82V31.328H657.086ZM651.19 42.35C648.836 42.768 646.724 42.834 642.874 42.834H641.422V36.674H647.758V34.298H641.378V32.472H650.002V38.412H643.644V40.986C646.988 40.986 648.792 40.876 650.948 40.524L651.19 42.35ZM643.644 44.55H657.086V51.238H654.82V46.398H643.644V44.55ZM669.844 38.478C665.268 38.478 662.76 37.268 662.76 35.068C662.76 32.846 665.268 31.636 669.844 31.636C674.398 31.636 676.928 32.846 676.928 35.068C676.928 37.268 674.398 38.478 669.844 38.478ZM669.844 33.33C666.742 33.33 665.114 33.924 665.114 35.068C665.114 36.19 666.742 36.784 669.844 36.784C672.946 36.784 674.574 36.19 674.574 35.068C674.574 33.924 672.946 33.33 669.844 33.33ZM678.842 39.644V41.448H660.846V39.644H678.842ZM665.268 49.28H677.148V51.018H663.024V46.024H674.354V44.594H662.98V42.878H676.576V47.63H665.268V49.28ZM507.118 79.904V81.774H489.122V79.904H496.954V75.9H491.146V65.648H493.39V68.992H502.806V65.648H505.05V75.9H499.22V79.904H507.118ZM493.39 74.074H502.806V70.818H493.39V74.074ZM525.706 64.328V84.194H523.418V64.328H525.706ZM516.686 70.07C516.686 73.392 518.732 76.78 521.834 78.122L520.58 79.904C518.27 78.87 516.51 76.736 515.564 74.162C514.684 76.912 512.902 79.31 510.57 80.41L509.272 78.606C512.352 77.22 514.398 73.436 514.398 70.07V68.178H509.976V66.308H521.108V68.178H516.686V70.07ZM552.844 68.64V70.51H550.028V74.162H547.762V64.328H550.028V68.64H552.844ZM545.188 70.004C545.188 72.71 542.966 74.624 539.974 74.624C536.982 74.624 534.76 72.71 534.76 70.004C534.76 67.298 536.982 65.384 539.974 65.384C542.966 65.384 545.188 67.298 545.188 70.004ZM536.96 70.004C536.96 71.654 538.28 72.754 539.974 72.754C541.668 72.754 542.988 71.654 542.988 70.004C542.988 68.332 541.712 67.232 539.974 67.232C538.236 67.232 536.96 68.332 536.96 70.004ZM547.96 76.318H551.832V77.968H541.866V76.318H545.76V74.69H547.96V76.318ZM538.632 81.818C539.776 81.752 540.986 81.598 542.218 81.18L542.592 82.984C540.744 83.6 539.072 83.688 537.466 83.688H536.432V76.208H538.632V81.818ZM546.86 78.584C549.06 78.584 550.6 79.684 550.6 81.4C550.6 83.116 549.06 84.216 546.86 84.216C544.66 84.216 543.098 83.116 543.098 81.4C543.098 79.684 544.66 78.584 546.86 78.584ZM546.86 82.632C547.85 82.632 548.598 82.17 548.598 81.4C548.598 80.608 547.85 80.168 546.86 80.168C545.826 80.168 545.1 80.608 545.1 81.4C545.1 82.17 545.826 82.632 546.86 82.632ZM568.485 68.024H556.627V66.176H570.773V68.134C570.773 70.576 570.773 73.348 570.003 77.462L567.715 77.22C568.485 73.326 568.485 70.488 568.485 68.134V68.024ZM572.709 79.728V81.598H554.757V79.728H561.445V72.732H563.733V79.728H572.709ZM596.283 64.328V74.998H594.017V64.328H596.283ZM585.569 65.23C588.605 65.23 590.827 67.122 590.827 69.85C590.827 72.578 588.605 74.47 585.569 74.47C582.511 74.47 580.289 72.578 580.289 69.85C580.289 67.122 582.511 65.23 585.569 65.23ZM585.569 67.1C583.721 67.1 582.511 68.178 582.511 69.85C582.511 71.522 583.721 72.6 585.569 72.6C587.351 72.6 588.627 71.522 588.627 69.85C588.627 68.178 587.351 67.1 585.569 67.1ZM585.547 75.922V78.122H594.039V75.922H596.283V83.952H583.303V75.922H585.547ZM585.547 82.126H594.039V79.882H585.547V82.126ZM616.609 64.328V76.56H614.343V73.172H610.779V71.346H614.343V69.014H610.779V67.188H614.343V64.328H616.609ZM610.713 75.35C608.359 75.768 606.247 75.834 602.397 75.834H600.945V69.674H607.281V67.298H600.901V65.472H609.525V71.412H603.167V73.986C606.511 73.986 608.315 73.876 610.471 73.524L610.713 75.35ZM603.167 77.55H616.609V84.238H614.343V79.398H603.167V77.55ZM637.31 64.328V84.194H635.154V74.426H633.042V83.27H630.93V64.746H633.042V72.556H635.154V64.328H637.31ZM626.354 67.562H630.072V69.388H620.348V67.562H624.11V64.9H626.354V67.562ZM625.232 70.51C627.762 70.51 629.544 72.38 629.544 75.13C629.544 77.858 627.762 79.75 625.232 79.75C622.702 79.75 620.92 77.858 620.92 75.13C620.92 72.38 622.702 70.51 625.232 70.51ZM625.232 77.858C626.574 77.858 627.52 76.802 627.52 75.13C627.52 73.458 626.574 72.38 625.232 72.38C623.89 72.38 622.944 73.458 622.944 75.13C622.944 76.802 623.89 77.858 625.232 77.858ZM658.626 79.904V81.774H640.63V79.904H648.462V75.9H642.654V65.648H644.898V68.992H654.314V65.648H656.558V75.9H650.728V79.904H658.626ZM644.898 74.074H654.314V70.818H644.898V74.074ZM677.83 64.328V84.194H675.674V64.328H677.83ZM671.626 64.702H673.76V83.27H671.626V73.128H668.7V71.28H671.626V64.702ZM666.962 69.63C666.962 72.864 668.172 76.164 670.834 77.88L669.558 79.64C667.71 78.518 666.566 76.604 665.884 74.382C665.18 76.868 663.904 78.914 661.968 80.08L660.582 78.364C663.398 76.67 664.762 73.128 664.762 69.74V66.154H666.962V69.63ZM699.102 79.904V81.752H681.106V79.904H685.308V74.734C683.724 73.854 682.778 72.424 682.778 70.664C682.778 67.496 685.836 65.472 690.082 65.472C694.306 65.472 697.386 67.496 697.386 70.664C697.386 72.424 696.44 73.832 694.856 74.734V79.904H699.102ZM690.082 67.254C687.068 67.254 684.978 68.574 684.978 70.664C684.978 72.776 687.068 74.096 690.082 74.096C693.074 74.096 695.164 72.776 695.164 70.664C695.164 68.574 693.074 67.254 690.082 67.254ZM687.574 79.904H692.59V75.57C691.82 75.768 690.962 75.856 690.082 75.856C689.18 75.856 688.344 75.768 687.574 75.592V79.904ZM704.843 77.968H703.149L702.797 68.53L702.731 65.934H705.283L704.843 77.968ZM702.709 82.786V80.058H705.305V82.786H702.709Z" fill="#262D37"/>
<rect x="488" y="131.5" width="92" height="36" rx="18" fill="#EBE9F4"/>
<path d="M600.312 145.314H595.032V143.51H600.312V141.552H595.032V139.748H600.312V137.328H602.578V152.002H600.312V145.314ZM597.452 148.526C594.394 149.054 591.732 149.208 588.784 149.208H587.244V138.692H589.51V147.338C592.084 147.316 594.482 147.184 597.232 146.678L597.452 148.526ZM603.084 154.972V156.82H589.686V150.704H591.952V154.972H603.084Z" fill="black"/>
<rect x="614" y="131.5" width="57" height="36" rx="18" fill="#EBE9F4"/>
<path d="M691.312 146.656V137.328H693.578V148.922H691.312V148.064H687.572V146.656H691.312ZM683.458 143.62C680.466 143.62 678.508 142.476 678.508 140.65C678.508 138.824 680.466 137.68 683.458 137.68C686.406 137.68 688.386 138.824 688.386 140.65C688.386 142.476 686.406 143.62 683.458 143.62ZM683.458 139.198C681.698 139.198 680.642 139.704 680.642 140.65C680.642 141.596 681.698 142.102 683.458 142.102C685.152 142.102 686.252 141.596 686.252 140.65C686.252 139.704 685.152 139.198 683.458 139.198ZM682.204 146.15C680.444 146.216 678.838 146.216 677.342 146.216L677.078 144.588C680.906 144.588 685.68 144.544 689.904 144.126L690.058 145.556C688.21 145.82 686.34 145.974 684.492 146.062V148.988H682.204V146.15ZM694.15 155.412V157.018H680.048V152.508H691.334V151.188H680.004V149.626H693.578V153.96H682.292V155.412H694.15Z" fill="black"/>
<rect x="705" y="131.5" width="57" height="36" rx="18" fill="#EBE9F4"/>
<path d="M784.49 147.404H782.224V137.306H784.49V147.404ZM778.924 142.454C778.924 145.072 776.702 146.92 773.688 146.92C770.718 146.92 768.496 145.072 768.496 142.454C768.496 139.814 770.718 137.966 773.688 137.966C776.702 137.966 778.924 139.814 778.924 142.454ZM770.696 142.454C770.696 144.038 771.994 145.072 773.688 145.072C775.426 145.072 776.724 144.038 776.724 142.454C776.724 140.87 775.426 139.836 773.688 139.836C771.994 139.836 770.696 140.87 770.696 142.454ZM785.084 155.17V156.952H771.51V151.738H782.246V150.088H771.466V148.306H784.49V153.41H773.732V155.17H785.084Z" fill="black"/>
<rect x="488" y="182.5" width="77" height="36" rx="18" fill="#EBE9F4"/>
<path d="M589.118 205.404V207.252H571.122V205.404H575.324V200.234C573.74 199.354 572.794 197.924 572.794 196.164C572.794 192.996 575.852 190.972 580.098 190.972C584.322 190.972 587.402 192.996 587.402 196.164C587.402 197.924 586.456 199.332 584.872 200.234V205.404H589.118ZM580.098 192.754C577.084 192.754 574.994 194.074 574.994 196.164C574.994 198.276 577.084 199.596 580.098 199.596C583.09 199.596 585.18 198.276 585.18 196.164C585.18 194.074 583.09 192.754 580.098 192.754ZM577.59 205.404H582.606V201.07C581.836 201.268 580.978 201.356 580.098 201.356C579.196 201.356 578.36 201.268 577.59 201.092V205.404ZM607.728 199.904H605.462V189.806H607.728V199.904ZM602.162 194.954C602.162 197.572 599.94 199.42 596.926 199.42C593.956 199.42 591.734 197.572 591.734 194.954C591.734 192.314 593.956 190.466 596.926 190.466C599.94 190.466 602.162 192.314 602.162 194.954ZM593.934 194.954C593.934 196.538 595.232 197.572 596.926 197.572C598.664 197.572 599.962 196.538 599.962 194.954C599.962 193.37 598.664 192.336 596.926 192.336C595.232 192.336 593.934 193.37 593.934 194.954ZM608.322 207.67V209.452H594.748V204.238H605.484V202.588H594.704V200.806H607.728V205.91H596.97V207.67H608.322Z" fill="black"/>
</g>
</g>
<g filter="url(#filter2_d_3891_292)">
<g clip-path="url(#clip2_3891_292)">
<rect x="868" width="402" height="295" rx="40" fill="#F9F9FB"/>
<path d="M939.602 41.03H936.5V51.194H934.234V31.328H936.5V39.16H939.602V41.03ZM928.074 37.092C928.074 40.15 930.032 43.714 933.046 45.122L931.792 46.904C929.57 45.848 927.876 43.714 926.974 41.14C926.094 43.912 924.356 46.288 922.046 47.41L920.748 45.606C923.806 44.132 925.808 40.37 925.808 37.092V35.178H921.474V33.308H932.276V35.178H928.074V37.092ZM957.728 45.87H955.462V31.35H957.728V45.87ZM952.228 42.746C949.94 41.888 948.334 40.326 947.476 38.214C946.574 40.436 944.968 42.24 942.592 43.12L941.426 41.294C944.55 40.106 946.288 37.334 946.288 34.408V32.428H948.598V34.408C948.598 37.224 950.336 39.886 953.394 40.942L952.228 42.746ZM958.3 48.972V50.82H944.748V44.506H947.036V48.972H958.3ZM977.945 31.306V51.238H975.657V31.306H977.945ZM967.363 32.78C970.333 32.78 972.489 35.508 972.489 39.776C972.489 44.088 970.333 46.794 967.363 46.794C964.437 46.794 962.259 44.088 962.259 39.776C962.259 35.508 964.437 32.78 967.363 32.78ZM967.363 34.826C965.603 34.826 964.437 36.674 964.437 39.776C964.437 42.966 965.603 44.77 967.363 44.77C969.123 44.77 970.311 42.966 970.311 39.776C970.311 36.674 969.123 34.826 967.363 34.826ZM999.319 42.9H997.185V31.702H999.319V36.432H1001.41V31.35H1003.56V43.538H1001.41V38.28H999.319V42.9ZM995.513 42.13C993.753 41.448 992.543 40.128 991.773 38.544C991.047 40.392 989.771 41.888 987.835 42.746L986.647 41.008C989.309 39.776 990.651 37.312 990.651 35.046V32.538H992.851V35.046C992.851 37.224 994.149 39.446 996.723 40.436L995.513 42.13ZM996.943 43.912C1001.08 43.912 1003.67 45.276 1003.67 47.564C1003.67 49.83 1001.08 51.194 996.943 51.194C992.807 51.194 990.211 49.83 990.211 47.564C990.211 45.276 992.807 43.912 996.943 43.912ZM996.943 49.456C999.781 49.456 1001.41 48.796 1001.41 47.564C1001.41 46.332 999.781 45.65 996.943 45.65C994.105 45.65 992.477 46.332 992.477 47.564C992.477 48.796 994.105 49.456 996.943 49.456ZM1018.68 34.276H1007.35V32.714H1011.88V31.13H1014.17V32.714H1018.68V34.276ZM1025.28 36.234V38.104H1022.55V43.01H1020.28V31.328H1022.55V36.234H1025.28ZM1019.4 41.91C1015.18 42.68 1010.54 42.702 1007.06 42.702L1006.82 41.096C1008.32 41.096 1010.03 41.118 1011.88 41.052V39.93C1009.59 39.688 1008.27 38.808 1008.27 37.378C1008.27 35.706 1010.08 34.782 1013 34.782C1015.93 34.782 1017.73 35.706 1017.73 37.378C1017.73 38.808 1016.39 39.688 1014.17 39.93V40.964C1015.93 40.876 1017.62 40.766 1019.23 40.524L1019.4 41.91ZM1010.41 37.378C1010.41 38.148 1011.42 38.566 1013 38.566C1014.61 38.566 1015.6 38.148 1015.6 37.378C1015.6 36.608 1014.61 36.212 1013 36.212C1011.42 36.212 1010.41 36.608 1010.41 37.378ZM1011.75 49.456H1023.28V51.018H1009.5V46.64H1020.31V45.386H1009.46V43.846H1022.55V48.07H1011.75V49.456ZM1045.71 41.206H1042.66V51.216H1040.37V31.328H1042.66V39.314H1045.71V41.206ZM1034.12 34.386H1038.76V36.234H1027.12V34.386H1031.85V31.614H1034.12V34.386ZM1033.02 37.642C1035.84 37.642 1037.95 39.556 1037.95 42.284C1037.95 45.012 1035.84 46.926 1033.02 46.926C1030.14 46.926 1028.09 45.012 1028.09 42.284C1028.09 39.556 1030.14 37.642 1033.02 37.642ZM1033.02 45.056C1034.63 45.056 1035.79 43.956 1035.79 42.284C1035.79 40.612 1034.63 39.512 1033.02 39.512C1031.41 39.512 1030.25 40.612 1030.25 42.284C1030.25 43.956 1031.41 45.056 1033.02 45.056ZM1063.42 38.874H1049.78V32.032H1052.05V37.026H1063.42V38.874ZM1065.49 41.25V43.076H1047.45V41.25H1065.49ZM1051.92 48.928H1063.53V50.754H1049.65V44.902H1051.92V48.928ZM1085.63 39.006C1086.07 36.96 1086.12 35.464 1086.12 34.056H1074.72V32.252H1088.36V33.748C1088.36 35.244 1088.38 36.938 1087.88 39.226L1085.63 39.006ZM1090.58 40.48V42.306H1072.65V40.48H1079.69V36.63H1081.98V40.48H1090.58ZM1082.66 44.462C1082.66 46.816 1085.28 48.84 1089.24 49.368L1088.43 51.106C1085.24 50.644 1082.75 49.28 1081.52 47.322C1080.29 49.28 1077.84 50.644 1074.65 51.106L1073.8 49.368C1077.76 48.84 1080.37 46.816 1080.37 44.462V43.692H1082.66V44.462ZM1109.83 31.328V51.172H1107.67V31.328H1109.83ZM1103.69 31.702H1105.8V50.248H1103.69V40.722H1101.58C1101.4 44.594 1099.71 46.97 1097.33 46.97C1094.78 46.97 1093.07 44.242 1093.07 39.908C1093.07 35.552 1094.78 32.868 1097.33 32.868C1099.73 32.868 1101.32 35.134 1101.56 38.852H1103.69V31.702ZM1097.33 44.836C1098.74 44.836 1099.53 43.098 1099.53 39.908C1099.53 36.718 1098.74 35.002 1097.33 35.002C1095.93 35.002 1095.13 36.718 1095.13 39.908C1095.13 43.098 1095.93 44.836 1097.33 44.836ZM939.448 69.168V71.038H936.632V76.186H934.366V64.328H936.632V69.168H939.448ZM931.176 74.822H921.804V65.582H924.07V68.332H928.932V65.582H931.176V74.822ZM928.932 70.114H924.07V73.018H928.932V70.114ZM930.23 76.648C934.322 76.648 936.852 78.078 936.852 80.432C936.852 82.808 934.322 84.216 930.23 84.216C926.138 84.216 923.608 82.808 923.608 80.432C923.608 78.078 926.138 76.648 930.23 76.648ZM930.23 82.434C933.068 82.434 934.608 81.752 934.608 80.432C934.608 79.112 933.068 78.452 930.23 78.452C927.392 78.452 925.852 79.112 925.852 80.432C925.852 81.752 927.392 82.434 930.23 82.434ZM957.706 64.306V84.238H955.418V64.306H957.706ZM947.124 65.78C950.094 65.78 952.25 68.508 952.25 72.776C952.25 77.088 950.094 79.794 947.124 79.794C944.198 79.794 942.02 77.088 942.02 72.776C942.02 68.508 944.198 65.78 947.124 65.78ZM947.124 67.826C945.364 67.826 944.198 69.674 944.198 72.776C944.198 75.966 945.364 77.77 947.124 77.77C948.884 77.77 950.072 75.966 950.072 72.776C950.072 69.674 948.884 67.826 947.124 67.826ZM976.66 74.052H967.376V65.45H976.66V66.968H980.686V64.328H982.974V75.658H980.686V72.49H976.66V74.052ZM974.46 67.254H969.62V72.27H974.46V67.254ZM976.66 68.706V70.73H980.686V68.706H976.66ZM977.672 78.584C977.782 80.212 980.378 82.016 984.074 82.434L983.348 84.128C980.158 83.754 977.738 82.456 976.506 80.762C975.274 82.522 972.788 83.754 969.598 84.128L968.85 82.434C972.59 82.082 975.23 80.256 975.34 78.584H969.642V76.89H975.34V75.13H977.65V76.89H983.348V78.584H977.672ZM1008.57 64.328V84.194H1006.42V73.942H1004.15V83.27H1002.02V64.856H1004.15V72.094H1006.42V64.328H1008.57ZM1000.21 66.836C1000.21 72.116 998.453 76.802 992.887 80.036L991.567 78.43C995.901 75.966 997.683 72.6 997.969 68.684H992.403V66.836H1000.21ZM1033.2 75.636H1030.94V64.35H1033.2V75.636ZM1022.49 74.8C1019.43 74.8 1017.21 72.886 1017.21 70.114C1017.21 67.342 1019.43 65.428 1022.49 65.428C1025.52 65.428 1027.75 67.342 1027.75 70.114C1027.75 72.886 1025.52 74.8 1022.49 74.8ZM1022.49 67.298C1020.73 67.298 1019.43 68.42 1019.43 70.114C1019.43 71.83 1020.73 72.93 1022.49 72.93C1024.25 72.93 1025.55 71.83 1025.55 70.114C1025.55 68.42 1024.25 67.298 1022.49 67.298ZM1031.09 77.374C1031.09 79.398 1032.39 81.444 1034.96 82.258L1033.84 83.93C1031.9 83.248 1030.63 81.972 1029.95 80.366C1029.31 81.95 1028.16 83.336 1026.32 84.106C1024.45 83.38 1023.28 82.016 1022.66 80.41C1021.94 81.994 1020.66 83.248 1018.81 83.93L1017.71 82.258C1020.27 81.378 1021.56 79.288 1021.56 77.374V76.494H1023.76V77.374C1023.76 79.046 1024.51 80.806 1026.27 81.928C1028.03 80.762 1028.87 78.848 1028.87 77.374V76.494H1031.09V77.374ZM1055.47 73.942H1052.45V84.194H1050.19V64.328H1052.45V72.072H1055.47V73.942ZM1040.02 77.352C1042.77 77.33 1045.57 77.11 1048.58 76.494L1048.84 78.364C1045.48 79.046 1042.42 79.244 1039.41 79.244H1037.76V66.264H1040.02V77.352ZM1075.31 79.904V81.752H1057.31V79.904H1061.51V74.734C1059.93 73.854 1058.98 72.424 1058.98 70.664C1058.98 67.496 1062.04 65.472 1066.29 65.472C1070.51 65.472 1073.59 67.496 1073.59 70.664C1073.59 72.424 1072.65 73.832 1071.06 74.734V79.904H1075.31ZM1066.29 67.254C1063.27 67.254 1061.18 68.574 1061.18 70.664C1061.18 72.776 1063.27 74.096 1066.29 74.096C1069.28 74.096 1071.37 72.776 1071.37 70.664C1071.37 68.574 1069.28 67.254 1066.29 67.254ZM1063.78 79.904H1068.8V75.57C1068.03 75.768 1067.17 75.856 1066.29 75.856C1065.39 75.856 1064.55 75.768 1063.78 75.592V79.904ZM1080.7 78.056C1080.23 72.468 1083.93 73.502 1083.93 70.312C1083.93 68.31 1082.9 67.848 1081.84 67.848C1080.5 67.848 1079.64 68.552 1079.49 70.752H1077.31C1077.55 66.088 1080.94 65.56 1082.06 65.56C1084.77 65.56 1086.33 67.98 1086.33 70.18C1086.33 74.58 1082.59 73.502 1082.94 78.056H1080.7ZM1083.07 80.058V82.786H1080.48V80.058H1083.07Z" fill="#262D37"/>
<rect x="920" y="131.5" width="120" height="40" rx="20" fill="#EBE9F4"/>
<path d="M1063.02 140.828V160.694H1060.86V150.442H1058.6V159.77H1056.46V141.356H1058.6V148.594H1060.86V140.828H1063.02ZM1054.66 143.336C1054.66 148.616 1052.9 153.302 1047.33 156.536L1046.01 154.93C1050.35 152.466 1052.13 149.1 1052.41 145.184H1046.85V143.336H1054.66Z" fill="black"/>
</g>
</g>
<defs>
<filter id="filter0_d_3891_292" x="0" y="0" width="410" height="306" filterUnits="userSpaceOnUse" color-interpolation-filters="sRGB">
<feFlood flood-opacity="0" result="BackgroundImageFix"/>
<feColorMatrix in="SourceAlpha" type="matrix" values="0 0 0 0 0 0 0 0 0 0 0 0 0 0 0 0 0 0 127 0" result="hardAlpha"/>
<feOffset dy="7"/>
<feGaussianBlur stdDeviation="2"/>
<feComposite in2="hardAlpha" operator="out"/>
<feColorMatrix type="matrix" values="0 0 0 0 0 0 0 0 0 0 0 0 0 0 0 0 0 0 0.1 0"/>
<feBlend mode="normal" in2="BackgroundImageFix" result="effect1_dropShadow_3891_292"/>
<feBlend mode="normal" in="SourceGraphic" in2="effect1_dropShadow_3891_292" result="shape"/>
</filter>
<filter id="filter1_d_3891_292" x="432" y="0" width="410" height="306" filterUnits="userSpaceOnUse" color-interpolation-filters="sRGB">
<feFlood flood-opacity="0" result="BackgroundImageFix"/>
<feColorMatrix in="SourceAlpha" type="matrix" values="0 0 0 0 0 0 0 0 0 0 0 0 0 0 0 0 0 0 127 0" result="hardAlpha"/>
<feOffset dy="7"/>
<feGaussianBlur stdDeviation="2"/>
<feComposite in2="hardAlpha" operator="out"/>
<feColorMatrix type="matrix" values="0 0 0 0 0 0 0 0 0 0 0 0 0 0 0 0 0 0 0.1 0"/>
<feBlend mode="normal" in2="BackgroundImageFix" result="effect1_dropShadow_3891_292"/>
<feBlend mode="normal" in="SourceGraphic" in2="effect1_dropShadow_3891_292" result="shape"/>
</filter>
<filter id="filter2_d_3891_292" x="864" y="0" width="410" height="306" filterUnits="userSpaceOnUse" color-interpolation-filters="sRGB">
<feFlood flood-opacity="0" result="BackgroundImageFix"/>
<feColorMatrix in="SourceAlpha" type="matrix" values="0 0 0 0 0 0 0 0 0 0 0 0 0 0 0 0 0 0 127 0" result="hardAlpha"/>
<feOffset dy="7"/>
<feGaussianBlur stdDeviation="2"/>
<feComposite in2="hardAlpha" operator="out"/>
<feColorMatrix type="matrix" values="0 0 0 0 0 0 0 0 0 0 0 0 0 0 0 0 0 0 0.1 0"/>
<feBlend mode="normal" in2="BackgroundImageFix" result="effect1_dropShadow_3891_292"/>
<feBlend mode="normal" in="SourceGraphic" in2="effect1_dropShadow_3891_292" result="shape"/>
</filter>
<clipPath id="clip0_3891_292">
<rect x="4" width="402" height="295" rx="40" fill="white"/>
</clipPath>
<clipPath id="clip1_3891_292">
<rect x="436" width="402" height="295" rx="40" fill="white"/>
</clipPath>
<clipPath id="clip2_3891_292">
<rect x="868" width="402" height="295" rx="40" fill="white"/>
</clipPath>
</defs>
</svg>
