<svg width="669" height="344" viewBox="0 0 669 344" fill="none" xmlns="http://www.w3.org/2000/svg">
<g filter="url(#filter0_d_3891_678)">
<g clip-path="url(#clip0_3891_678)">
<rect x="4.01221" y="0.347656" width="652.579" height="321.42" rx="42" fill="#6349EB"/>
<g filter="url(#filter1_d_3891_678)">
<path d="M-65.2878 5019.12C-65.2878 5051.36 -39.1546 5077.49 -6.91754 5077.49H666.513C698.75 5077.49 724.883 5051.36 724.883 5019.12V58.7158C724.883 26.479 698.75 0.345703 666.513 0.345703H-6.91761C-39.1546 0.345703 -65.2878 26.479 -65.2878 58.7158V5019.12Z" fill="white"/>
</g>
<path d="M66.0595 61.6677V57.4065H94.4678V61.6677H89.3949V72.8687H94.346V77.13H66.2624V72.8687H71.1324V61.6677H66.0595ZM76.4488 61.6677V72.8687H84.0785V61.6677H76.4488ZM97.268 87.1946H63.4216V82.8522H97.268V87.1946ZM131.842 91.6182H126.485V54.1192H131.842V91.6182ZM108.222 78.5098C113.904 78.5098 118.652 78.1446 123.887 77.2923L124.456 81.6347C118.287 82.7305 112.93 82.9334 106.112 82.9334H102.744V67.5523H114.878V61.5866H102.703V57.3253H120.357V71.773H108.222V78.5098ZM169.054 91.6182H163.697V54.1598H169.054V91.6182ZM157.893 82.6493H139.915V57.5282H157.893V82.6493ZM145.191 78.4286H152.617V61.7489H145.191V78.4286ZM206.671 75.3443H201.314V67.3088H195.389C194.415 71.4889 190.519 74.2891 185.73 74.2891C180.17 74.2891 175.909 70.5149 175.909 65.1579C175.909 59.9227 180.17 56.1078 185.73 56.1078C190.478 56.1078 194.374 58.9081 195.348 62.9664H201.314V54.1598H206.671V75.3443ZM185.73 69.825C188.49 69.825 190.478 68.0799 190.478 65.1579C190.478 62.2359 188.49 60.6532 185.73 60.6532C182.97 60.6532 181.022 62.2359 181.022 65.1579C181.022 68.0799 182.97 69.825 185.73 69.825ZM206.671 77.0082V91.0906H181.794V77.0082H206.671ZM201.436 86.9105V81.1883H187.069V86.9105H201.436ZM253.199 75.0196H247.842V67.3494H241.389V63.007H247.842V54.2004H253.199V75.0196ZM241.187 56.3107C241.187 66.416 235.383 72.8281 224.223 75.9125L222.112 71.773C230.432 69.5003 234.653 65.6449 235.505 60.572H224.142V56.3107H241.187ZM253.199 76.5618V91.0906H228.606V76.5618H253.199ZM247.923 86.9105V80.7825H233.882V86.9105H247.923ZM288.544 72.9905V91.537H283.187V54.1598H288.544V68.5263H293.982V72.9905H288.544ZM273.041 62.4794C273.041 69.2162 275.679 76.0342 281.685 78.9562L278.439 83.1769C274.543 81.1883 271.945 77.6981 270.363 73.1122C268.739 77.8605 265.939 81.797 261.719 83.8668L258.512 79.5244C264.803 76.6024 267.644 69.4191 267.644 62.4794V57.0412H273.041V62.4794ZM336.939 91.4965H331.541V54.1192H336.939V91.4965ZM325.819 58.0152C325.819 69.4191 321.964 78.8345 308.693 85.206L305.893 80.9854C315.43 76.4401 319.569 70.5555 320.34 62.2765H307.881V58.0152H325.819ZM377.519 69.0945H372.568V81.6753H367.211V54.1598H372.568V64.7115H377.519V69.0945ZM344.241 75.8313V56.8383H349.517V62.1547H356.862V56.8383H362.138V75.8313H344.241ZM349.517 66.2942V71.6106H356.862V66.2942H349.517ZM373.907 86.6265V90.8877H348.461V78.9562H353.818V86.6265H373.907ZM391.378 70.3931C399.17 69.5409 403.106 65.929 403.756 62.6823H392.717V58.4211H403.837V54.241H409.194V58.4211H420.395V62.6823H409.315C409.965 65.8478 413.983 69.5409 421.693 70.3931L419.786 74.6138C413.414 73.8427 408.991 71.3266 406.556 67.9176C404.121 71.3266 399.778 73.8427 393.245 74.6138L391.378 70.3931ZM409.194 80.8636V91.6182H403.837V80.8636H389.714V76.5212H423.479V80.8636H409.194ZM452.899 54.1598H458.256V81.8376H452.899V69.3786H446.933V65.0767H452.899V54.1598ZM446.892 77.4546C442.672 76.1966 439.872 73.7616 438.126 70.5149C436.503 74.0862 433.581 76.7241 429.36 78.0634L426.763 73.8833C432.769 71.9353 435.367 67.4711 435.367 62.9258V62.7635H428.062V58.5834H435.367V54.4439H440.724V58.5834H448.11V62.7635H440.724V62.9258C440.724 67.1465 443.402 71.4483 449.449 73.2746L446.892 77.4546ZM459.108 90.8877H433.622V79.5244H438.979V86.6265H459.108V90.8877ZM491.107 71.6106C489.322 73.3963 486.765 74.4515 483.843 74.4515C478.324 74.4515 474.022 70.5961 474.022 65.3202C474.022 60.0038 478.324 56.1484 483.843 56.1484C486.927 56.1484 489.403 57.2442 491.188 59.0298H499.427V54.1598H504.784V76.0748H499.427V71.6106H491.107ZM479.095 65.3202C479.095 68.2422 481.083 69.9467 483.843 69.9467C486.603 69.9467 488.632 68.2422 488.632 65.3202C488.632 62.3982 486.603 60.6937 483.843 60.6937C481.083 60.6937 479.095 62.3982 479.095 65.3202ZM493.502 63.2911C493.623 63.9404 493.705 64.5491 493.705 65.3202C493.705 65.9696 493.623 66.6595 493.461 67.3494H499.427V63.2911H493.502ZM492.122 76.8053C500.036 76.8053 504.946 79.5244 504.946 84.1915C504.946 88.818 500.036 91.5776 492.122 91.5776C484.249 91.5776 479.338 88.818 479.338 84.1915C479.338 79.5244 484.249 76.8053 492.122 76.8053ZM492.122 87.4381C497.032 87.4381 499.67 86.4641 499.67 84.1915C499.67 81.9188 497.032 80.9448 492.122 80.9448C487.211 80.9448 484.614 81.9188 484.614 84.1915C484.614 86.4641 487.211 87.4381 492.122 87.4381ZM540.291 66.8624H545.08V71.2454H540.291V75.9531H534.934V54.1598H540.291V58.7457H545.08V63.1287H540.291V66.8624ZM531.403 65.2796C531.403 70.5149 527.02 74.3297 521.298 74.3297C515.535 74.3297 511.152 70.5149 511.152 65.2796C511.152 59.9632 515.535 56.189 521.298 56.189C527.02 56.189 531.403 59.9632 531.403 65.2796ZM516.388 65.2796C516.388 68.2016 518.376 69.825 521.298 69.825C524.098 69.825 526.209 68.2016 526.209 65.2796C526.209 62.3577 524.098 60.6937 521.298 60.6937C518.376 60.6937 516.388 62.3577 516.388 65.2796ZM528.076 76.7647C535.746 76.7647 540.697 79.5244 540.697 84.1509C540.697 88.818 535.746 91.5776 528.076 91.5776C520.324 91.5776 515.414 88.818 515.414 84.1509C515.414 79.5244 520.324 76.7647 528.076 76.7647ZM528.076 87.357C532.824 87.357 535.381 86.4235 535.381 84.1509C535.381 82 532.824 80.9448 528.076 80.9448C523.165 80.9448 520.73 82 520.73 84.1509C520.73 86.4235 523.165 87.357 528.076 87.357ZM580.262 91.4965H575.19V54.1192H580.262V91.4965ZM572.633 54.7686V89.8325H567.641V71.2454H562.893V66.903H567.641V54.7686H572.633ZM560.052 64.0621C560.052 70.312 561.878 76.643 567.276 79.7679L564.151 83.6639C560.742 81.7159 558.753 78.4692 557.495 74.5326C556.197 78.7939 554.046 82.4464 550.637 84.5567L547.471 80.6201C552.909 77.13 554.857 70.5555 554.857 64.0621V62.2359H548.851V57.8935H565.49V62.2359H560.052V64.0621ZM589.35 79.4432L588.498 62.8446L588.295 57.2036H594.301L594.098 62.8446L593.246 79.4432H589.35ZM588.376 88.615V82.8522H594.301V88.615H588.376Z" fill="#FACB67"/>
<path d="M88.1914 114.951V113.451H103.305V114.951H100.146V122.041H103.259V123.564H88.2369V122.041H91.3504V114.951H88.1914ZM93.214 114.951V122.041H98.2821V114.951H93.214ZM105.032 129.178H86.5551V127.632H105.032V129.178ZM124.189 131.814H122.325V111.383H124.189V131.814ZM110.507 125.337C113.848 125.337 116.871 125.155 120.416 124.61L120.598 126.132C116.893 126.746 113.848 126.882 110.325 126.882H108.644V119.064H116.143V114.814H108.575V113.292H118.03V120.587H110.507V125.337ZM145.05 131.837H143.186V111.405H145.05V131.837ZM138.914 126.655H129.55V113.405H138.914V126.655ZM131.369 125.178H137.096V114.905H131.369V125.178ZM166.07 123.132H164.184V118.087H160.025C159.661 120.564 157.639 122.201 154.843 122.201C151.821 122.201 149.594 120.246 149.594 117.36C149.594 114.542 151.821 112.587 154.843 112.587C157.548 112.587 159.639 114.178 160.002 116.542H164.184V111.428H166.07V123.132ZM154.843 120.632C156.843 120.632 158.298 119.291 158.298 117.36C158.298 115.473 156.843 114.155 154.843 114.155C152.821 114.155 151.366 115.473 151.366 117.36C151.366 119.291 152.821 120.632 154.843 120.632ZM166.07 124.178V131.518H152.821V124.178H166.07ZM164.252 130.018V125.655H154.639V130.018H164.252ZM192.559 131.768H190.787V111.383H192.559V131.768ZM188.446 111.905V130.746H186.696V120.655H183.742V119.132H186.696V111.905H188.446ZM177.81 125.36C180.651 125.36 182.492 125.269 184.605 124.837L184.764 126.359C182.469 126.837 180.537 126.882 177.333 126.882H176.014V113.837H183.605V115.36H177.81V119.36H182.651V120.837H177.81V125.36ZM212.898 123.2C209.807 122.473 206.603 120.314 205.33 117.314C204.057 120.291 200.83 122.473 197.785 123.2L196.944 121.655C200.489 120.928 204.353 117.905 204.353 114.405V112.837H206.307V114.405C206.307 117.86 210.171 120.996 213.739 121.655L212.898 123.2ZM214.648 129.064H196.171V127.519H214.648V129.064ZM219.442 123.905V113.178H233.237V114.678H221.328V117.701H232.782V119.178H221.328V122.405H233.441V123.905H219.442ZM235.555 129.155H217.055V127.632H235.555V129.155ZM252.953 115.814C251.681 119.019 248.635 121.201 244.067 122.269L243.385 120.746C248.453 119.587 251.203 117.223 251.544 113.928H244.453V112.405H253.567C253.567 113.064 253.499 113.723 253.362 114.36H257.976V111.405H259.862V121.814H257.976V119.701H252.658V118.246H257.976V115.814H252.953ZM260.544 131.587H246.772V126.337H257.999V124.246H246.726V122.746H259.862V127.746H248.612V130.109H260.544V131.587ZM279.61 121.496V131.791H277.746V111.405H279.61V119.928H282.86V121.496H279.61ZM272.746 122.655C273.314 119.269 273.36 116.792 273.36 115.155H264.883V113.633H275.178V114.746C275.178 116.382 275.178 118.996 274.61 122.837L272.746 122.655ZM269.928 125.678C272.201 125.587 274.405 125.473 276.496 125.2L276.61 126.564C272.383 127.223 267.61 127.337 263.974 127.337L263.769 125.791C265.065 125.791 266.542 125.791 268.087 125.723V119.451H269.928V125.678ZM303.38 129.268H284.858V127.746H293.153V123.905H287.176V117.61H299.267V114.428H287.131V112.905H301.085V119.11H289.017V122.405H301.562V123.905H295.039V127.746H303.38V129.268ZM312.029 120.678C315.733 120.201 319.142 117.951 319.142 115.428H312.665V113.928H319.165V111.428H321.029V113.928H327.528V115.428H321.029C321.029 117.928 324.46 120.201 328.119 120.678L327.46 122.178C324.324 121.701 321.392 120.132 320.097 117.928C318.801 120.132 315.87 121.701 312.711 122.178L312.029 120.678ZM321.029 125.246V131.814H319.165V125.246H310.892V123.723H329.324V125.246H321.029ZM346.685 111.428H348.571V126.632H346.685V119.223H342.572V117.678H346.685V111.428ZM342.913 123.769C340.549 122.973 338.754 121.405 337.822 119.314C336.935 121.587 335.14 123.291 332.754 124.132L331.822 122.678C334.845 121.655 336.867 119.11 336.867 116.269V115.633H332.345V114.133H336.867V111.542H338.731V114.133H343.231V115.633H338.731V116.269C338.731 118.996 340.822 121.314 343.822 122.291L342.913 123.769ZM349.14 131.337H335.526V125.269H337.413V129.814H349.14V131.337ZM368.387 121.36V131.791H366.524V111.428H368.387V119.791H371.728V121.36H368.387ZM364.592 114.678V116.178H352.57V114.678H357.706V111.655H359.569V114.678H364.592ZM358.66 117.86C361.569 117.86 363.637 119.837 363.637 122.564C363.637 125.36 361.569 127.246 358.66 127.246C355.797 127.246 353.729 125.36 353.729 122.564C353.729 119.837 355.797 117.86 358.66 117.86ZM358.66 125.7C360.547 125.7 361.865 124.382 361.865 122.564C361.865 120.746 360.547 119.405 358.66 119.405C356.819 119.405 355.479 120.746 355.479 122.564C355.479 124.382 356.819 125.7 358.66 125.7ZM376.067 119.064V112.155H377.931V117.542H389.93V119.064H376.067ZM392.044 123.291H373.567V121.791H392.044V123.291ZM390.044 129.768V131.291H375.931V125.337H377.794V129.768H390.044ZM400.465 121.905C403.988 121.291 407.852 118.496 407.852 115.223V114.792H401.102V113.269H416.533V114.792H409.783V115.223C409.783 118.473 413.67 121.291 417.215 121.837L416.465 123.337C413.374 122.723 410.102 120.701 408.829 117.928C407.556 120.769 404.284 122.769 401.261 123.428L400.465 121.905ZM418.079 129.178H399.579V127.632H407.897V122.7H409.761V127.632H418.079V129.178ZM420.554 114.996V113.496H425.622V111.201H427.486V113.496H432.576V114.996H420.554ZM436.304 118.155V123.246H434.44V111.405H436.304V116.587H439.326V118.155H436.304ZM431.44 119.519C431.44 121.701 429.463 123.087 426.554 123.087C423.645 123.087 421.69 121.701 421.69 119.519C421.69 117.36 423.645 115.973 426.554 115.973C429.463 115.973 431.44 117.36 431.44 119.519ZM423.463 119.519C423.463 120.882 424.645 121.678 426.554 121.678C428.463 121.678 429.667 120.882 429.667 119.519C429.667 118.155 428.463 117.36 426.554 117.36C424.645 117.36 423.463 118.155 423.463 119.519ZM436.304 124.155V131.518H423.486V124.155H425.327V126.314H434.463V124.155H436.304ZM425.327 127.769V130.018H434.463V127.769H425.327ZM450.597 118.814C446.12 118.814 443.438 117.587 443.438 115.292C443.438 112.996 446.12 111.746 450.597 111.746C455.074 111.746 457.756 112.996 457.756 115.292C457.756 117.587 455.074 118.814 450.597 118.814ZM450.597 113.155C447.211 113.155 445.347 113.928 445.347 115.292C445.347 116.655 447.211 117.428 450.597 117.428C453.983 117.428 455.847 116.655 455.847 115.292C455.847 113.928 453.983 113.155 450.597 113.155ZM459.824 121.701H441.37V120.201H459.824V121.701ZM458.074 130.109V131.564H443.665V126.678H455.619V124.86H443.597V123.45H457.46V128.041H445.483V130.109H458.074ZM469.836 118.337V112.178H483.427V113.678H471.7V116.837H483.631V118.337H469.836ZM477.541 123.496H483.449V128.064H471.473V130.109H484.063V131.541H469.654V126.7H481.609V124.905H469.586V123.496H475.677V121.473H467.359V119.973H485.813V121.473H477.541V123.496ZM505.061 131.814H503.197V120.769H499.311V119.246H503.197V111.383H505.061V131.814ZM490.879 125.36C494.356 125.36 496.834 125.246 499.765 124.7L499.947 126.246C496.879 126.791 494.288 126.905 490.607 126.905H489.038V118.928H496.288V114.814H488.993V113.292H498.106V120.428H490.879V125.36ZM532.754 129.178H514.278V127.655H522.55V123.269H516.459V112.86H518.3V116.496H528.709V112.86H530.527V123.269H524.436V127.655H532.754V129.178ZM528.709 121.769V118.019H518.3V121.769H528.709ZM552.502 131.791H550.729V111.405H552.502V131.791ZM548.343 111.86V130.791H546.593V120.269H543.23V118.723H546.593V111.86H548.343ZM541.23 117.155C541.23 120.428 542.775 123.882 545.434 125.519L544.366 126.973C542.434 125.791 541.071 123.632 540.343 121.155C539.616 123.905 538.139 126.155 536.116 127.428L534.957 126.019C537.752 124.382 539.434 120.746 539.434 117.223V113.337H541.23V117.155ZM574.591 129.178H556.068V127.632H560.614V122.132C558.886 121.246 557.886 119.769 557.886 117.928C557.886 114.769 560.977 112.701 565.295 112.701C569.636 112.701 572.704 114.769 572.704 117.928C572.704 119.769 571.75 121.223 570.023 122.11V127.632H574.591V129.178ZM565.295 114.155C562.023 114.155 559.682 115.655 559.682 117.928C559.682 120.201 562.023 121.701 565.295 121.701C568.568 121.701 570.932 120.201 570.932 117.928C570.932 115.655 568.568 114.155 565.295 114.155ZM568.159 127.632V122.837C567.182 123.041 566.227 123.155 565.295 123.155C564.295 123.155 563.364 123.041 562.477 122.837V127.632H568.159Z" fill="#948C9F"/>
<rect x="38.1853" y="190.277" width="584.399" height="717.512" rx="30.8433" fill="white" stroke="#FACB67" stroke-width="3.24666"/>
<path d="M104.377 245.308C102.591 247.094 100.035 248.149 97.1125 248.149C91.5932 248.149 87.2914 244.293 87.2914 239.017C87.2914 233.701 91.5932 229.846 97.1125 229.846C100.197 229.846 102.672 230.941 104.458 232.727H112.697V227.857H118.054V249.772H112.697V245.308H104.377ZM92.3643 239.017C92.3643 241.939 94.3529 243.644 97.1125 243.644C99.8722 243.644 101.901 241.939 101.901 239.017C101.901 236.096 99.8722 234.391 97.1125 234.391C94.3529 234.391 92.3643 236.096 92.3643 239.017ZM106.771 236.988C106.893 237.638 106.974 238.246 106.974 239.017C106.974 239.667 106.893 240.357 106.731 241.047H112.697V236.988H106.771ZM105.392 250.503C113.305 250.503 118.216 253.222 118.216 257.889C118.216 262.515 113.305 265.275 105.392 265.275C97.5184 265.275 92.6078 262.515 92.6078 257.889C92.6078 253.222 97.5184 250.503 105.392 250.503ZM105.392 261.135C110.302 261.135 112.94 260.161 112.94 257.889C112.94 255.616 110.302 254.642 105.392 254.642C100.481 254.642 97.8836 255.616 97.8836 257.889C97.8836 260.161 100.481 261.135 105.392 261.135ZM156.199 265.194H151.126V246.404H148.001V263.57H143.009V228.466H148.001V242.102H151.126V227.817H156.199V265.194ZM132.579 230.495C137.49 230.495 140.655 235.608 140.655 244.05C140.655 252.532 137.49 257.645 132.579 257.645C127.587 257.645 124.463 252.532 124.463 244.05C124.463 235.608 127.587 230.495 132.579 230.495ZM132.579 252.613C134.568 252.613 135.785 249.934 135.785 244.05C135.785 238.328 134.568 235.527 132.579 235.527C130.509 235.527 129.332 238.328 129.332 244.05C129.332 249.934 130.509 252.613 132.579 252.613ZM192.477 248.757H187.12V227.817H192.477V248.757ZM184.726 245.389C178.963 246.607 173.525 247.012 166.828 247.012H163.582V230.008H168.898V242.589C174.458 242.467 179.166 242.142 184.076 241.047L184.726 245.389ZM192.477 250.381V264.788H167.64V250.381H192.477ZM187.242 260.608V254.561H172.916V260.608H187.242ZM231.231 265.275H226.117V227.857H231.231V265.275ZM223.885 228.669V263.611H218.934V246.201H215.363C214.592 250.787 213.252 255.129 210.655 259.187L206.556 256.915C210.696 250.3 211.467 244.253 211.67 236.42H208.991V232.078H216.215C216.215 235.487 216.134 238.652 215.85 241.899H218.934V228.669H223.885ZM207.895 232.078C207.895 241.615 207.003 249.894 202.335 257.402L198.237 255.129C201.93 249.285 203.107 243.644 203.309 236.42H199.454V232.078H207.895ZM247.037 244.09C254.829 243.238 258.766 239.626 259.415 236.38H248.377V232.118H259.496V227.938H264.853V232.118H276.054V236.38H264.975C265.625 239.545 269.642 243.238 277.353 244.09L275.446 248.311C269.074 247.54 264.651 245.024 262.216 241.615C259.781 245.024 255.438 247.54 248.904 248.311L247.037 244.09ZM264.853 254.561V265.315H259.496V254.561H245.373V250.218H279.139V254.561H264.853ZM308.558 227.857H313.915V255.535H308.558V243.076H302.593V238.774H308.558V227.857ZM302.552 251.152C298.331 249.894 295.531 247.459 293.786 244.212C292.163 247.783 289.241 250.421 285.02 251.761L282.423 247.581C288.429 245.633 291.026 241.168 291.026 236.623V236.461H283.721V232.281H291.026V228.141H296.383V232.281H303.77V236.461H296.383V236.623C296.383 240.844 299.062 245.146 305.109 246.972L302.552 251.152ZM314.768 264.585H289.281V253.222H294.638V260.324H314.768V264.585ZM349.342 246.891V265.234H343.985V227.857H349.342V242.467H354.698V246.891H349.342ZM341.55 233.376V237.638H319.797V233.376H328.076V228.506H333.433V233.376H341.55ZM330.795 239.748C336.193 239.748 340.21 243.441 340.21 248.636C340.21 253.952 336.193 257.605 330.795 257.605C325.357 257.605 321.298 253.952 321.298 248.636C321.298 243.441 325.357 239.748 330.795 239.748ZM330.795 253.222C333.392 253.222 335.137 251.558 335.137 248.636C335.137 245.835 333.392 244.09 330.795 244.09C328.198 244.09 326.412 245.754 326.412 248.676C326.412 251.598 328.198 253.222 330.795 253.222ZM361.513 242.224V229.196H366.87V237.962H387.446V242.224H361.513ZM391.18 250.34H357.333V246.038H391.18V250.34ZM387.649 260.161V264.463H361.148V253.303H366.546V260.161H387.649ZM421.434 245.308C419.648 247.094 417.092 248.149 414.17 248.149C408.65 248.149 404.348 244.293 404.348 239.017C404.348 233.701 408.65 229.846 414.17 229.846C417.254 229.846 419.729 230.941 421.515 232.727H429.753V227.857H435.11V249.772H429.753V245.308H421.434ZM409.421 239.017C409.421 241.939 411.41 243.644 414.17 243.644C416.929 243.644 418.958 241.939 418.958 239.017C418.958 236.096 416.929 234.391 414.17 234.391C411.41 234.391 409.421 236.096 409.421 239.017ZM423.828 236.988C423.95 237.638 424.031 238.246 424.031 239.017C424.031 239.667 423.95 240.357 423.788 241.047H429.753V236.988H423.828ZM422.449 250.503C430.362 250.503 435.273 253.222 435.273 257.889C435.273 262.515 430.362 265.275 422.449 265.275C414.575 265.275 409.665 262.515 409.665 257.889C409.665 253.222 414.575 250.503 422.449 250.503ZM422.449 261.135C427.359 261.135 429.997 260.161 429.997 257.889C429.997 255.616 427.359 254.642 422.449 254.642C417.538 254.642 414.941 255.616 414.941 257.889C414.941 260.161 417.538 261.135 422.449 261.135ZM470.618 240.56H475.407V244.943H470.618V249.65H465.261V227.857H470.618V232.443H475.407V236.826H470.618V240.56ZM461.73 238.977C461.73 244.212 457.347 248.027 451.625 248.027C445.862 248.027 441.479 244.212 441.479 238.977C441.479 233.661 445.862 229.886 451.625 229.886C457.347 229.886 461.73 233.661 461.73 238.977ZM446.714 238.977C446.714 241.899 448.703 243.522 451.625 243.522C454.425 243.522 456.535 241.899 456.535 238.977C456.535 236.055 454.425 234.391 451.625 234.391C448.703 234.391 446.714 236.055 446.714 238.977ZM458.402 250.462C466.072 250.462 471.024 253.222 471.024 257.848C471.024 262.515 466.072 265.275 458.402 265.275C450.651 265.275 445.74 262.515 445.74 257.848C445.74 253.222 450.651 250.462 458.402 250.462ZM458.402 261.054C463.15 261.054 465.707 260.121 465.707 257.848C465.707 255.697 463.15 254.642 458.402 254.642C453.492 254.642 451.057 255.697 451.057 257.848C451.057 260.121 453.492 261.054 458.402 261.054ZM489.062 245.714C496.976 244.537 501.197 239.829 501.724 234.959H490.523V230.698H518.688V234.959H507.487C507.933 239.829 512.398 244.334 520.352 245.511L518.323 249.731C511.464 248.555 507.081 245.43 504.646 241.047C502.333 245.633 497.666 248.757 491.132 249.934L489.062 245.714ZM521.569 260.892H487.723V256.549H501.968V248.311H507.325V256.549H521.569V260.892ZM525.016 235.324V231.144H533.335V227.573H538.733V231.144H547.093L547.053 235.324H525.016ZM554.479 241.209V249.731H549.122V227.857H554.479V236.826H559.43V241.209H554.479ZM545.226 242.954C545.226 246.85 541.452 249.569 536.054 249.569C530.657 249.569 526.883 246.85 526.883 242.954C526.883 238.936 530.657 236.339 536.054 236.339C541.452 236.339 545.226 238.936 545.226 242.954ZM531.996 242.954C531.996 244.74 533.619 245.673 536.054 245.673C538.489 245.673 540.113 244.74 540.113 242.954C540.113 241.168 538.489 240.235 536.054 240.235C533.619 240.235 531.996 241.168 531.996 242.954ZM554.479 251.152V264.828H530.17V251.152H535.486V253.993H549.163V251.152H554.479ZM535.486 258.051V260.648H549.163V258.051H535.486ZM566.205 253.14L565.352 236.542L565.149 230.901H571.156L570.953 236.542L570.101 253.14H566.205ZM565.231 262.312V256.549H571.156V262.312H565.231Z" fill="#262D37"/>
<path d="M252.382 273.065H567.309" stroke="#FACB67" stroke-width="4.87" stroke-linecap="round"/>
</g>
</g>
<defs>
<filter id="filter0_d_3891_678" x="0.0810068" y="0.347656" width="668.304" height="343.042" filterUnits="userSpaceOnUse" color-interpolation-filters="sRGB">
<feFlood flood-opacity="0" result="BackgroundImageFix"/>
<feColorMatrix in="SourceAlpha" type="matrix" values="0 0 0 0 0 0 0 0 0 0 0 0 0 0 0 0 0 0 127 0" result="hardAlpha"/>
<feOffset dx="3.9312" dy="13.7592"/>
<feGaussianBlur stdDeviation="3.9312"/>
<feComposite in2="hardAlpha" operator="out"/>
<feColorMatrix type="matrix" values="0 0 0 0 0 0 0 0 0 0 0 0 0 0 0 0 0 0 0.1 0"/>
<feBlend mode="normal" in2="BackgroundImageFix" result="effect1_dropShadow_3891_678"/>
<feBlend mode="normal" in="SourceGraphic" in2="effect1_dropShadow_3891_678" result="shape"/>
</filter>
<filter id="filter1_d_3891_678" x="-65.2878" y="0.345703" width="817.411" height="5182.21" filterUnits="userSpaceOnUse" color-interpolation-filters="sRGB">
<feFlood flood-opacity="0" result="BackgroundImageFix"/>
<feColorMatrix in="SourceAlpha" type="matrix" values="0 0 0 0 0 0 0 0 0 0 0 0 0 0 0 0 0 0 127 0" result="hardAlpha"/>
<feOffset dx="19.4568" dy="97.2838"/>
<feGaussianBlur stdDeviation="3.89135"/>
<feComposite in2="hardAlpha" operator="out"/>
<feColorMatrix type="matrix" values="0 0 0 0 0 0 0 0 0 0 0 0 0 0 0 0 0 0 0.25 0"/>
<feBlend mode="normal" in2="BackgroundImageFix" result="effect1_dropShadow_3891_678"/>
<feBlend mode="normal" in="SourceGraphic" in2="effect1_dropShadow_3891_678" result="shape"/>
</filter>
<clipPath id="clip0_3891_678">
<rect x="4.01221" y="0.347656" width="652.579" height="321.42" rx="42" fill="white"/>
</clipPath>
</defs>
</svg>
