<svg xmlns="http://www.w3.org/2000/svg" width="1202" height="306" fill="none" viewBox="0 0 1202 306"><g filter="url(#a)"><g clip-path="url(#b)"><rect width="402" height="295" x="4" fill="#f9f9fb" rx="40"/><path fill="#262d37" d="M75.602 40.332H72.5v10.384h-2.266v-19.91H72.5v7.656h3.102zM60.18 43.94c3.168 0 5.654-.176 8.404-.638l.242 1.87c-2.992.528-5.698.66-9.284.66h-1.628V32.698h9.24v1.848H60.18zm26.156-12.694c4.334 0 7.084 1.43 7.084 3.806 0 2.354-2.75 3.806-7.084 3.806s-7.084-1.452-7.084-3.806c0-2.376 2.75-3.806 7.084-3.806m0 1.76c-3.014 0-4.752.726-4.752 2.046s1.738 2.024 4.752 2.024 4.73-.704 4.73-2.024-1.716-2.046-4.73-2.046m8.976 7.304v1.804H77.338V40.31zm-2.178 3.498v6.644h-13.64v-6.644zm-11.396 1.804v3.036h9.174v-3.036zm21.66-8.404c3.674-.352 6.248-1.958 6.534-3.696h-5.764v-1.826h14.674v1.826h-5.808c.286 1.738 2.86 3.344 6.534 3.696l-.792 1.782c-3.476-.352-6.226-1.848-7.282-3.85-1.078 2.046-3.74 3.476-7.282 3.85zm9.218 4.598v1.848c3.696.242 5.676 1.408 5.676 3.52 0 2.288-2.442 3.52-6.842 3.52-4.378 0-6.842-1.232-6.842-3.52 0-2.112 2.024-3.3 5.742-3.542v-1.826h-7.854v-1.804h17.974v1.804zm3.388 5.368c0-1.232-1.628-1.804-4.554-1.804s-4.532.572-4.532 1.804c0 1.144 1.606 1.782 4.532 1.782s4.554-.638 4.554-1.782m29.647-6.754v1.848h-17.952V40.42h7.832v-1.98h-5.61v-6.732h13.53v1.804h-11.286v3.102h11.418v1.826h-5.786v1.98zm-9.042 3.058c4.268 0 6.842 1.32 6.842 3.608 0 2.31-2.464 3.63-6.842 3.63-4.246 0-6.842-1.32-6.842-3.63 0-2.288 2.596-3.608 6.842-3.608m0 5.478c2.926 0 4.554-.638 4.554-1.87s-1.628-1.87-4.554-1.87-4.532.638-4.532 1.87 1.606 1.87 4.532 1.87m26.948-11.374h-13.376v-6.138h13.376zm-2.222-4.378h-8.91V35.8h8.91zm-3.322 7.568v1.65h5.61v4.73h-11.308v1.628h11.88v1.738h-14.124v-4.972h11.33v-1.408h-11.374v-1.716h5.698v-1.65h-7.832v-1.804h17.996v1.804zm26.486-9.966v19.932h-2.288V30.806zm-10.582 1.474c2.97 0 5.126 2.728 5.126 6.996 0 4.312-2.156 7.018-5.126 7.018-2.926 0-5.104-2.706-5.104-7.018 0-4.268 2.178-6.996 5.104-6.996m0 2.046c-1.76 0-2.926 1.848-2.926 4.95 0 3.19 1.166 4.994 2.926 4.994s2.948-1.804 2.948-4.994c0-3.102-1.188-4.95-2.948-4.95m37.874 6.138h-3.102v10.252h-2.266V30.828h2.266v7.766h3.102zm-13.2-8.184c2.97 0 5.104 2.728 5.104 7.018s-2.134 6.996-5.104 6.996-5.104-2.706-5.104-6.996 2.134-7.018 5.104-7.018m0 11.99c1.76 0 2.926-1.87 2.926-4.972s-1.166-4.972-2.926-4.972-2.926 1.87-2.926 4.972 1.166 4.972 2.926 4.972m31.327.99h-2.266V30.828h2.266zm-3.894-4.532c-3.256.638-6.204.88-9.636.88h-1.65v-9.306h2.266v7.436c3.08-.022 5.83-.242 8.756-.858zm4.466 7.744v1.848h-13.662v-6.622h2.266v4.774zm22.408-10.34h-3.916v-1.87h3.916v-5.434h2.266V44.16h-2.266zm-4.004-5.764c0 5.368-3.036 8.866-8.954 10.714l-.946-1.76c4.686-1.43 7.106-3.938 7.48-7.128h-6.512v-1.826zm.858 10.978c0 2.596 2.596 4.84 6.424 5.478l-.902 1.782c-3.102-.55-5.412-2.046-6.644-4.158-1.232 2.134-3.608 3.652-6.71 4.202l-.88-1.782c3.806-.638 6.446-2.904 6.446-5.522v-.77h2.266zm18.17-5.368c-4.576 0-7.084-1.21-7.084-3.41 0-2.222 2.508-3.432 7.084-3.432 4.554 0 7.084 1.21 7.084 3.432 0 2.2-2.53 3.41-7.084 3.41m0-5.148c-3.102 0-4.73.594-4.73 1.738 0 1.122 1.628 1.716 4.73 1.716s4.73-.594 4.73-1.716c0-1.144-1.628-1.738-4.73-1.738m8.998 6.314v1.804h-17.996v-1.804zm-13.574 9.636h11.88v1.738h-14.124v-4.994h11.33v-1.43h-11.374v-1.716h13.596v4.752h-11.308zM75.118 79.404v1.848H57.122v-1.848h7.832v-4.488h-5.83v-9.504h13.904v9.504H67.22v4.488zm-13.772-6.292h9.46v-5.896h-9.46zm31.832-.22H79.714V64.95h13.222v1.826h-10.89v4.29h11.132zm2.178 4.158h-7.942v6.6h-2.266v-6.6h-7.832v-1.87h18.04zm20.89-9.526h-11.858v-1.848h14.146v1.958c0 2.442 0 5.214-.77 9.328l-2.288-.242c.77-3.894.77-6.732.77-9.086zm4.224 11.704v1.87h-17.952v-1.87h6.688v-6.996h2.288v6.996zm15.905-12.122h-11.484v-1.848h13.728v6.292h-11.462v2.772h11.902v1.848h-14.124v-6.424h11.44zm4.378 12.342v1.87h-17.996v-1.87zm19.204-15.62v19.866h-2.156V63.828zm-6.204.374h2.134V82.77h-2.134V72.628h-2.926V70.78h2.926zm-4.664 4.928c0 3.234 1.21 6.534 3.872 8.25l-1.276 1.76c-1.848-1.122-2.992-3.036-3.674-5.258-.704 2.486-1.98 4.532-3.916 5.698l-1.386-1.716c2.816-1.694 4.18-5.236 4.18-8.624v-3.586h2.2zm32.14 10.274v1.848h-17.996v-1.848h4.202v-5.17c-1.584-.88-2.53-2.31-2.53-4.07 0-3.168 3.058-5.192 7.304-5.192 4.224 0 7.304 2.024 7.304 5.192 0 1.76-.946 3.168-2.53 4.07v5.17zm-9.02-12.65c-3.014 0-5.104 1.32-5.104 3.41 0 2.112 2.09 3.432 5.104 3.432 2.992 0 5.082-1.32 5.082-3.432 0-2.09-2.09-3.41-5.082-3.41m-2.508 12.65h5.016V75.07c-.77.198-1.628.286-2.508.286q-1.353 0-2.508-.264zm16.213 2.882h-2.596v-2.728h2.596z"/><rect width="140" height="40" x="56" y="131" fill="#ebe9f4" rx="20"/><path fill="#160766" d="M111.46 147.48c.06-.98.04-1.88.04-2.7h-10.58v-1.66h12.62v1.66c0 2.2.02 4.68-.78 8.52l-2.04-.24c.32-1.52.52-2.8.62-4l-10.66.58-.28-1.74zm3.88 8.1v1.7H99v-1.7h6.1v-4.54h2.08v4.54zm16.958-14.1v18.06h-2.06v-18.06zm-9.3 1.9c0 4.6-.84 8.7-4.06 12.12l-1.58-1.18c2.48-2.7 3.5-5.64 3.68-9.24h-2.94v-1.7zm5.04 0c0 4.68-.62 9.5-3.76 13.32l-1.68-1.12c2.52-3.1 3.34-6.62 3.5-10.5h-2.48v-1.7zm22.679-1.94v18.14h-2.08v-18.14zm-11.8 12.14c2.86-.02 5.36-.16 8.22-.62l.22 1.68c-3.1.54-5.8.64-8.98.64h-1.54v-7.16h6.3v-3.36h-6.34v-1.68h8.42v6.7h-6.3z"/><rect width="140" height="40" x="215" y="131" fill="#ebe9f4" rx="20"/><path fill="#160766" d="M282.42 141.48v18.06h-2.06v-18.06zm-5.32 1.9c0 5.38-2.16 9.94-8.36 12.94l-1.1-1.64c4.74-2.3 7-5.46 7.34-9.62h-6.44v-1.68zm23.698 11.42h-2.08v-13.3h2.08zm-3.7-3.04c-2.74.48-5.12.6-8.74.6h-1.52v-5.72h6.2v-2.26h-6.24v-1.66h8.26v5.48h-6.18v2.48c3.28 0 5.46-.1 8-.58zm4.18 5.76v1.68h-12.38v-5.46h2.06v3.78z"/><rect width="140" height="40" x="56" y="180" fill="#ebe9f4" rx="20"/><path fill="#160766" d="M125.32 199.46h-2.78v9.1h-2.08v-18.08h2.08v7.26h2.78zm-10.54-6.2H119v1.68h-10.58v-1.68h4.3v-2.52h2.06zm-1 2.96c2.56 0 4.48 1.74 4.48 4.22s-1.92 4.22-4.48 4.22c-2.62 0-4.48-1.74-4.48-4.22s1.86-4.22 4.48-4.22m0 6.74c1.46 0 2.52-1 2.52-2.52s-1.06-2.52-2.52-2.52-2.52 1-2.52 2.52 1.06 2.52 2.52 2.52m29.938-3.72h-2.82v9.32h-2.06v-18.08h2.06v7.06h2.82zm-16.18-7h8.46v11.8h-8.46zm2.04 10.16h4.38v-8.52h-4.38z"/><rect width="140" height="40" x="215" y="180" fill="#ebe9f4" rx="20"/><path fill="#160766" d="M276.08 199.2c-.86.98-2.08 1.58-3.6 1.56-2.68 0-4.72-1.92-4.72-4.58s2.04-4.58 4.72-4.58c1.52 0 2.74.6 3.6 1.56h4.34v-2.66h2.06v13.28h-2.06v-4.58zm-6.36-3.02c0 1.68 1.18 2.8 2.76 2.8 1.54 0 2.72-1.12 2.72-2.8 0-1.66-1.18-2.76-2.72-2.76-1.58 0-2.76 1.1-2.76 2.76m7.24-1.34c.14.34.2.8.2 1.34s-.06 1-.2 1.34h3.46v-2.68zm5.98 11.68v1.68h-12.16v-5.76h2.06v4.08zm17.898-6.72h-2.08v-9.34h2.08zm-3.54-1.18c-3.56.58-7.72.7-10.86.7l-.22-1.68c.66 0 1.38 0 2.12-.02v-4.36h-1.64v-1.64h9.7v1.64h-1.6v4.12q1.23-.09 2.4-.24zm-6.98-1.04c.8-.02 1.66-.02 2.48-.08v-4.24h-2.48zm11.12 9.18v1.62h-12.54v-4.7h9.9v-1.46h-9.92v-1.6h11.96v4.56h-9.88v1.58z"/><rect width="140" height="40" x="56" y="229" fill="#ebe9f4" rx="20"/><path fill="#160766" d="M125.18 243.94v1.7h-2.56v4.68h-2.06v-10.86h2.06v4.48zm-7.24 5.42c-1.94-.7-3.36-2.08-4.14-3.78-.8 2-2.28 3.5-4.36 4.28l-1.1-1.64c2.84-.96 4.38-3.42 4.38-6.04v-1.78h2.08v1.94c0 2.34 1.54 4.48 4.22 5.4zm-1.14 1.4c3.76 0 6.02 1.24 6.02 3.38s-2.26 3.4-6.02 3.4c-3.72 0-6.02-1.26-6.02-3.4s2.3-3.38 6.02-3.38m0 5.16c2.58 0 3.98-.58 3.98-1.78 0-1.12-1.4-1.76-3.98-1.76s-3.98.64-3.98 1.76c0 1.2 1.4 1.78 3.98 1.78m26.918-7.62h-2.82v9.24h-2.06v-18.06h2.06v7.12h2.82zm-10.48-3.58c0 2.78 1.78 6.02 4.52 7.3l-1.14 1.62c-2.02-.96-3.56-2.9-4.38-5.24-.8 2.52-2.38 4.68-4.48 5.7l-1.18-1.64c2.78-1.34 4.6-4.76 4.6-7.74v-1.74h-3.94v-1.7h9.82v1.7h-3.82z"/><rect width="140" height="40" x="215" y="229" fill="#ebe9f4" rx="20"/><path fill="#160766" d="M291.8 239.5v11.06h-1.96v-4.7h-1.86v4.6h-1.94V239.8h1.94v4.38h1.86v-4.68zm-7.28 10.26c-1.68-.64-2.8-1.76-3.46-3.28-.62 1.6-1.74 2.9-3.5 3.6l-.98-1.54c2.3-.9 3.46-2.9 3.46-5.06v-.14H277v-1.64h3.04v-2.04h1.98v2.04h2.96v1.64h-2.96v.14c0 2.24 1.38 3.96 3.44 4.74zm-4.96 1.68h12.24v6.12h-2.06v-4.46h-10.18z"/></g></g><g filter="url(#c)"><g clip-path="url(#d)"><rect width="402" height="295" x="436" fill="#f9f9fb" rx="40"/><path fill="#262d37" d="M507.118 46.904v1.848h-17.996v-1.848h7.832v-3.806c-3.63-.352-6.16-2.31-6.16-5.28 0-3.256 3.08-5.324 7.304-5.324 4.202 0 7.304 2.068 7.304 5.324 0 2.948-2.552 4.95-6.182 5.302v3.784zm-14.124-9.086c0 2.178 2.134 3.52 5.104 3.52 2.948 0 5.082-1.342 5.082-3.52s-2.134-3.52-5.082-3.52c-2.97 0-5.104 1.342-5.104 3.52m32.272-.286H511.67V31.57h2.244v4.136h11.352zm2.09 1.672v1.826h-18.018v-1.826zm-13.552 9.988h11.946v1.76h-14.212v-5.104h11.33v-1.562h-11.374v-1.738h13.64v4.928h-11.33zm32.141-17.886v19.91h-2.288v-19.91zm-9.944 1.408c3.102 0 5.412 1.958 5.412 4.774s-2.31 4.774-5.412 4.774-5.39-1.958-5.39-4.774 2.288-4.774 5.39-4.774m0 1.936c-1.848 0-3.168 1.078-3.168 2.838 0 1.716 1.342 2.838 3.168 2.838 1.848 0 3.19-1.122 3.19-2.838 0-1.738-1.342-2.838-3.19-2.838m-6.314 10.494c3.586 0 8.492-.022 12.782-.66l.154 1.65c-4.4.814-9.108.88-12.65.88zm43.396-9.9v1.87h-2.816v4.136h-2.266v-9.944h2.266v3.938zm-6.688 4.378c-3.344.638-6.226.836-9.152.836h-1.606v-8.272h2.266v6.402c2.574-.066 5.302-.22 8.228-.814zm-6.644 9.526h11.176v1.804h-13.442v-5.346h10.516v-1.672h-10.56V42.13h12.826v5.17h-10.516zm33.68-8.228h-2.486v10.296h-2.266V31.328h2.266v7.722h2.486zm-8.096-4.114c0 3.124.55 6.71 2.948 8.58l-1.408 1.628c-1.342-1.056-2.178-2.706-2.64-4.642-.506 1.958-1.298 3.696-2.794 4.818-1.43-1.122-2.288-2.86-2.75-4.818-.506 1.936-1.298 3.586-2.64 4.642l-1.408-1.628c2.398-1.87 2.948-5.566 2.948-8.58v-1.76h-2.266v-1.848h5.742v1.848h-1.342v1.76c0 2.266.264 5.258 1.738 7.37 1.43-2.134 1.694-4.994 1.694-7.37v-1.76h-1.32v-1.848h5.5v1.848h-2.002zm23.384-3.432h-11.242v-1.562h13.486v4.378h-11.22v1.408h11.572v1.584h-13.794v-4.466h11.198zm4.51 7.062v1.672h-18.018v-1.672zm-13.64 8.976h12.034v1.562h-14.278V46.42h11.44v-1.408h-11.484V43.45h13.728v4.444h-11.44zm39.129-14.102v1.87h-2.816v4.092h-2.266v-9.944h2.266v3.982zm-6.688 4.664c-2.706.594-5.082.704-9.262.704h-1.606v-8.25h8.844v1.804h-6.578v4.62c3.652 0 5.874-.132 8.338-.66zm-6.688 9.174h11.22v1.804H623.12V45.65h10.538V44h-10.582v-1.826h12.826v5.192h-10.56zm31.744-17.82V43.56h-2.266v-3.388h-3.564v-1.826h3.564v-2.332h-3.564v-1.826h3.564v-2.86zM651.19 42.35c-2.354.418-4.466.484-8.316.484h-1.452v-6.16h6.336v-2.376h-6.38v-1.826h8.624v5.94h-6.358v2.574c3.344 0 5.148-.11 7.304-.462zm-7.546 2.2h13.442v6.688h-2.266v-4.84h-11.176zm26.2-6.072c-4.576 0-7.084-1.21-7.084-3.41 0-2.222 2.508-3.432 7.084-3.432 4.554 0 7.084 1.21 7.084 3.432 0 2.2-2.53 3.41-7.084 3.41m0-5.148c-3.102 0-4.73.594-4.73 1.738 0 1.122 1.628 1.716 4.73 1.716s4.73-.594 4.73-1.716c0-1.144-1.628-1.738-4.73-1.738m8.998 6.314v1.804h-17.996v-1.804zm-13.574 9.636h11.88v1.738h-14.124v-4.994h11.33v-1.43H662.98v-1.716h13.596v4.752h-11.308zm-158.15 30.624v1.87h-17.996v-1.87h7.832V75.9h-5.808V65.648h2.244v3.344h9.416v-3.344h2.244V75.9h-5.83v4.004zm-13.728-5.83h9.416v-3.256h-9.416zm32.316-9.746v19.866h-2.288V64.328zm-9.02 5.742c0 3.322 2.046 6.71 5.148 8.052l-1.254 1.782c-2.31-1.034-4.07-3.168-5.016-5.742-.88 2.75-2.662 5.148-4.994 6.248l-1.298-1.804c3.08-1.386 5.126-5.17 5.126-8.536v-1.892h-4.422v-1.87h11.132v1.87h-4.422zm36.158-1.43v1.87h-2.816v3.652h-2.266v-9.834h2.266v4.312zm-7.656 1.364c0 2.706-2.222 4.62-5.214 4.62s-5.214-1.914-5.214-4.62 2.222-4.62 5.214-4.62 5.214 1.914 5.214 4.62m-8.228 0c0 1.65 1.32 2.75 3.014 2.75s3.014-1.1 3.014-2.75c0-1.672-1.276-2.772-3.014-2.772s-3.014 1.1-3.014 2.772m11 6.314h3.872v1.65h-9.966v-1.65h3.894V74.69h2.2zm-9.328 5.5c1.144-.066 2.354-.22 3.586-.638l.374 1.804c-1.848.616-3.52.704-5.126.704h-1.034v-7.48h2.2zm8.228-3.234c2.2 0 3.74 1.1 3.74 2.816s-1.54 2.816-3.74 2.816-3.762-1.1-3.762-2.816 1.562-2.816 3.762-2.816m0 4.048c.99 0 1.738-.462 1.738-1.232 0-.792-.748-1.232-1.738-1.232-1.034 0-1.76.44-1.76 1.232 0 .77.726 1.232 1.76 1.232m21.625-14.608h-11.858v-1.848h14.146v1.958c0 2.442 0 5.214-.77 9.328l-2.288-.242c.77-3.894.77-6.732.77-9.086zm4.224 11.704v1.87h-17.952v-1.87h6.688v-6.996h2.288v6.996zm23.574-15.4v10.67h-2.266v-10.67zm-10.714.902c3.036 0 5.258 1.892 5.258 4.62s-2.222 4.62-5.258 4.62c-3.058 0-5.28-1.892-5.28-4.62s2.222-4.62 5.28-4.62m0 1.87c-1.848 0-3.058 1.078-3.058 2.75s1.21 2.75 3.058 2.75c1.782 0 3.058-1.078 3.058-2.75s-1.276-2.75-3.058-2.75m-.022 8.822v2.2h8.492v-2.2h2.244v8.03h-12.98v-8.03zm0 6.204h8.492v-2.244h-8.492zm31.062-17.798V76.56h-2.266v-3.388h-3.564v-1.826h3.564v-2.332h-3.564v-1.826h3.564v-2.86zm-5.896 11.022c-2.354.418-4.466.484-8.316.484h-1.452v-6.16h6.336v-2.376h-6.38v-1.826h8.624v5.94h-6.358v2.574c3.344 0 5.148-.11 7.304-.462zm-7.546 2.2h13.442v6.688h-2.266v-4.84h-11.176zm34.143-13.222v19.866h-2.156v-9.768h-2.112v8.844h-2.112V64.746h2.112v7.81h2.112v-8.228zm-10.956 3.234h3.718v1.826h-9.724v-1.826h3.762V64.9h2.244zm-1.122 2.948c2.53 0 4.312 1.87 4.312 4.62 0 2.728-1.782 4.62-4.312 4.62s-4.312-1.892-4.312-4.62c0-2.75 1.782-4.62 4.312-4.62m0 7.348c1.342 0 2.288-1.056 2.288-2.728s-.946-2.75-2.288-2.75-2.288 1.078-2.288 2.75.946 2.728 2.288 2.728m33.394 2.046v1.87H640.63v-1.87h7.832V75.9h-5.808V65.648h2.244v3.344h9.416v-3.344h2.244V75.9h-5.83v4.004zm-13.728-5.83h9.416v-3.256h-9.416zm32.932-9.746v19.866h-2.156V64.328zm-6.204.374h2.134V83.27h-2.134V73.128H668.7V71.28h2.926zm-4.664 4.928c0 3.234 1.21 6.534 3.872 8.25l-1.276 1.76c-1.848-1.122-2.992-3.036-3.674-5.258-.704 2.486-1.98 4.532-3.916 5.698l-1.386-1.716c2.816-1.694 4.18-5.236 4.18-8.624v-3.586h2.2zm32.14 10.274v1.848h-17.996v-1.848h4.202v-5.17c-1.584-.88-2.53-2.31-2.53-4.07 0-3.168 3.058-5.192 7.304-5.192 4.224 0 7.304 2.024 7.304 5.192 0 1.76-.946 3.168-2.53 4.07v5.17zm-9.02-12.65c-3.014 0-5.104 1.32-5.104 3.41 0 2.112 2.09 3.432 5.104 3.432 2.992 0 5.082-1.32 5.082-3.432 0-2.09-2.09-3.41-5.082-3.41m-2.508 12.65h5.016V75.57c-.77.198-1.628.286-2.508.286q-1.353 0-2.508-.264zm17.269-1.936h-1.694l-.352-9.438-.066-2.596h2.552zm-2.134 4.818v-2.728h2.596v2.728z"/><rect width="92" height="36" x="488" y="131.5" fill="#ebe9f4" rx="18"/><path fill="#000" d="M600.312 145.314h-5.28v-1.804h5.28v-1.958h-5.28v-1.804h5.28v-2.42h2.266v14.674h-2.266zm-2.86 3.212c-3.058.528-5.72.682-8.668.682h-1.54v-10.516h2.266v8.646c2.574-.022 4.972-.154 7.722-.66zm5.632 6.446v1.848h-13.398v-6.116h2.266v4.268z"/><rect width="57" height="36" x="614" y="131.5" fill="#ebe9f4" rx="18"/><path fill="#000" d="M691.312 146.656v-9.328h2.266v11.594h-2.266v-.858h-3.74v-1.408zm-7.854-3.036c-2.992 0-4.95-1.144-4.95-2.97s1.958-2.97 4.95-2.97c2.948 0 4.928 1.144 4.928 2.97s-1.98 2.97-4.928 2.97m0-4.422c-1.76 0-2.816.506-2.816 1.452s1.056 1.452 2.816 1.452c1.694 0 2.794-.506 2.794-1.452s-1.1-1.452-2.794-1.452m-1.254 6.952c-1.76.066-3.366.066-4.862.066l-.264-1.628c3.828 0 8.602-.044 12.826-.462l.154 1.43a59 59 0 0 1-5.566.506v2.926h-2.288zm11.946 9.262v1.606h-14.102v-4.51h11.286v-1.32h-11.33v-1.562h13.574v4.334h-11.286v1.452z"/><rect width="57" height="36" x="705" y="131.5" fill="#ebe9f4" rx="18"/><path fill="#000" d="M784.49 147.404h-2.266v-10.098h2.266zm-5.566-4.95c0 2.618-2.222 4.466-5.236 4.466-2.97 0-5.192-1.848-5.192-4.466 0-2.64 2.222-4.488 5.192-4.488 3.014 0 5.236 1.848 5.236 4.488m-8.228 0c0 1.584 1.298 2.618 2.992 2.618 1.738 0 3.036-1.034 3.036-2.618s-1.298-2.618-3.036-2.618c-1.694 0-2.992 1.034-2.992 2.618m14.388 12.716v1.782H771.51v-5.214h10.736v-1.65h-10.78v-1.782h13.024v5.104h-10.758v1.76z"/><rect width="77" height="36" x="488" y="182.5" fill="#ebe9f4" rx="18"/><path fill="#000" d="M589.118 205.404v1.848h-17.996v-1.848h4.202v-5.17c-1.584-.88-2.53-2.31-2.53-4.07 0-3.168 3.058-5.192 7.304-5.192 4.224 0 7.304 2.024 7.304 5.192 0 1.76-.946 3.168-2.53 4.07v5.17zm-9.02-12.65c-3.014 0-5.104 1.32-5.104 3.41 0 2.112 2.09 3.432 5.104 3.432 2.992 0 5.082-1.32 5.082-3.432 0-2.09-2.09-3.41-5.082-3.41m-2.508 12.65h5.016v-4.334c-.77.198-1.628.286-2.508.286q-1.353 0-2.508-.264zm30.138-5.5h-2.266v-10.098h2.266zm-5.566-4.95c0 2.618-2.222 4.466-5.236 4.466-2.97 0-5.192-1.848-5.192-4.466 0-2.64 2.222-4.488 5.192-4.488 3.014 0 5.236 1.848 5.236 4.488m-8.228 0c0 1.584 1.298 2.618 2.992 2.618 1.738 0 3.036-1.034 3.036-2.618s-1.298-2.618-3.036-2.618c-1.694 0-2.992 1.034-2.992 2.618m14.388 12.716v1.782h-13.574v-5.214h10.736v-1.65h-10.78v-1.782h13.024v5.104H596.97v1.76z"/></g></g><g filter="url(#e)"><g clip-path="url(#f)"><rect width="402" height="295" x="868" fill="#f9f9fb" rx="40"/><path fill="#262d37" d="M939.602 41.03H936.5v10.164h-2.266V31.328h2.266v7.832h3.102zm-11.528-3.938c0 3.058 1.958 6.622 4.972 8.03l-1.254 1.782c-2.222-1.056-3.916-3.19-4.818-5.764-.88 2.772-2.618 5.148-4.928 6.27l-1.298-1.804c3.058-1.474 5.06-5.236 5.06-8.514v-1.914h-4.334v-1.87h10.802v1.87h-4.202zm29.654 8.778h-2.266V31.35h2.266zm-5.5-3.124c-2.288-.858-3.894-2.42-4.752-4.532-.902 2.222-2.508 4.026-4.884 4.906l-1.166-1.826c3.124-1.188 4.862-3.96 4.862-6.886v-1.98h2.31v1.98c0 2.816 1.738 5.478 4.796 6.534zm6.072 6.226v1.848h-13.552v-6.314h2.288v4.466zm19.645-17.666v19.932h-2.288V31.306zm-10.582 1.474c2.97 0 5.126 2.728 5.126 6.996 0 4.312-2.156 7.018-5.126 7.018-2.926 0-5.104-2.706-5.104-7.018 0-4.268 2.178-6.996 5.104-6.996m0 2.046c-1.76 0-2.926 1.848-2.926 4.95 0 3.19 1.166 4.994 2.926 4.994s2.948-1.804 2.948-4.994c0-3.102-1.188-4.95-2.948-4.95m31.956 8.074h-2.134V31.702h2.134v4.73h2.091V31.35h2.15v12.188h-2.15V38.28h-2.091zm-3.806-.77c-1.76-.682-2.97-2.002-3.74-3.586-.726 1.848-2.002 3.344-3.938 4.202l-1.188-1.738c2.662-1.232 4.004-3.696 4.004-5.962v-2.508h2.2v2.508c0 2.178 1.298 4.4 3.872 5.39zm1.43 1.782c4.137 0 6.727 1.364 6.727 3.652 0 2.266-2.59 3.63-6.727 3.63-4.136 0-6.732-1.364-6.732-3.63 0-2.288 2.596-3.652 6.732-3.652m0 5.544c2.838 0 4.467-.66 4.467-1.892s-1.629-1.914-4.467-1.914-4.466.682-4.466 1.914 1.628 1.892 4.466 1.892m21.737-15.18h-11.33v-1.562h4.53V31.13h2.29v1.584h4.51zm6.6 1.958v1.87h-2.73v4.906h-2.27V31.328h2.27v4.906zm-5.88 5.676c-4.22.77-8.86.792-12.34.792l-.24-1.606c1.5 0 3.21.022 5.06-.044V39.93c-2.29-.242-3.61-1.122-3.61-2.552 0-1.672 1.81-2.596 4.73-2.596 2.93 0 4.73.924 4.73 2.596 0 1.43-1.34 2.31-3.56 2.552v1.034c1.76-.088 3.45-.198 5.06-.44zm-8.99-4.532c0 .77 1.01 1.188 2.59 1.188 1.61 0 2.6-.418 2.6-1.188s-.99-1.166-2.6-1.166c-1.58 0-2.59.396-2.59 1.166m1.34 12.078h11.53v1.562h-13.78V46.64h10.81v-1.254h-10.85v-1.54h13.09v4.224h-10.8zm33.96-8.25h-3.05v10.01h-2.29V31.328h2.29v7.986h3.05zm-11.59-6.82h4.64v1.848h-11.64v-1.848h4.73v-2.772h2.27zm-1.1 3.256c2.82 0 4.93 1.914 4.93 4.642s-2.11 4.642-4.93 4.642c-2.88 0-4.93-1.914-4.93-4.642s2.05-4.642 4.93-4.642m0 7.414c1.61 0 2.77-1.1 2.77-2.772s-1.16-2.772-2.77-2.772-2.77 1.1-2.77 2.772 1.16 2.772 2.77 2.772m30.4-6.182h-13.64v-6.842h2.27v4.994h11.37zm2.07 2.376v1.826h-18.04V41.25zm-13.57 7.678h11.61v1.826h-13.88v-5.852h2.27zm33.71-9.922c.44-2.046.49-3.542.49-4.95h-11.4v-1.804h13.64v1.496c0 1.496.02 3.19-.48 5.478zm4.95 1.474v1.826h-17.93V40.48h7.04v-3.85h2.29v3.85zm-7.92 3.982c0 2.354 2.62 4.378 6.58 4.906l-.81 1.738c-3.19-.462-5.68-1.826-6.91-3.784-1.23 1.958-3.68 3.322-6.87 3.784l-.85-1.738c3.96-.528 6.57-2.552 6.57-4.906v-.77h2.29zm27.17-13.134v19.844h-2.16V31.328zm-6.14.374h2.11v18.546h-2.11v-9.526h-2.11c-.18 3.872-1.87 6.248-4.25 6.248-2.55 0-4.26-2.728-4.26-7.062 0-4.356 1.71-7.04 4.26-7.04 2.4 0 3.99 2.266 4.23 5.984h2.13zm-6.36 13.134c1.41 0 2.2-1.738 2.2-4.928s-.79-4.906-2.2-4.906c-1.4 0-2.2 1.716-2.2 4.906s.8 4.928 2.2 4.928M939.448 69.168v1.87h-2.816v5.148h-2.266V64.328h2.266v4.84zm-8.272 5.654h-9.372v-9.24h2.266v2.75h4.862v-2.75h2.244zm-2.244-4.708h-4.862v2.904h4.862zm1.298 6.534c4.092 0 6.622 1.43 6.622 3.784 0 2.376-2.53 3.784-6.622 3.784s-6.622-1.408-6.622-3.784c0-2.354 2.53-3.784 6.622-3.784m0 5.786c2.838 0 4.378-.682 4.378-2.002s-1.54-1.98-4.378-1.98-4.378.66-4.378 1.98 1.54 2.002 4.378 2.002m27.476-18.128v19.932h-2.288V64.306zm-10.582 1.474c2.97 0 5.126 2.728 5.126 6.996 0 4.312-2.156 7.018-5.126 7.018-2.926 0-5.104-2.706-5.104-7.018 0-4.268 2.178-6.996 5.104-6.996m0 2.046c-1.76 0-2.926 1.848-2.926 4.95 0 3.19 1.166 4.994 2.926 4.994s2.948-1.804 2.948-4.994c0-3.102-1.188-4.95-2.948-4.95m29.536 6.226h-9.284V65.45h9.284v1.518h4.026v-2.64h2.288v11.33h-2.288V72.49h-4.026zm-2.2-6.798h-4.84v5.016h4.84zm2.2 1.452v2.024h4.026v-2.024zm1.012 9.878c.11 1.628 2.706 3.432 6.402 3.85l-.726 1.694c-3.19-.374-5.61-1.672-6.842-3.366-1.232 1.76-3.718 2.992-6.908 3.366l-.748-1.694c3.74-.352 6.38-2.178 6.49-3.85h-5.698V76.89h5.698v-1.76h2.31v1.76h5.698v1.694zm30.898-14.256v19.866h-2.15V73.942h-2.27v9.328h-2.13V64.856h2.13v7.238h2.27v-7.766zm-8.36 2.508c0 5.28-1.757 9.966-7.323 13.2l-1.32-1.606c4.334-2.464 6.116-5.83 6.402-9.746h-5.566v-1.848zm32.99 8.8h-2.26V64.35h2.26zm-10.71-.836c-3.06 0-5.28-1.914-5.28-4.686s2.22-4.686 5.28-4.686c3.03 0 5.26 1.914 5.26 4.686s-2.23 4.686-5.26 4.686m0-7.502c-1.76 0-3.06 1.122-3.06 2.816 0 1.716 1.3 2.816 3.06 2.816s3.06-1.1 3.06-2.816c0-1.694-1.3-2.816-3.06-2.816m8.6 10.076c0 2.024 1.3 4.07 3.87 4.884l-1.12 1.672c-1.94-.682-3.21-1.958-3.89-3.564-.64 1.584-1.79 2.97-3.63 3.74-1.87-.726-3.04-2.09-3.66-3.696-.72 1.584-2 2.838-3.85 3.52l-1.1-1.672c2.56-.88 3.85-2.97 3.85-4.884v-.88h2.2v.88c0 1.672.75 3.432 2.51 4.554 1.76-1.166 2.6-3.08 2.6-4.554v-.88h2.22zm24.38-3.432h-3.02v10.252h-2.26V64.328h2.26v7.744h3.02zm-15.45 3.41c2.75-.022 5.55-.242 8.56-.858l.26 1.87c-3.36.682-6.42.88-9.43.88h-1.65v-12.98h2.26zm35.29 2.552v1.848h-18v-1.848h4.2v-5.17c-1.58-.88-2.53-2.31-2.53-4.07 0-3.168 3.06-5.192 7.31-5.192 4.22 0 7.3 2.024 7.3 5.192 0 1.76-.94 3.168-2.53 4.07v5.17zm-9.02-12.65c-3.02 0-5.11 1.32-5.11 3.41 0 2.112 2.09 3.432 5.11 3.432 2.99 0 5.08-1.32 5.08-3.432 0-2.09-2.09-3.41-5.08-3.41m-2.51 12.65h5.02V75.57c-.77.198-1.63.286-2.51.286-.9 0-1.74-.088-2.51-.264zm16.92-1.848c-.47-5.588 3.23-4.554 3.23-7.744 0-2.002-1.03-2.464-2.09-2.464-1.34 0-2.2.704-2.35 2.904h-2.18c.24-4.664 3.63-5.192 4.75-5.192 2.71 0 4.27 2.42 4.27 4.62 0 4.4-3.74 3.322-3.39 7.876zm2.37 2.002v2.728h-2.59v-2.728z"/><rect width="120" height="40" x="920" y="131.5" fill="#ebe9f4" rx="20"/><path fill="#000" d="M1063.02 140.828v19.866h-2.16v-10.252h-2.26v9.328h-2.14v-18.414h2.14v7.238h2.26v-7.766zm-8.36 2.508c0 5.28-1.76 9.966-7.33 13.2l-1.32-1.606c4.34-2.464 6.12-5.83 6.4-9.746h-5.56v-1.848z"/></g></g><defs><clipPath id="b"><rect width="402" height="295" x="4" fill="#fff" rx="40"/></clipPath><clipPath id="d"><rect width="402" height="295" x="436" fill="#fff" rx="40"/></clipPath><clipPath id="f"><rect width="402" height="295" x="868" fill="#fff" rx="40"/></clipPath><filter id="a" width="410" height="306" x="0" y="0" color-interpolation-filters="sRGB" filterUnits="userSpaceOnUse"><feFlood flood-opacity="0" result="BackgroundImageFix"/><feColorMatrix in="SourceAlpha" result="hardAlpha" values="0 0 0 0 0 0 0 0 0 0 0 0 0 0 0 0 0 0 127 0"/><feOffset dy="7"/><feGaussianBlur stdDeviation="2"/><feComposite in2="hardAlpha" operator="out"/><feColorMatrix values="0 0 0 0 0 0 0 0 0 0 0 0 0 0 0 0 0 0 0.1 0"/><feBlend in2="BackgroundImageFix" result="effect1_dropShadow_3891_292"/><feBlend in="SourceGraphic" in2="effect1_dropShadow_3891_292" result="shape"/></filter><filter id="c" width="410" height="306" x="432" y="0" color-interpolation-filters="sRGB" filterUnits="userSpaceOnUse"><feFlood flood-opacity="0" result="BackgroundImageFix"/><feColorMatrix in="SourceAlpha" result="hardAlpha" values="0 0 0 0 0 0 0 0 0 0 0 0 0 0 0 0 0 0 127 0"/><feOffset dy="7"/><feGaussianBlur stdDeviation="2"/><feComposite in2="hardAlpha" operator="out"/><feColorMatrix values="0 0 0 0 0 0 0 0 0 0 0 0 0 0 0 0 0 0 0.1 0"/><feBlend in2="BackgroundImageFix" result="effect1_dropShadow_3891_292"/><feBlend in="SourceGraphic" in2="effect1_dropShadow_3891_292" result="shape"/></filter><filter id="e" width="410" height="306" x="864" y="0" color-interpolation-filters="sRGB" filterUnits="userSpaceOnUse"><feFlood flood-opacity="0" result="BackgroundImageFix"/><feColorMatrix in="SourceAlpha" result="hardAlpha" values="0 0 0 0 0 0 0 0 0 0 0 0 0 0 0 0 0 0 127 0"/><feOffset dy="7"/><feGaussianBlur stdDeviation="2"/><feComposite in2="hardAlpha" operator="out"/><feColorMatrix values="0 0 0 0 0 0 0 0 0 0 0 0 0 0 0 0 0 0 0.1 0"/><feBlend in2="BackgroundImageFix" result="effect1_dropShadow_3891_292"/><feBlend in="SourceGraphic" in2="effect1_dropShadow_3891_292" result="shape"/></filter></defs></svg>