<svg width="669" height="344" viewBox="0 0 669 344" fill="none" xmlns="http://www.w3.org/2000/svg">
<g filter="url(#filter0_d_3891_555)">
<g clip-path="url(#clip0_3891_555)">
<rect x="4" y="0.34082" width="653.1" height="321.676" rx="42" fill="#6349EB"/>
<g filter="url(#filter1_d_3891_555)">
<path d="M-65.3003 5023.12C-65.3003 5055.39 -39.1462 5081.54 -6.88341 5081.54H667.085C699.347 5081.54 725.502 5055.39 725.502 5023.12V58.7607C725.502 26.498 699.347 0.344238 667.085 0.344238H-6.88348C-39.1462 0.344238 -65.3003 26.498 -65.3003 58.7607V5023.12Z" fill="white"/>
</g>
<path d="M84.7556 61.6828V57.4182H113.187V61.6828H108.11V72.8927H113.065V77.1574H84.9587V72.8927H89.8326V61.6828H84.7556ZM95.1532 61.6828V72.8927H102.789V61.6828H95.1532ZM115.989 87.2301H82.1156V82.8842H115.989V87.2301ZM150.59 91.6572H145.229V54.1283H150.59V91.6572ZM126.952 78.5383C132.638 78.5383 137.39 78.1728 142.63 77.3199L143.198 81.6657C137.025 82.7624 131.664 82.9654 124.84 82.9654H121.469V67.5721H133.613V61.6016H121.428V57.3369H139.096V71.7961H126.952V78.5383ZM187.832 91.6572H182.471V54.1689H187.832V91.6572ZM176.663 82.6811H158.67V57.54H176.663V82.6811ZM163.95 78.4571H171.382V61.764H163.95V78.4571ZM225.479 75.3703H220.118V67.3284H214.188C213.213 71.5118 209.314 74.3143 204.522 74.3143C198.957 74.3143 194.693 70.537 194.693 65.1758C194.693 59.9363 198.957 56.1185 204.522 56.1185C209.274 56.1185 213.173 58.9209 214.148 62.9825H220.118V54.1689H225.479V75.3703ZM204.522 69.8466C207.284 69.8466 209.274 68.1001 209.274 65.1758C209.274 62.2514 207.284 60.6674 204.522 60.6674C201.76 60.6674 199.81 62.2514 199.81 65.1758C199.81 68.1001 201.76 69.8466 204.522 69.8466ZM225.479 77.0355V91.1292H200.582V77.0355H225.479ZM220.24 86.9458V81.219H205.862V86.9458H220.24ZM272.045 75.0454H266.683V67.369H260.225V63.0231H266.683V54.2095H272.045V75.0454ZM260.022 56.3215C260.022 66.4348 254.214 72.8521 243.045 75.9389L240.933 71.7961C249.259 69.5216 253.483 65.6632 254.336 60.5862H242.964V56.3215H260.022ZM272.045 76.5888V91.1292H247.432V76.5888H272.045ZM266.765 86.9458V80.8128H252.712V86.9458H266.765ZM307.418 73.0146V91.576H302.056V54.1689H307.418V68.5469H312.86V73.0146H307.418ZM291.903 62.4951C291.903 69.2373 294.543 76.0608 300.554 78.9851L297.304 83.2091C293.405 81.219 290.806 77.726 289.222 73.1364C287.597 77.8885 284.795 81.8282 280.571 83.8996L277.362 79.5537C283.658 76.6294 286.501 69.4404 286.501 62.4951V57.0526H291.903V62.4951ZM355.851 91.5353H350.449V54.1283H355.851V91.5353ZM344.723 58.0274C344.723 69.4404 340.864 78.8632 327.583 85.2399L324.78 81.0159C334.325 76.4669 338.468 70.5777 339.239 62.2921H326.77V58.0274H344.723ZM396.464 69.1155H391.509V81.7063H386.147V54.1689H391.509V64.729H396.464V69.1155ZM363.159 75.8577V56.8496H368.439V62.1702H375.79V56.8496H381.07V75.8577H363.159ZM368.439 66.313V71.6337H375.79V66.313H368.439ZM392.849 86.6615V90.9261H367.383V78.9851H372.744V86.6615H392.849ZM410.333 70.4152C418.132 69.5623 422.071 65.9475 422.721 62.6982H411.674V58.4336H422.802V54.2501H428.164V58.4336H439.374V62.6982H428.286C428.935 65.8662 432.956 69.5623 440.673 70.4152L438.764 74.6392C432.388 73.8675 427.961 71.3493 425.524 67.9376C423.087 71.3493 418.741 73.8675 412.202 74.6392L410.333 70.4152ZM428.164 80.894V91.6572H422.802V80.894H408.668V76.5482H442.46V80.894H428.164ZM471.904 54.1689H477.265V81.8688H471.904V69.3998H465.933V65.0945H471.904V54.1689ZM465.892 77.4823C461.668 76.2232 458.866 73.7863 457.119 70.537C455.495 74.1112 452.571 76.7512 448.347 78.0916L445.747 73.9081C451.758 71.9586 454.358 67.4909 454.358 62.9419V62.7794H447.047V58.596H454.358V54.4532H459.719V58.596H467.111V62.7794H459.719V62.9419C459.719 67.1659 462.4 71.4712 468.451 73.2989L465.892 77.4823ZM478.118 90.9261H452.611V79.5537H457.972V86.6615H478.118V90.9261ZM523.627 76.4669H518.225V54.1689H523.627V76.4669ZM512.864 74.6798C508.64 73.3395 505.797 70.7401 504.132 67.3284C502.385 70.9432 499.42 73.8675 495.034 75.2891L492.394 71.065C498.648 69.1155 501.329 64.1604 501.329 59.449V55.8748H506.772V59.449C506.772 64.1604 509.412 68.6281 515.463 70.4558L512.864 74.6798ZM523.627 78.0916V91.6166H518.225V82.3968H498.12V78.0916H523.627ZM564.321 68.7499H559.366V81.219H554.004V54.1689H559.366V64.3635H564.321V68.7499ZM551.608 73.9081C547.059 74.8829 542.794 75.1266 534.468 75.1266H531.341V57.1339H548.075V61.3985H536.661V70.8213C543.322 70.8213 547.059 70.537 551.08 69.6841L551.608 73.9081ZM560.706 86.6615V90.9261H535.24V78.3759H540.601V86.6615H560.706ZM571.1 79.4725L570.247 62.8607L570.044 57.2151H576.056L575.852 62.8607L575 79.4725H571.1ZM570.126 88.6516V82.8842H576.056V88.6516H570.126Z" fill="#B6F973"/>
<path d="M88.211 115.022V113.52H103.336V115.022H100.175V122.118H103.291V123.642H88.2565V122.118H91.3725V115.022H88.211ZM93.2376 115.022V122.118H98.3097V115.022H93.2376ZM105.065 129.26H86.5733V127.713H105.065V129.26ZM124.237 131.898H122.372V111.451H124.237V131.898ZM110.545 125.416C113.888 125.416 116.913 125.234 120.461 124.688L120.643 126.212C116.936 126.826 113.888 126.963 110.363 126.963H108.679V119.138H116.185V114.885H108.611V113.361H118.073V120.662H110.545V125.416ZM145.115 131.921H143.25V111.473H145.115V131.921ZM138.974 126.735H129.603V113.475H138.974V126.735ZM131.422 125.257H137.154V114.976H131.422V125.257ZM166.152 123.21H164.264V118.16H160.102C159.738 120.64 157.714 122.277 154.916 122.277C151.891 122.277 149.662 120.321 149.662 117.433C149.662 114.612 151.891 112.656 154.916 112.656C157.623 112.656 159.715 114.248 160.079 116.614H164.264V111.496H166.152V123.21ZM154.916 120.708C156.918 120.708 158.373 119.366 158.373 117.433C158.373 115.545 156.918 114.226 154.916 114.226C152.892 114.226 151.436 115.545 151.436 117.433C151.436 119.366 152.892 120.708 154.916 120.708ZM166.152 124.256V131.603H152.892V124.256H166.152ZM164.332 130.101V125.734H154.711V130.101H164.332ZM192.662 131.853H190.888V111.451H192.662V131.853ZM188.545 111.974V130.829H186.794V120.731H183.837V119.207H186.794V111.974H188.545ZM177.901 125.439C180.744 125.439 182.586 125.348 184.702 124.916L184.861 126.439C182.564 126.917 180.63 126.963 177.423 126.963H176.104V113.907H183.701V115.431H177.901V119.434H182.746V120.913H177.901V125.439ZM213.017 123.278C209.924 122.55 206.717 120.389 205.443 117.387C204.169 120.367 200.94 122.55 197.892 123.278L197.05 121.731C200.598 121.003 204.465 117.978 204.465 114.476V112.906H206.421V114.476C206.421 117.933 210.288 121.072 213.859 121.731L213.017 123.278ZM214.768 129.146H196.277V127.599H214.768V129.146ZM219.566 123.983V113.248H233.372V114.749H221.454V117.774H232.917V119.252H221.454V122.482H233.577V123.983H219.566ZM235.692 129.237H217.178V127.713H235.692V129.237ZM253.104 115.886C251.831 119.093 248.783 121.276 244.211 122.345L243.529 120.822C248.601 119.662 251.353 117.296 251.694 113.998H244.598V112.474H253.718C253.718 113.134 253.65 113.793 253.514 114.43H258.131V111.473H260.019V121.891H258.131V119.775H252.809V118.32H258.131V115.886H253.104ZM260.701 131.671H246.918V126.417H258.154V124.324H246.872V122.823H260.019V127.827H248.76V130.192H260.701V131.671ZM279.782 121.572V131.875H277.917V111.473H279.782V120.003H283.035V121.572H279.782ZM272.913 122.732C273.482 119.343 273.527 116.864 273.527 115.226H265.043V113.702H275.347V114.817C275.347 116.455 275.347 119.07 274.778 122.914L272.913 122.732ZM270.093 125.757C272.367 125.666 274.574 125.552 276.666 125.28L276.78 126.644C272.549 127.304 267.773 127.418 264.134 127.418L263.929 125.871C265.225 125.871 266.704 125.871 268.25 125.803V119.525H270.093V125.757ZM303.571 129.351H285.034V127.827H293.336V123.983H287.354V117.683H299.455V114.498H287.309V112.975H301.274V119.184H289.197V122.482H301.752V123.983H295.224V127.827H303.571V129.351ZM312.227 120.753C315.934 120.276 319.346 118.024 319.346 115.499H312.864V113.998H319.369V111.496H321.234V113.998H327.739V115.499H321.234C321.234 118.001 324.668 120.276 328.33 120.753L327.671 122.254C324.532 121.777 321.598 120.207 320.301 118.001C319.005 120.207 316.071 121.777 312.909 122.254L312.227 120.753ZM321.234 125.325V131.898H319.369V125.325H311.09V123.801H329.536V125.325H321.234ZM346.911 111.496H348.799V126.712H346.911V119.298H342.794V117.751H346.911V111.496ZM343.135 123.847C340.77 123.051 338.973 121.481 338.04 119.389C337.153 121.663 335.357 123.369 332.968 124.211L332.036 122.755C335.061 121.731 337.085 119.184 337.085 116.341V115.704H332.559V114.203H337.085V111.61H338.95V114.203H343.454V115.704H338.95V116.341C338.95 119.07 341.043 121.39 344.045 122.368L343.135 123.847ZM349.367 131.421H335.743V125.348H337.631V129.897H349.367V131.421ZM368.63 121.436V131.875H366.765V111.496H368.63V119.866H371.974V121.436H368.63ZM364.832 114.749V116.25H352.8V114.749H357.94V111.724H359.805V114.749H364.832ZM358.896 117.933C361.807 117.933 363.877 119.912 363.877 122.641C363.877 125.439 361.807 127.327 358.896 127.327C356.03 127.327 353.96 125.439 353.96 122.641C353.96 119.912 356.03 117.933 358.896 117.933ZM358.896 125.78C360.783 125.78 362.103 124.461 362.103 122.641C362.103 120.822 360.783 119.48 358.896 119.48C357.053 119.48 355.711 120.822 355.711 122.641C355.711 124.461 357.053 125.78 358.896 125.78ZM376.316 119.138V112.224H378.182V117.615H390.191V119.138H376.316ZM392.306 123.369H373.815V121.868H392.306V123.369ZM390.304 129.851V131.375H376.18V125.416H378.045V129.851H390.304ZM400.734 121.982C404.26 121.367 408.126 118.57 408.126 115.295V114.862H401.371V113.339H416.815V114.862H410.06V115.295C410.06 118.547 413.949 121.367 417.497 121.913L416.747 123.414C413.653 122.8 410.378 120.776 409.104 118.001C407.831 120.844 404.555 122.846 401.53 123.505L400.734 121.982ZM418.361 129.26H399.847V127.713H408.172V122.778H410.037V127.713H418.361V129.26ZM420.839 115.067V113.566H425.911V111.269H427.776V113.566H432.871V115.067H420.839ZM436.601 118.229V123.323H434.736V111.473H436.601V116.659H439.626V118.229H436.601ZM431.734 119.593C431.734 121.777 429.755 123.164 426.843 123.164C423.932 123.164 421.976 121.777 421.976 119.593C421.976 117.433 423.932 116.045 426.843 116.045C429.755 116.045 431.734 117.433 431.734 119.593ZM423.75 119.593C423.75 120.958 424.933 121.754 426.843 121.754C428.754 121.754 429.959 120.958 429.959 119.593C429.959 118.229 428.754 117.433 426.843 117.433C424.933 117.433 423.75 118.229 423.75 119.593ZM436.601 124.233V131.603H423.773V124.233H425.615V126.394H434.759V124.233H436.601ZM425.615 127.85V130.101H434.759V127.85H425.615ZM450.906 118.888C446.425 118.888 443.741 117.66 443.741 115.363C443.741 113.066 446.425 111.815 450.906 111.815C455.386 111.815 458.07 113.066 458.07 115.363C458.07 117.66 455.386 118.888 450.906 118.888ZM450.906 113.225C447.517 113.225 445.652 113.998 445.652 115.363C445.652 116.727 447.517 117.501 450.906 117.501C454.295 117.501 456.16 116.727 456.16 115.363C456.16 113.998 454.295 113.225 450.906 113.225ZM460.14 121.777H441.671V120.276H460.14V121.777ZM458.389 130.192V131.648H443.968V126.758H455.932V124.938H443.9V123.528H457.774V128.123H445.788V130.192H458.389ZM470.16 118.411V112.247H483.762V113.748H472.025V116.909H483.966V118.411H470.16ZM477.871 123.574H483.784V128.145H471.798V130.192H484.398V131.625H469.978V126.781H481.942V124.984H469.91V123.574H476.006V121.549H467.681V120.048H486.15V121.549H477.871V123.574ZM505.413 131.898H503.548V120.844H499.659V119.32H503.548V111.451H505.413V131.898ZM491.22 125.439C494.7 125.439 497.179 125.325 500.113 124.779L500.295 126.326C497.225 126.872 494.632 126.985 490.947 126.985H489.378V119.002H496.633V114.885H489.332V113.361H498.453V120.503H491.22V125.439ZM533.129 129.26H514.637V127.736H522.916V123.346H516.821V112.929H518.663V116.568H529.08V112.929H530.9V123.346H524.804V127.736H533.129V129.26ZM529.08 121.845V118.092H518.663V121.845H529.08ZM552.892 131.875H551.118V111.473H552.892V131.875ZM548.73 111.928V130.875H546.978V120.344H543.612V118.797H546.978V111.928H548.73ZM541.611 117.228C541.611 120.503 543.157 123.96 545.818 125.598L544.749 127.054C542.816 125.871 541.451 123.71 540.724 121.231C539.996 123.983 538.517 126.235 536.493 127.508L535.333 126.098C538.131 124.461 539.814 120.822 539.814 117.296V113.407H541.611V117.228ZM574.998 129.26H556.461V127.713H561.01V122.209C559.282 121.322 558.281 119.844 558.281 118.001C558.281 114.84 561.374 112.77 565.696 112.77C570.04 112.77 573.11 114.84 573.11 118.001C573.11 119.844 572.155 121.299 570.427 122.186V127.713H574.998V129.26ZM565.696 114.226C562.42 114.226 560.078 115.727 560.078 118.001C560.078 120.276 562.42 121.777 565.696 121.777C568.971 121.777 571.336 120.276 571.336 118.001C571.336 115.727 568.971 114.226 565.696 114.226ZM568.561 127.713V122.914C567.583 123.119 566.628 123.232 565.696 123.232C564.695 123.232 563.762 123.119 562.875 122.914V127.713H568.561Z" fill="#948C9F"/>
<rect x="38.1744" y="190.425" width="584.866" height="718.085" rx="30.8679" fill="white" stroke="#B6F973" stroke-width="3.24925"/>
<path d="M104.184 245.468C102.397 247.255 99.838 248.311 96.9137 248.311C91.39 248.311 87.0847 244.452 87.0847 239.172C87.0847 233.852 91.39 229.993 96.9137 229.993C100 229.993 102.478 231.09 104.265 232.877H112.51V228.003H117.871V249.935H112.51V245.468H104.184ZM92.1617 239.172C92.1617 242.097 94.1518 243.802 96.9137 243.802C99.6756 243.802 101.706 242.097 101.706 239.172C101.706 236.248 99.6756 234.542 96.9137 234.542C94.1518 234.542 92.1617 236.248 92.1617 239.172ZM106.58 237.141C106.702 237.791 106.783 238.401 106.783 239.172C106.783 239.822 106.702 240.513 106.54 241.203H112.51V237.141H106.58ZM105.199 250.666C113.119 250.666 118.034 253.388 118.034 258.059C118.034 262.689 113.119 265.451 105.199 265.451C97.3199 265.451 92.4054 262.689 92.4054 258.059C92.4054 253.388 97.3199 250.666 105.199 250.666ZM105.199 261.308C110.114 261.308 112.754 260.333 112.754 258.059C112.754 255.784 110.114 254.809 105.199 254.809C100.285 254.809 97.6854 255.784 97.6854 258.059C97.6854 260.333 100.285 261.308 105.199 261.308ZM156.047 265.369H150.97V246.564H147.843V263.745H142.847V228.612H147.843V242.259H150.97V227.962H156.047V265.369ZM132.409 230.643C137.323 230.643 140.491 235.76 140.491 244.209C140.491 252.697 137.323 257.815 132.409 257.815C127.413 257.815 124.285 252.697 124.285 244.209C124.285 235.76 127.413 230.643 132.409 230.643ZM132.409 252.778C134.399 252.778 135.617 250.098 135.617 244.209C135.617 238.482 134.399 235.679 132.409 235.679C130.337 235.679 129.159 238.482 129.159 244.209C129.159 250.098 130.337 252.778 132.409 252.778ZM192.354 248.92H186.993V227.962H192.354V248.92ZM184.597 245.549C178.829 246.767 173.387 247.174 166.685 247.174H163.436V230.156H168.756V242.746C174.321 242.625 179.032 242.3 183.947 241.203L184.597 245.549ZM192.354 250.545V264.963H167.497V250.545H192.354ZM187.115 260.78V254.728H172.777V260.78H187.115ZM231.139 265.451H226.021V228.003H231.139V265.451ZM223.788 228.815V263.785H218.832V246.361H215.258C214.487 250.951 213.146 255.297 210.547 259.358L206.445 257.084C210.587 250.463 211.359 244.412 211.562 236.573H208.882V232.227H216.111C216.111 235.639 216.03 238.807 215.746 242.056H218.832V228.815H223.788ZM207.785 232.227C207.785 241.772 206.891 250.057 202.221 257.571L198.118 255.297C201.814 249.448 202.992 243.802 203.195 236.573H199.337V232.227H207.785ZM246.958 244.249C254.756 243.396 258.696 239.781 259.346 236.532H248.298V232.268H259.427V228.084H264.788V232.268H275.998V236.532H264.91C265.56 239.7 269.581 243.396 277.298 244.249L275.389 248.473C269.012 247.702 264.585 245.183 262.148 241.772C259.711 245.183 255.366 247.702 248.826 248.473L246.958 244.249ZM264.788 254.728V265.491H259.427V254.728H245.293V250.382H279.085V254.728H264.788ZM308.528 228.003H313.89V255.703H308.528V243.234H302.558V238.929H308.528V228.003ZM302.517 251.316C298.293 250.057 295.491 247.62 293.744 244.371C292.12 247.945 289.195 250.585 284.971 251.926L282.372 247.742C288.383 245.793 290.982 241.325 290.982 236.776V236.613H283.672V232.43H290.982V228.287H296.344V232.43H303.736V236.613H296.344V236.776C296.344 241 299.024 245.305 305.076 247.133L302.517 251.316ZM314.743 264.76H289.236V253.388H294.597V260.495H314.743V264.76ZM349.344 247.052V265.41H343.983V228.003H349.344V242.625H354.705V247.052H349.344ZM341.546 233.527V237.791H319.776V233.527H328.061V228.653H333.423V233.527H341.546ZM330.783 239.903C336.184 239.903 340.205 243.599 340.205 248.798C340.205 254.119 336.184 257.774 330.783 257.774C325.34 257.774 321.279 254.119 321.279 248.798C321.279 243.599 325.34 239.903 330.783 239.903ZM330.783 253.388C333.382 253.388 335.128 251.722 335.128 248.798C335.128 245.996 333.382 244.249 330.783 244.249C328.183 244.249 326.396 245.914 326.396 248.839C326.396 251.763 328.183 253.388 330.783 253.388ZM361.525 242.381V229.343H366.887V238.116H387.479V242.381H361.525ZM391.216 250.504H357.342V246.199H391.216V250.504ZM387.682 260.333V264.638H361.16V253.469H366.562V260.333H387.682ZM434.978 250.301H429.576V228.003H434.978V250.301ZM424.215 248.514C419.991 247.174 417.148 244.574 415.483 241.162C413.736 244.777 410.771 247.702 406.385 249.123L403.745 244.899C410 242.949 412.68 237.994 412.68 233.283V229.709H418.123V233.283C418.123 237.994 420.763 242.462 426.815 244.29L424.215 248.514ZM434.978 251.926V265.451H429.576V256.231H409.472V251.926H434.978ZM475.672 242.584H470.717V255.053H465.356V228.003H470.717V238.197H475.672V242.584ZM462.959 247.742C458.41 248.717 454.146 248.961 445.82 248.961H442.692V230.968H459.426V235.232H448.013V244.655C454.674 244.655 458.41 244.371 462.431 243.518L462.959 247.742ZM472.057 260.495V264.76H446.591V252.21H451.953V260.495H472.057ZM489.176 245.874C497.096 244.696 501.32 239.985 501.848 235.111H490.638V230.846H518.826V235.111H507.616C508.062 239.985 512.53 244.493 520.491 245.671L518.46 249.895C511.596 248.717 507.209 245.589 504.773 241.203C502.457 245.793 497.787 248.92 491.247 250.098L489.176 245.874ZM521.709 261.064H487.836V256.718H502.092V248.473H507.453V256.718H521.709V261.064ZM525.158 235.476V231.293H533.485V227.719H538.887V231.293H547.253L547.213 235.476H525.158ZM554.645 241.365V249.895H549.284V228.003H554.645V236.979H559.601V241.365H554.645ZM545.385 243.112C545.385 247.011 541.608 249.732 536.206 249.732C530.804 249.732 527.027 247.011 527.027 243.112C527.027 239.091 530.804 236.492 536.206 236.492C541.608 236.492 545.385 239.091 545.385 243.112ZM532.144 243.112C532.144 244.899 533.769 245.833 536.206 245.833C538.643 245.833 540.267 244.899 540.267 243.112C540.267 241.325 538.643 240.391 536.206 240.391C533.769 240.391 532.144 241.325 532.144 243.112ZM554.645 251.316V265.004H530.317V251.316H535.637V254.159H549.325V251.316H554.645ZM535.637 258.221V260.82H549.325V258.221H535.637ZM566.38 253.306L565.527 236.695L565.324 231.049H571.335L571.132 236.695L570.279 253.306H566.38ZM565.405 262.486V256.718H571.335V262.486H565.405Z" fill="#262D37"/>
<path d="M252.568 273.28H567.745" stroke="#B6F973" stroke-width="4.87388" stroke-linecap="round"/>
</g>
</g>
<defs>
<filter id="filter0_d_3891_555" x="0.0656624" y="0.34082" width="668.837" height="343.315" filterUnits="userSpaceOnUse" color-interpolation-filters="sRGB">
<feFlood flood-opacity="0" result="BackgroundImageFix"/>
<feColorMatrix in="SourceAlpha" type="matrix" values="0 0 0 0 0 0 0 0 0 0 0 0 0 0 0 0 0 0 127 0" result="hardAlpha"/>
<feOffset dx="3.93434" dy="13.7702"/>
<feGaussianBlur stdDeviation="3.93434"/>
<feComposite in2="hardAlpha" operator="out"/>
<feColorMatrix type="matrix" values="0 0 0 0 0 0 0 0 0 0 0 0 0 0 0 0 0 0 0.1 0"/>
<feBlend mode="normal" in2="BackgroundImageFix" result="effect1_dropShadow_3891_555"/>
<feBlend mode="normal" in="SourceGraphic" in2="effect1_dropShadow_3891_555" result="shape"/>
</filter>
<filter id="filter1_d_3891_555" x="-65.3003" y="0.34375" width="818.063" height="5186.35" filterUnits="userSpaceOnUse" color-interpolation-filters="sRGB">
<feFlood flood-opacity="0" result="BackgroundImageFix"/>
<feColorMatrix in="SourceAlpha" type="matrix" values="0 0 0 0 0 0 0 0 0 0 0 0 0 0 0 0 0 0 127 0" result="hardAlpha"/>
<feOffset dx="19.4723" dy="97.3615"/>
<feGaussianBlur stdDeviation="3.89446"/>
<feComposite in2="hardAlpha" operator="out"/>
<feColorMatrix type="matrix" values="0 0 0 0 0 0 0 0 0 0 0 0 0 0 0 0 0 0 0.25 0"/>
<feBlend mode="normal" in2="BackgroundImageFix" result="effect1_dropShadow_3891_555"/>
<feBlend mode="normal" in="SourceGraphic" in2="effect1_dropShadow_3891_555" result="shape"/>
</filter>
<clipPath id="clip0_3891_555">
<rect x="4" y="0.34082" width="653.1" height="321.676" rx="42" fill="white"/>
</clipPath>
</defs>
</svg>
