<svg xmlns="http://www.w3.org/2000/svg" width="669" height="344" fill="none" viewBox="0 0 669 344"><g filter="url(#a)"><g clip-path="url(#b)"><rect width="653.1" height="321.676" x="4" y=".341" fill="#6349eb" rx="42"/><g filter="url(#c)"><path fill="#fff" d="M-65.3 5023.12c0 32.26 26.154 58.42 58.417 58.42h673.968c32.263 0 58.417-26.16 58.417-58.42V58.757c0-32.263-26.154-58.417-58.417-58.417H-6.883C-39.146.34-65.3 26.494-65.3 58.757z"/></g><path fill="#67b3ff" d="M84.756 61.68v-4.264h28.431v4.265h-5.077v11.21h4.955v4.264H84.959v-4.264h4.874V61.68zm10.398 0v11.21h7.635V61.68zm20.836 25.548H82.116v-4.346h33.874zm34.601 4.427h-5.361V54.126h5.361zm-23.638-13.119c5.686 0 10.438-.365 15.677-1.218l.569 4.346c-6.174 1.096-11.535 1.3-18.358 1.3h-3.372V67.57h12.145V61.6h-12.185v-4.265h17.668v14.46h-12.144zm60.879 13.12h-5.361V54.166h5.361zm-11.169-8.977H158.67V57.54h17.993zm-12.713-4.224h7.433V61.762h-7.433zm61.53-3.087h-5.361v-8.042h-5.93c-.975 4.184-4.874 6.986-9.667 6.986-5.564 0-9.829-3.777-9.829-9.138 0-5.24 4.265-9.058 9.829-9.058 4.752 0 8.651 2.803 9.626 6.865h5.971v-8.814h5.361zm-20.958-5.523c2.762 0 4.752-1.747 4.752-4.671s-1.99-4.509-4.752-4.509-4.711 1.584-4.711 4.509c0 2.924 1.949 4.67 4.711 4.67m20.958 7.189v14.093h-24.898V77.034zm-5.24 9.91v-5.727h-14.377v5.727zm51.805-11.9h-5.361v-7.677h-6.458v-4.346h6.458v-8.813h5.361zM260.023 56.32c0 10.113-5.808 16.53-16.977 19.617l-2.112-4.143c8.326-2.274 12.55-6.133 13.403-11.21h-11.373V56.32zm12.022 20.267v14.54h-24.613v-14.54zm-5.28 10.357V80.81h-14.053v6.133zm40.653-13.931v18.561h-5.361V54.167h5.361v14.378h5.443v4.468zm-15.515-10.52c0 6.742 2.64 13.566 8.651 16.49l-3.249 4.224c-3.899-1.99-6.499-5.483-8.083-10.072-1.624 4.751-4.427 8.691-8.651 10.763l-3.208-4.346c6.295-2.925 9.138-10.114 9.138-17.059v-5.442h5.402zm63.949 29.04h-5.402V54.126h5.402zm-11.129-33.507c0 11.413-3.858 20.835-17.14 27.212l-2.802-4.224c9.544-4.549 13.687-10.438 14.459-18.724h-12.469v-4.264zm51.741 11.087h-4.955v12.591h-5.361V54.167h5.361v10.56h4.955zm-33.305 6.743V56.848h5.28v5.32h7.352v-5.32h5.28v19.008zm5.28-9.545v5.32h7.352v-5.32zM392.85 86.66v4.265h-25.467v-11.94h5.362v7.676zm17.484-16.246c7.798-.853 11.738-4.468 12.388-7.717h-11.048v-4.264h11.129v-4.184h5.361v4.184h11.21v4.264h-11.088c.65 3.168 4.671 6.864 12.388 7.717l-1.909 4.224c-6.377-.771-10.804-3.29-13.241-6.701-2.437 3.411-6.783 5.93-13.322 6.701zm17.83 10.48v10.762h-5.361V80.892h-14.134v-4.346h33.792v4.346zm43.74-26.726h5.361v27.7h-5.361v-12.47h-5.97v-4.304h5.97zm-6.011 23.313c-4.224-1.259-7.027-3.696-8.773-6.945-1.625 3.574-4.549 6.214-8.773 7.555l-2.599-4.184c6.011-1.95 8.61-6.417 8.61-10.966v-.162h-7.311v-4.184h7.311v-4.143h5.361v4.143h7.392v4.184h-7.392v.162c0 4.224 2.681 8.53 8.733 10.357zm12.225 13.444h-25.506V79.552h5.361v7.107h20.145zm31.335-20.551c-8.002 0-13.444-3.006-13.444-7.758 0-4.711 5.442-7.758 13.444-7.758 8.123 0 13.443 3.047 13.443 7.758 0 4.752-5.32 7.758-13.443 7.758m0-11.25c-4.752 0-7.636 1.177-7.636 3.492s2.884 3.493 7.636 3.493 7.676-1.178 7.676-3.493-2.924-3.493-7.676-3.493m16.977 17.464h-13.891v6.417h-5.483v-6.417h-14.499v-4.265h33.873zm-3.696 10.072v4.265h-26.238v-11.21h5.443v6.945zm41.059-10.64H529.96v-4.265h14.216v-3.087h-10.113V55.75h25.669v4.265h-20.349v4.386h20.552v4.265h-10.398v3.087h14.256zm-17.058 1.827c8.082 0 12.997 2.477 12.997 6.905 0 4.386-4.915 6.864-12.997 6.864s-12.957-2.478-12.957-6.864c0-4.428 4.874-6.905 12.957-6.905m0 9.707c5.077 0 7.554-.853 7.554-2.802 0-1.91-2.518-2.844-7.554-2.844s-7.555.935-7.555 2.844c0 1.95 2.478 2.802 7.555 2.802m24.366-8.082-.853-16.612-.203-5.646h6.011l-.203 5.646L575 79.47zm-.975 9.179v-5.768h5.93v5.768z"/><path fill="#948c9f" d="M88.212 115.02v-1.501h15.125v1.501h-3.162v7.096h3.116v1.524H88.257v-1.524h3.116v-7.096zm5.026 0v7.096h5.072v-7.096zm11.827 14.238H86.574v-1.547h18.491zm19.172 2.638h-1.865v-20.447h1.865zm-13.692-6.482c3.344 0 6.369-.182 9.917-.728l.182 1.524c-3.708.614-6.755.751-10.281.751h-1.683v-7.825h7.506v-4.253h-7.574v-1.524h9.462v7.301h-7.529zm34.57 6.505h-1.865v-20.448h1.865zm-6.141-5.186h-9.371v-13.26h9.371zm-7.551-1.478h5.732v-10.281h-5.732zm34.729-2.047h-1.887v-5.05h-4.163c-.364 2.48-2.388 4.117-5.185 4.117-3.025 0-5.254-1.956-5.254-4.844 0-2.821 2.229-4.777 5.254-4.777 2.706 0 4.799 1.592 5.163 3.958h4.185v-5.118h1.887zm-11.235-2.502c2.001 0 3.457-1.342 3.457-3.275 0-1.888-1.456-3.207-3.457-3.207-2.025 0-3.48 1.319-3.48 3.207 0 1.933 1.455 3.275 3.48 3.275m11.235 3.548v7.347h-13.26v-7.347zm-1.819 5.845v-4.367h-9.621v4.367zm28.33 1.752h-1.774v-20.402h1.774zm-4.117-19.879v18.855h-1.751v-10.098h-2.957v-1.524h2.957v-7.233zm-10.645 13.465c2.843 0 4.686-.091 6.801-.523l.159 1.524c-2.297.477-4.23.523-7.437.523h-1.319v-13.056h7.596v1.524h-5.8v4.003h4.845v1.479h-4.845zm35.117-2.161c-3.094-.728-6.301-2.889-7.574-5.891-1.274 2.98-4.504 5.163-7.552 5.891l-.841-1.547c3.548-.727 7.415-3.753 7.415-7.255v-1.57h1.956v1.57c0 3.457 3.866 6.596 7.437 7.255zm1.751 5.868h-18.492v-1.546h18.492zm4.797-5.163v-10.735h13.806v1.501h-11.918v3.025h11.463v1.478h-11.463v3.23h12.123v1.501zm16.126 5.254h-18.514v-1.524h18.514zm17.413-13.351c-1.274 3.207-4.322 5.39-8.894 6.459l-.682-1.523c5.072-1.16 7.824-3.526 8.166-6.824h-7.097v-1.524h9.121c0 .66-.068 1.319-.205 1.956h4.617v-2.957h1.888v10.418h-1.888v-2.116h-5.322v-1.455h5.322v-2.434zm7.596 15.785h-13.783v-5.254h11.236v-2.093h-11.281v-1.501h13.146v5.004H248.76v2.365h11.941zm19.082-10.099v10.304h-1.866v-20.403h1.866v8.53h3.252v1.569zm-6.869 1.16a43.3 43.3 0 0 0 .614-7.506h-8.484V113.7h10.303v1.115c0 1.638 0 4.253-.568 8.097zm-2.821 3.025c2.275-.091 4.481-.205 6.574-.477l.113 1.364c-4.23.66-9.007.774-12.646.774l-.205-1.547c1.297 0 2.775 0 4.322-.068v-6.278h1.842zm33.479 3.594h-18.537v-1.524h8.302v-3.844h-5.982v-6.3h12.1v-3.184h-12.146v-1.524h13.966v6.209h-12.078v3.298h12.555v1.501h-6.528v3.844h8.348zm8.655-8.598c3.708-.477 7.12-2.729 7.12-5.254h-6.483v-1.501h6.505v-2.502h1.865v2.502h6.505v1.501h-6.505c0 2.502 3.435 4.777 7.097 5.254l-.66 1.502c-3.139-.478-6.073-2.048-7.369-4.254-1.297 2.206-4.231 3.776-7.392 4.254zm9.007 4.572v6.573h-1.865v-6.573h-8.279v-1.524h18.446v1.524zm25.677-13.829h1.888v15.216h-1.888v-7.414h-4.116v-1.547h4.116zm-3.775 12.351c-2.366-.796-4.162-2.366-5.095-4.458-.887 2.274-2.684 3.98-5.072 4.822l-.933-1.456c3.025-1.024 5.05-3.571 5.05-6.414v-.637h-4.527v-1.501h4.527v-2.593h1.865v2.593h4.503v1.501h-4.503v.637c0 2.729 2.092 5.049 5.095 6.027zm6.232 7.574h-13.624v-6.073h1.888v4.549h11.736zm19.263-9.985v10.44h-1.865v-20.38h1.865v8.37h3.343v1.57zm-3.798-6.687v1.501h-12.032v-1.501h5.14v-3.025h1.865v3.025zm-5.937 3.184c2.911 0 4.981 1.979 4.981 4.708 0 2.798-2.07 4.686-4.981 4.686-2.866 0-4.935-1.888-4.935-4.686 0-2.729 2.069-4.708 4.935-4.708m0 7.847c1.888 0 3.207-1.319 3.207-3.139s-1.319-3.161-3.207-3.161c-1.842 0-3.184 1.342-3.184 3.161 0 1.82 1.342 3.139 3.184 3.139m17.421-6.642v-6.914h1.865v5.391h12.009v1.523zm15.989 4.231h-18.491v-1.501h18.491zm-2.001 6.482v1.524H376.18v-5.959h1.866v4.435zm10.43-7.869c3.525-.615 7.392-3.412 7.392-6.687v-.433h-6.755v-1.523h15.443v1.523h-6.755v.433c0 3.252 3.889 6.072 7.438 6.618l-.751 1.501c-3.093-.614-6.369-2.638-7.642-5.413-1.274 2.843-4.549 4.845-7.574 5.504zm17.627 7.278h-18.514v-1.547h8.324v-4.935h1.865v4.935h8.325zm2.477-14.193v-1.501h5.072v-2.297h1.865v2.297h5.095v1.501zm15.762 3.162v5.095h-1.865v-11.851h1.865v5.186h3.025v1.57zm-4.867 1.364c0 2.184-1.979 3.571-4.89 3.571s-4.868-1.387-4.868-3.571c0-2.16 1.957-3.548 4.868-3.548s4.89 1.388 4.89 3.548m-7.983 0c0 1.365 1.182 2.161 3.093 2.161 1.91 0 3.116-.796 3.116-2.161s-1.206-2.16-3.116-2.16-3.093.796-3.093 2.16m12.85 4.64v7.37h-12.828v-7.37h1.843v2.161h9.143v-2.161zm-10.985 3.617v2.251h9.143v-2.251zm25.29-8.962c-4.481 0-7.165-1.228-7.165-3.525s2.684-3.548 7.165-3.548 7.165 1.251 7.165 3.548-2.684 3.525-7.165 3.525m0-5.663c-3.389 0-5.254.773-5.254 2.138s1.865 2.138 5.254 2.138 5.254-.773 5.254-2.138-1.865-2.138-5.254-2.138m9.234 8.552h-18.468v-1.501h18.468zm-1.751 8.415v1.456h-14.42v-4.89h11.964v-1.82h-12.032v-1.41h13.874v4.595h-11.987v2.069zm11.772-11.781v-6.164h13.601v1.501h-11.736v3.161h11.941v1.502zm7.71 5.163h5.914v4.571h-11.987v2.047h12.601v1.433h-14.42v-4.844h11.964v-1.797h-12.032v-1.41h6.095v-2.025h-8.324v-1.501h18.468v1.501h-8.279zm27.542 8.324h-1.865v-11.054h-3.889v-1.524h3.889v-7.869h1.865zm-14.192-6.459c3.48 0 5.959-.114 8.893-.66l.182 1.547c-3.071.546-5.664.659-9.348.659h-1.57V119h7.256v-4.117h-7.301v-1.524h9.121v7.142h-7.233zm41.908 3.821h-18.491v-1.524h8.279v-4.39h-6.096v-10.417h1.842v3.639h10.418v-3.639h1.819v10.417h-6.095v4.39h8.324zm-4.048-7.415v-3.753h-10.418v3.753zm23.812 10.031h-1.775v-20.403h1.775zm-4.163-19.948v18.947h-1.751v-10.531h-3.366v-1.547h3.366v-6.869zm-7.119 5.3c0 3.275 1.547 6.732 4.208 8.37l-1.069 1.456c-1.933-1.183-3.298-3.344-4.026-5.823-.728 2.752-2.206 5.004-4.23 6.278l-1.16-1.411c2.797-1.637 4.48-5.276 4.48-8.802v-3.889h1.797zm33.388 12.032h-18.537v-1.547h4.549v-5.504c-1.729-.887-2.73-2.365-2.73-4.208 0-3.161 3.094-5.231 7.415-5.231 4.344 0 7.415 2.07 7.415 5.231 0 1.843-.955 3.298-2.684 4.185v5.527h4.572zm-9.303-15.034c-3.275 0-5.618 1.501-5.618 3.775s2.343 3.776 5.618 3.776 5.641-1.501 5.641-3.776-2.366-3.775-5.641-3.775m2.866 13.487v-4.799c-.978.205-1.933.319-2.866.319-1.001 0-1.933-.114-2.82-.319v4.799z"/><rect width="584.866" height="718.085" x="38.175" y="190.421" fill="#fff" stroke="#67b3ff" stroke-width="3.249" rx="30.868"/><path fill="#262d37" d="M104.184 245.466c-1.787 1.787-4.346 2.843-7.27 2.843-5.523 0-9.829-3.859-9.829-9.139 0-5.32 4.306-9.179 9.83-9.179 3.086 0 5.564 1.097 7.351 2.884h8.245v-4.874h5.361v21.932h-5.361v-4.467zm-12.022-6.296c0 2.925 1.99 4.63 4.752 4.63s4.793-1.705 4.793-4.63-2.03-4.63-4.793-4.63c-2.762 0-4.752 1.706-4.752 4.63m14.419-2.031c.122.65.203 1.26.203 2.031 0 .65-.081 1.341-.244 2.031h5.971v-4.062zm-1.381 13.525c7.92 0 12.834 2.722 12.834 7.393 0 4.63-4.914 7.392-12.834 7.392-7.88 0-12.794-2.762-12.794-7.392 0-4.671 4.914-7.393 12.794-7.393m0 10.642c4.914 0 7.554-.975 7.554-3.249s-2.64-3.25-7.554-3.25c-4.915 0-7.514.975-7.514 3.25s2.599 3.249 7.514 3.249m50.847 4.061h-5.077v-18.805h-3.127v17.181h-4.996V228.61h4.996v13.647h3.127V227.96h5.077zm-23.638-34.726c4.915 0 8.083 5.118 8.083 13.566 0 8.488-3.168 13.606-8.083 13.606-4.996 0-8.123-5.118-8.123-13.606 0-8.448 3.127-13.566 8.123-13.566m0 22.136c1.99 0 3.209-2.681 3.209-8.57 0-5.727-1.219-8.53-3.209-8.53-2.071 0-3.249 2.803-3.249 8.53 0 5.889 1.178 8.57 3.249 8.57m59.946-3.859h-5.362V227.96h5.362zm-7.758-3.371c-5.767 1.218-11.21 1.625-17.911 1.625h-3.25v-17.018h5.321v12.59c5.564-.121 10.276-.446 15.19-1.543zm7.758 4.996v14.418h-24.857v-14.418zm-5.24 10.235v-6.052h-14.337v6.052zm44.024 4.671h-5.117v-37.448h5.117zm-7.351-36.636v34.97h-4.955v-17.424h-3.574c-.772 4.59-2.112 8.936-4.712 12.997l-4.102-2.274c4.143-6.621 4.915-12.672 5.118-20.511h-2.681v-4.346h7.23c0 3.412-.082 6.58-.366 9.829h3.087v-13.241zm-16.003 3.412c0 9.545-.893 17.83-5.564 25.344l-4.102-2.274c3.696-5.849 4.874-11.495 5.077-18.724h-3.859v-4.346zm39.174 12.022c7.798-.853 11.738-4.468 12.387-7.717h-11.047v-4.264h11.129v-4.184h5.361v4.184h11.21v4.264h-11.088c.65 3.168 4.671 6.864 12.388 7.717l-1.909 4.224c-6.377-.771-10.804-3.29-13.241-6.701-2.437 3.411-6.783 5.93-13.322 6.701zm17.83 10.479v10.763h-5.361v-10.763h-14.135v-4.346h33.793v4.346zm43.74-26.725h5.361v27.7h-5.361v-12.469h-5.971v-4.305h5.971zm-6.011 23.313c-4.224-1.259-7.027-3.696-8.773-6.945-1.625 3.574-4.549 6.214-8.773 7.555l-2.6-4.184c6.011-1.949 8.611-6.417 8.611-10.966v-.163h-7.311v-4.183h7.311v-4.143h5.361v4.143h7.392v4.183h-7.392v.163c0 4.224 2.681 8.529 8.733 10.357zm12.225 13.444h-25.507v-11.372h5.362v7.107h20.145zm34.601-17.708v18.358h-5.361v-37.407h5.361v14.622h5.362v4.427zm-7.798-13.525v4.264h-21.77v-4.264h8.286v-4.874h5.361v4.874zm-10.763 6.376c5.402 0 9.423 3.696 9.423 8.895 0 5.321-4.021 8.976-9.423 8.976-5.442 0-9.504-3.655-9.504-8.976 0-5.199 4.062-8.895 9.504-8.895m0 13.485c2.599 0 4.346-1.665 4.346-4.59 0-2.802-1.747-4.549-4.346-4.549s-4.386 1.665-4.386 4.59 1.787 4.549 4.386 4.549m30.743-11.007v-13.038h5.361v8.773h20.592v4.265zm29.69 8.123h-33.873v-4.305h33.873zm-3.534 9.829v4.305H361.16v-11.169h5.402v6.864zm33.122-16.124c-8.001 0-13.444-3.006-13.444-7.758 0-4.711 5.443-7.758 13.444-7.758 8.123 0 13.444 3.047 13.444 7.758 0 4.752-5.321 7.758-13.444 7.758m0-11.251c-4.752 0-7.636 1.178-7.636 3.493s2.884 3.493 7.636 3.493 7.676-1.178 7.676-3.493-2.924-3.493-7.676-3.493m16.977 17.465h-13.89v6.417h-5.483v-6.417h-14.5v-4.265h33.873zm-3.696 10.072v4.265h-26.237v-11.21h5.442v6.945zm41.06-10.641h-33.833v-4.264h14.215v-3.087h-10.113v-12.916h25.669v4.265h-20.348v4.386h20.551v4.265h-10.398v3.087h14.257zm-17.059 1.828c8.082 0 12.997 2.477 12.997 6.905 0 4.386-4.915 6.864-12.997 6.864s-12.956-2.478-12.956-6.864c0-4.428 4.873-6.905 12.956-6.905m0 9.707c5.077 0 7.554-.853 7.554-2.802 0-1.909-2.518-2.844-7.554-2.844s-7.555.935-7.555 2.844c0 1.949 2.478 2.802 7.555 2.802m33.649-27.984v-4.224h26.076v11.169h-20.552v3.087h21.445v4.224h-26.928v-11.332h20.592v-2.924zm15.637 21.282v10.804h-5.361v-10.804h-14.175v-4.305h33.874v4.305zm43.497.935v-27.619h5.402v27.619zm-2.6-6.174c-5.32.853-9.91.934-17.83.934h-3.209v-19.536h17.993v4.265h-12.672v3.371h11.575v4.143h-11.575v3.533c6.417 0 10.601-.122 15.231-.893zm8.936 15.312h-25.832v-11.494h5.361v7.229h20.471zm9.176-11.453-.853-16.612-.203-5.646h6.011l-.203 5.646-.853 16.612zm-.975 9.179v-5.768h5.93v5.768z"/><path stroke="#67b3ff" stroke-linecap="round" stroke-width="4.874" d="M252.568 273.277h315.178"/></g></g><defs><filter id="a" width="668.837" height="343.315" x=".066" y=".341" color-interpolation-filters="sRGB" filterUnits="userSpaceOnUse"><feFlood flood-opacity="0" result="BackgroundImageFix"/><feColorMatrix in="SourceAlpha" result="hardAlpha" values="0 0 0 0 0 0 0 0 0 0 0 0 0 0 0 0 0 0 127 0"/><feOffset dx="3.934" dy="13.77"/><feGaussianBlur stdDeviation="3.934"/><feComposite in2="hardAlpha" operator="out"/><feColorMatrix values="0 0 0 0 0 0 0 0 0 0 0 0 0 0 0 0 0 0 0.1 0"/><feBlend in2="BackgroundImageFix" result="effect1_dropShadow_3891_441"/><feBlend in="SourceGraphic" in2="effect1_dropShadow_3891_441" result="shape"/></filter><filter id="c" width="818.063" height="5186.35" x="-65.3" y=".34" color-interpolation-filters="sRGB" filterUnits="userSpaceOnUse"><feFlood flood-opacity="0" result="BackgroundImageFix"/><feColorMatrix in="SourceAlpha" result="hardAlpha" values="0 0 0 0 0 0 0 0 0 0 0 0 0 0 0 0 0 0 127 0"/><feOffset dx="19.472" dy="97.362"/><feGaussianBlur stdDeviation="3.894"/><feComposite in2="hardAlpha" operator="out"/><feColorMatrix values="0 0 0 0 0 0 0 0 0 0 0 0 0 0 0 0 0 0 0.25 0"/><feBlend in2="BackgroundImageFix" result="effect1_dropShadow_3891_441"/><feBlend in="SourceGraphic" in2="effect1_dropShadow_3891_441" result="shape"/></filter><clipPath id="b"><rect width="653.1" height="321.676" x="4" y=".341" fill="#fff" rx="42"/></clipPath></defs></svg>