<svg xmlns="http://www.w3.org/2000/svg" width="669" height="344" fill="none" viewBox="0 0 669 344"><g filter="url(#a)"><g clip-path="url(#b)"><rect width="653.1" height="321.676" x="4" y=".341" fill="#6349eb" rx="42"/><g filter="url(#c)"><path fill="#fff" d="M-65.3 5023.12c0 32.27 26.154 58.42 58.417 58.42h673.968c32.262 0 58.417-26.15 58.417-58.42V58.76c0-32.262-26.155-58.416-58.417-58.416H-6.883C-39.146.344-65.3 26.498-65.3 58.761z"/></g><path fill="#b6f973" d="M84.756 61.683v-4.265h28.431v4.265h-5.077v11.21h4.955v4.264H84.959v-4.264h4.874v-11.21zm10.397 0v11.21h7.636v-11.21zM115.99 87.23H82.116v-4.346h33.873zm34.601 4.427h-5.361V54.128h5.361zm-23.638-13.119c5.686 0 10.438-.365 15.678-1.218l.568 4.346c-6.173 1.096-11.534 1.3-18.358 1.3h-3.371V67.571h12.144v-5.97h-12.185v-4.265h17.668v14.46h-12.144zm60.88 13.12h-5.361v-37.49h5.361zm-11.169-8.977H158.67V57.54h17.993zm-12.713-4.224h7.432V61.764h-7.432zm61.529-3.087h-5.361v-8.042h-5.93c-.975 4.184-4.874 6.986-9.666 6.986-5.565 0-9.829-3.777-9.829-9.138 0-5.24 4.264-9.058 9.829-9.058 4.752 0 8.651 2.803 9.626 6.865h5.97v-8.814h5.361zm-20.957-5.523c2.762 0 4.752-1.747 4.752-4.671s-1.99-4.509-4.752-4.509-4.712 1.584-4.712 4.509c0 2.924 1.95 4.67 4.712 4.67m20.957 7.189v14.093h-24.897V77.035zm-5.239 9.91v-5.727h-14.378v5.727zm51.805-11.9h-5.362v-7.677h-6.458v-4.346h6.458V54.21h5.362zM260.022 56.32c0 10.114-5.808 16.531-16.977 19.618l-2.112-4.143c8.326-2.274 12.55-6.133 13.403-11.21h-11.372v-4.264zm12.023 20.268v14.54h-24.613V76.59zm-5.28 10.357v-6.133h-14.053v6.133zm40.653-13.931v18.561h-5.362V54.169h5.362v14.378h5.442v4.468zm-15.515-10.52c0 6.742 2.64 13.566 8.651 16.49l-3.25 4.224c-3.899-1.99-6.498-5.483-8.082-10.073-1.625 4.752-4.427 8.692-8.651 10.764l-3.209-4.346c6.296-2.925 9.139-10.114 9.139-17.059v-5.442h5.402zm63.948 29.04h-5.402V54.128h5.402zm-11.128-33.508c0 11.413-3.859 20.836-17.14 27.213l-2.803-4.224c9.545-4.55 13.688-10.438 14.459-18.724H326.77v-4.265zm51.741 11.088h-4.955v12.591h-5.362V54.17h5.362v10.56h4.955zm-33.305 6.743V56.85h5.28v5.32h7.351v-5.32h5.28v19.008zm5.28-9.545v5.32h7.351v-5.32zm24.41 20.349v4.264h-25.466v-11.94h5.361v7.676zm17.484-16.247c7.799-.853 11.738-4.468 12.388-7.717h-11.047v-4.264h11.128V54.25h5.362v4.184h11.21v4.264h-11.088c.649 3.168 4.67 6.864 12.387 7.717l-1.909 4.224c-6.376-.771-10.803-3.29-13.24-6.701-2.437 3.411-6.783 5.93-13.322 6.701zm17.831 10.479v10.763h-5.362V80.894h-14.134v-4.346h33.792v4.346zm43.74-26.725h5.361v27.7h-5.361v-12.47h-5.971v-4.305h5.971zm-6.012 23.313c-4.224-1.259-7.026-3.696-8.773-6.945-1.624 3.574-4.548 6.214-8.772 7.555l-2.6-4.184c6.011-1.95 8.611-6.417 8.611-10.966v-.163h-7.311v-4.183h7.311v-4.143h5.361v4.143h7.392v4.183h-7.392v.163c0 4.224 2.681 8.53 8.732 10.357zm12.226 13.444h-25.507V79.554h5.361v7.108h20.146zm45.509-14.46h-5.402V54.17h5.402zm-10.763-1.786c-4.224-1.34-7.067-3.94-8.732-7.352-1.747 3.615-4.712 6.54-9.098 7.961l-2.64-4.224c6.254-1.95 8.935-6.905 8.935-11.616v-3.574h5.443v3.574c0 4.711 2.64 9.18 8.691 11.007zm10.763 3.412v13.525h-5.402v-9.22H498.12v-4.305zm40.694-9.342h-4.955v12.469h-5.362v-27.05h5.362v10.195h4.955zm-12.713 5.158c-4.549.975-8.814 1.219-17.14 1.219h-3.127V57.134h16.734v4.264h-11.414v9.423c6.661 0 10.398-.284 14.419-1.137zm9.098 12.754v4.264H535.24v-12.55h5.361v8.285zm10.394-7.19-.853-16.611-.203-5.646h6.012l-.204 5.646L575 79.473zm-.974 9.18v-5.768h5.93v5.768z"/><path fill="#948c9f" d="M88.211 115.022v-1.502h15.125v1.502h-3.161v7.096h3.116v1.524H88.257v-1.524h3.115v-7.096zm5.027 0v7.096h5.072v-7.096zm11.827 14.238H86.573v-1.547h18.492zm19.172 2.638h-1.865v-20.447h1.865zm-13.692-6.482c3.343 0 6.368-.182 9.916-.728l.182 1.524c-3.707.614-6.755.751-10.28.751h-1.684v-7.825h7.506v-4.253h-7.574v-1.524h9.462v7.301h-7.528zm34.57 6.505h-1.865v-20.448h1.865zm-6.141-5.186h-9.371v-13.26h9.371zm-7.552-1.478h5.732v-10.281h-5.732zm34.73-2.047h-1.888v-5.05h-4.162c-.364 2.48-2.388 4.117-5.186 4.117-3.025 0-5.254-1.956-5.254-4.844 0-2.821 2.229-4.777 5.254-4.777 2.707 0 4.799 1.592 5.163 3.958h4.185v-5.118h1.888zm-11.236-2.502c2.002 0 3.457-1.342 3.457-3.275 0-1.888-1.455-3.207-3.457-3.207-2.024 0-3.48 1.319-3.48 3.207 0 1.933 1.456 3.275 3.48 3.275m11.236 3.548v7.347h-13.26v-7.347zm-1.82 5.845v-4.367h-9.621v4.367zm28.33 1.752h-1.774v-20.402h1.774zm-4.117-19.879v18.855h-1.751v-10.098h-2.957v-1.524h2.957v-7.233zm-10.644 13.465c2.843 0 4.685-.091 6.801-.523l.159 1.523c-2.297.478-4.231.524-7.438.524h-1.319v-13.056h7.597v1.524h-5.8v4.003h4.845v1.479h-4.845zm35.116-2.161c-3.093-.728-6.3-2.889-7.574-5.891-1.274 2.98-4.503 5.163-7.551 5.891l-.842-1.547c3.548-.728 7.415-3.753 7.415-7.255v-1.57h1.956v1.57c0 3.457 3.867 6.596 7.438 7.255zm1.751 5.868h-18.491v-1.547h18.491zm4.798-5.163v-10.735h13.806v1.501h-11.918v3.025h11.463v1.478h-11.463v3.23h12.123v1.501zm16.126 5.254h-18.514v-1.524h18.514zm17.412-13.351c-1.273 3.207-4.321 5.39-8.893 6.459l-.682-1.523c5.072-1.16 7.824-3.526 8.165-6.824h-7.096v-1.524h9.12c0 .66-.068 1.319-.204 1.956h4.617v-2.957h1.888v10.418h-1.888v-2.116h-5.322v-1.455h5.322v-2.434zm7.597 15.785h-13.783v-5.254h11.236v-2.093h-11.282v-1.501h13.147v5.004H248.76v2.365h11.941zm19.081-10.099v10.303h-1.865v-20.402h1.865v8.53h3.253v1.569zm-6.869 1.16c.569-3.389.614-5.868.614-7.506h-8.484v-1.524h10.304v1.115c0 1.638 0 4.253-.569 8.097zm-2.82 3.025c2.274-.091 4.481-.205 6.573-.477l.114 1.364c-4.231.66-9.007.774-12.646.774l-.205-1.547c1.296 0 2.775 0 4.321-.068v-6.278h1.843zm33.478 3.594h-18.537v-1.524h8.302v-3.844h-5.982v-6.3h12.101v-3.185h-12.146v-1.523h13.965v6.209h-12.077v3.298h12.555v1.501h-6.528v3.844h8.347zm8.656-8.598c3.707-.477 7.119-2.729 7.119-5.254h-6.482v-1.501h6.505v-2.502h1.865v2.502h6.505v1.501h-6.505c0 2.502 3.434 4.777 7.096 5.254l-.659 1.501c-3.139-.477-6.073-2.047-7.37-4.253-1.296 2.206-4.23 3.776-7.392 4.253zm9.007 4.572v6.573h-1.865v-6.573h-8.279v-1.524h18.446v1.524zm25.677-13.829h1.888v15.216h-1.888v-7.414h-4.117v-1.547h4.117zm-3.776 12.351c-2.365-.796-4.162-2.366-5.095-4.458-.887 2.274-2.683 3.98-5.072 4.822l-.932-1.456c3.025-1.024 5.049-3.571 5.049-6.414v-.637h-4.526v-1.501h4.526v-2.593h1.865v2.593h4.504v1.501h-4.504v.637c0 2.729 2.093 5.049 5.095 6.027zm6.232 7.574h-13.624v-6.073h1.888v4.549h11.736zm19.263-9.985v10.439h-1.865v-20.379h1.865v8.37h3.344v1.57zm-3.798-6.687v1.501H352.8v-1.501h5.14v-3.025h1.865v3.025zm-5.936 3.184c2.911 0 4.981 1.979 4.981 4.708 0 2.798-2.07 4.686-4.981 4.686-2.866 0-4.936-1.888-4.936-4.686 0-2.729 2.07-4.708 4.936-4.708m0 7.847c1.887 0 3.207-1.319 3.207-3.139s-1.32-3.161-3.207-3.161c-1.843 0-3.185 1.342-3.185 3.161 0 1.82 1.342 3.139 3.185 3.139m17.42-6.642v-6.914h1.866v5.391h12.009v1.523zm15.99 4.231h-18.491v-1.501h18.491zm-2.002 6.482v1.524H376.18v-5.959h1.865v4.435zm10.43-7.869c3.526-.615 7.392-3.412 7.392-6.687v-.433h-6.755v-1.523h15.444v1.523h-6.755v.433c0 3.252 3.889 6.072 7.437 6.618l-.75 1.501c-3.094-.614-6.369-2.638-7.643-5.413-1.273 2.843-4.549 4.845-7.574 5.504zm17.627 7.278h-18.514v-1.547h8.325v-4.935h1.865v4.935h8.324zm2.478-14.193v-1.501h5.072v-2.297h1.865v2.297h5.095v1.501zm15.762 3.162v5.094h-1.865v-11.85h1.865v5.186h3.025v1.57zm-4.867 1.364c0 2.184-1.979 3.571-4.891 3.571s-4.867-1.387-4.867-3.571c0-2.16 1.956-3.548 4.867-3.548s4.891 1.388 4.891 3.548m-7.984 0c0 1.365 1.183 2.161 3.093 2.161 1.911 0 3.116-.796 3.116-2.161s-1.205-2.16-3.116-2.16c-1.91 0-3.093.796-3.093 2.16m12.851 4.64v7.37h-12.828v-7.37h1.842v2.161h9.144v-2.161zm-10.986 3.617v2.251h9.144v-2.251zm25.291-8.962c-4.481 0-7.165-1.228-7.165-3.525s2.684-3.548 7.165-3.548 7.164 1.251 7.164 3.548-2.684 3.525-7.164 3.525m0-5.663c-3.389 0-5.254.773-5.254 2.138s1.865 2.138 5.254 2.138 5.254-.774 5.254-2.138c0-1.365-1.865-2.138-5.254-2.138m9.234 8.552h-18.469v-1.501h18.469zm-1.751 8.415v1.456h-14.421v-4.89h11.964v-1.82H443.9v-1.41h13.874v4.595h-11.986v2.069zm11.771-11.781v-6.164h13.602v1.501h-11.737v3.161h11.941v1.502zm7.711 5.163h5.913v4.571h-11.986v2.047h12.6v1.433h-14.42v-4.844h11.964v-1.797H469.91v-1.41h6.096v-2.025h-8.325v-1.501h18.469v1.501h-8.279zm27.542 8.324h-1.865v-11.054h-3.889v-1.524h3.889v-7.869h1.865zm-14.193-6.459c3.48 0 5.959-.114 8.893-.66l.182 1.547c-3.07.546-5.663.659-9.348.659h-1.569v-7.983h7.255v-4.117h-7.301v-1.524h9.121v7.142h-7.233zm41.909 3.821h-18.492v-1.524h8.279v-4.39h-6.095v-10.417h1.842v3.639h10.417v-3.639h1.82v10.417h-6.096v4.39h8.325zm-4.049-7.415v-3.753h-10.417v3.753zm23.812 10.03h-1.774v-20.402h1.774zm-4.162-19.947v18.947h-1.752v-10.531h-3.366v-1.547h3.366v-6.869zm-7.119 5.3c0 3.275 1.546 6.732 4.207 8.37l-1.069 1.456c-1.933-1.183-3.298-3.344-4.025-5.823-.728 2.752-2.207 5.004-4.231 6.277l-1.16-1.41c2.798-1.637 4.481-5.276 4.481-8.802v-3.889h1.797zm33.387 12.032h-18.537v-1.547h4.549v-5.504c-1.728-.887-2.729-2.365-2.729-4.208 0-3.161 3.093-5.231 7.415-5.231 4.344 0 7.414 2.07 7.414 5.231 0 1.843-.955 3.298-2.683 4.185v5.527h4.571zm-9.302-15.034c-3.276 0-5.618 1.501-5.618 3.775s2.342 3.776 5.618 3.776c3.275 0 5.64-1.501 5.64-3.776s-2.365-3.775-5.64-3.775m2.865 13.487v-4.799c-.978.205-1.933.318-2.865.318-1.001 0-1.934-.113-2.821-.318v4.799z"/><rect width="584.866" height="718.085" x="38.174" y="190.425" fill="#fff" stroke="#b6f973" stroke-width="3.249" rx="30.868"/><path fill="#262d37" d="M104.184 245.468c-1.787 1.787-4.346 2.843-7.27 2.843-5.524 0-9.83-3.859-9.83-9.139 0-5.32 4.306-9.179 9.83-9.179 3.086 0 5.564 1.097 7.351 2.884h8.245v-4.874h5.361v21.932h-5.361v-4.467zm-12.022-6.296c0 2.925 1.99 4.63 4.752 4.63s4.792-1.705 4.792-4.63-2.03-4.63-4.792-4.63-4.752 1.706-4.752 4.63m14.418-2.031c.122.65.203 1.26.203 2.031a9 9 0 0 1-.243 2.031h5.97v-4.062zm-1.381 13.525c7.92 0 12.835 2.722 12.835 7.393 0 4.63-4.915 7.392-12.835 7.392-7.88 0-12.794-2.762-12.794-7.392 0-4.671 4.915-7.393 12.794-7.393m0 10.642c4.915 0 7.555-.975 7.555-3.249s-2.64-3.25-7.555-3.25-7.514.975-7.514 3.25 2.6 3.249 7.514 3.249m50.848 4.061h-5.077v-18.805h-3.127v17.181h-4.996v-35.133h4.996v13.647h3.127v-14.297h5.077zm-23.638-34.726c4.914 0 8.082 5.117 8.082 13.566 0 8.488-3.168 13.606-8.082 13.606-4.996 0-8.124-5.118-8.124-13.606 0-8.449 3.128-13.566 8.124-13.566m0 22.135c1.99 0 3.208-2.68 3.208-8.569 0-5.727-1.218-8.53-3.208-8.53-2.072 0-3.25 2.803-3.25 8.53 0 5.889 1.178 8.569 3.25 8.569m59.945-3.858h-5.361v-20.958h5.361zm-7.757-3.371c-5.768 1.218-11.21 1.625-17.912 1.625h-3.249v-17.018h5.32v12.59c5.565-.121 10.276-.446 15.191-1.543zm7.757 4.996v14.418h-24.857v-14.418zm-5.239 10.235v-6.052h-14.338v6.052zm44.024 4.671h-5.118v-37.448h5.118zm-7.351-36.636v34.97h-4.956v-17.424h-3.574c-.771 4.59-2.112 8.936-4.711 12.997l-4.102-2.274c4.142-6.621 4.914-12.672 5.117-20.511h-2.68v-4.346h7.229c0 3.412-.081 6.58-.365 9.829h3.086v-13.241zm-16.003 3.412c0 9.545-.894 17.83-5.564 25.344l-4.103-2.274c3.696-5.849 4.874-11.495 5.077-18.724h-3.858v-4.346zm39.173 12.022c7.798-.853 11.738-4.468 12.388-7.717h-11.048v-4.264h11.129v-4.184h5.361v4.184h11.21v4.264H264.91c.65 3.168 4.671 6.864 12.388 7.717l-1.909 4.224c-6.377-.771-10.804-3.29-13.241-6.701-2.437 3.411-6.782 5.93-13.322 6.701zm17.83 10.479v10.763h-5.361v-10.763h-14.134v-4.346h33.792v4.346zm43.74-26.725h5.362v27.7h-5.362v-12.469h-5.97v-4.305h5.97zm-6.011 23.313c-4.224-1.259-7.026-3.696-8.773-6.945-1.624 3.574-4.549 6.214-8.773 7.555l-2.599-4.184c6.011-1.949 8.61-6.417 8.61-10.966v-.163h-7.31v-4.183h7.31v-4.143h5.362v4.143h7.392v4.183h-7.392v.163c0 4.224 2.68 8.529 8.732 10.357zm12.226 13.444h-25.507v-11.372h5.361v7.107h20.146zm34.601-17.708v18.358h-5.361v-37.407h5.361v14.622h5.361v4.427zm-7.798-13.525v4.264h-21.77v-4.264h8.285v-4.874h5.362v4.874zm-10.763 6.376c5.401 0 9.422 3.696 9.422 8.895 0 5.321-4.021 8.976-9.422 8.976-5.443 0-9.504-3.655-9.504-8.976 0-5.199 4.061-8.895 9.504-8.895m0 13.485c2.599 0 4.345-1.666 4.345-4.59 0-2.802-1.746-4.549-4.345-4.549-2.6 0-4.387 1.665-4.387 4.59s1.787 4.549 4.387 4.549m30.742-11.007v-13.038h5.362v8.773h20.592v4.265zm29.691 8.123h-33.874v-4.305h33.874zm-3.534 9.829v4.305H361.16v-11.169h5.402v6.864zm47.296-10.032h-5.402v-22.298h5.402zm-10.763-1.787c-4.224-1.34-7.067-3.94-8.732-7.352-1.747 3.615-4.712 6.54-9.098 7.961l-2.64-4.224c6.255-1.95 8.935-6.905 8.935-11.616v-3.574h5.443v3.574c0 4.711 2.64 9.179 8.692 11.007zm10.763 3.412v13.525h-5.402v-9.22h-20.104v-4.305zm40.694-9.342h-4.955v12.469h-5.361v-27.05h5.361v10.194h4.955zm-12.713 5.158c-4.549.975-8.813 1.219-17.139 1.219h-3.128v-17.993h16.734v4.264h-11.413v9.423c6.661 0 10.397-.284 14.418-1.137zm9.098 12.753v4.265h-25.466v-12.55h5.362v8.285zm17.119-14.621c7.92-1.178 12.144-5.889 12.672-10.763h-11.21v-4.265h28.188v4.265h-11.21c.446 4.874 4.914 9.382 12.875 10.56l-2.031 4.224c-6.864-1.178-11.251-4.306-13.687-8.692-2.316 4.59-6.986 7.717-13.526 8.895zm32.533 15.19h-33.873v-4.346h14.256v-8.245h5.361v8.245h14.256zm3.449-25.588v-4.183h8.327v-3.574h5.402v3.574h8.366l-.04 4.183zm29.487 5.889v8.53h-5.361v-21.892h5.361v8.976h4.956v4.386zm-9.26 1.747c0 3.899-3.777 6.62-9.179 6.62s-9.179-2.721-9.179-6.62c0-4.021 3.777-6.62 9.179-6.62s9.179 2.599 9.179 6.62m-13.241 0c0 1.787 1.625 2.721 4.062 2.721s4.061-.934 4.061-2.721-1.624-2.721-4.061-2.721-4.062.934-4.062 2.721m22.501 8.204v13.688h-24.328v-13.688h5.32v2.843h13.688v-2.843zm-19.008 6.905v2.599h13.688v-2.599zm30.743-4.915-.853-16.611-.203-5.646h6.011l-.203 5.646-.853 16.611zm-.975 9.18v-5.768h5.93v5.768z"/><path stroke="#b6f973" stroke-linecap="round" stroke-width="4.874" d="M252.568 273.28h315.177"/></g></g><defs><filter id="a" width="668.837" height="343.315" x=".066" y=".341" color-interpolation-filters="sRGB" filterUnits="userSpaceOnUse"><feFlood flood-opacity="0" result="BackgroundImageFix"/><feColorMatrix in="SourceAlpha" result="hardAlpha" values="0 0 0 0 0 0 0 0 0 0 0 0 0 0 0 0 0 0 127 0"/><feOffset dx="3.934" dy="13.77"/><feGaussianBlur stdDeviation="3.934"/><feComposite in2="hardAlpha" operator="out"/><feColorMatrix values="0 0 0 0 0 0 0 0 0 0 0 0 0 0 0 0 0 0 0.1 0"/><feBlend in2="BackgroundImageFix" result="effect1_dropShadow_3891_555"/><feBlend in="SourceGraphic" in2="effect1_dropShadow_3891_555" result="shape"/></filter><filter id="c" width="818.063" height="5186.35" x="-65.3" y=".344" color-interpolation-filters="sRGB" filterUnits="userSpaceOnUse"><feFlood flood-opacity="0" result="BackgroundImageFix"/><feColorMatrix in="SourceAlpha" result="hardAlpha" values="0 0 0 0 0 0 0 0 0 0 0 0 0 0 0 0 0 0 127 0"/><feOffset dx="19.472" dy="97.362"/><feGaussianBlur stdDeviation="3.894"/><feComposite in2="hardAlpha" operator="out"/><feColorMatrix values="0 0 0 0 0 0 0 0 0 0 0 0 0 0 0 0 0 0 0.25 0"/><feBlend in2="BackgroundImageFix" result="effect1_dropShadow_3891_555"/><feBlend in="SourceGraphic" in2="effect1_dropShadow_3891_555" result="shape"/></filter><clipPath id="b"><rect width="653.1" height="321.676" x="4" y=".341" fill="#fff" rx="42"/></clipPath></defs></svg>